<?xml version="1.0" encoding="UTF-8"?>
<svg version="1.1" xmlns="http://www.w3.org/2000/svg" width="691" height="164">
<path d="M0 0 C7.36015907 0.54336745 12.1305252 4.63304738 16.875 10 C27.5544682 22.97971908 32.11990325 36.20401025 30.875 53 C30.545 54.32 30.215 55.64 29.875 57 C41.755 57 53.635 57 65.875 57 C65.545 55.68 65.215 54.36 64.875 53 C63.63009675 36.20401025 68.1955318 22.97971908 78.875 10 C83.6194748 4.63304738 88.38984093 0.54336745 95.75 0 C99.79292019 0.39681578 100.6976213 0.83771736 103.8125 3.6875 C104.8828125 5.640625 104.8828125 5.640625 105.875 8 C106.26429688 8.92296875 106.65359375 9.8459375 107.0546875 10.796875 C110.23146558 19.60421838 110.30059782 27.79053617 109.875 37 C110.97787354 36.98428955 110.97787354 36.98428955 112.10302734 36.96826172 C115.48531576 36.92628202 118.86754907 36.9005417 122.25 36.875 C123.40628906 36.85824219 124.56257812 36.84148438 125.75390625 36.82421875 C132.64321727 36.78529609 139.22520534 37.04587002 145.875 39 C146.205 39.33 146.535 39.66 146.875 40 C146.78468426 42.35694954 146.62811872 44.71153582 146.4375 47.0625 C146.33566406 48.35285156 146.23382813 49.64320312 146.12890625 50.97265625 C146.04511719 51.97167969 145.96132813 52.97070312 145.875 54 C142.38976299 55.08467221 139.24106278 55.07205579 135.60546875 54.9921875 C133.77725586 54.96705078 133.77725586 54.96705078 131.91210938 54.94140625 C129.3572711 54.89733497 126.80255676 54.84532392 124.24804688 54.78515625 C115.13629639 54.64801005 115.13629639 54.64801005 106.875 58 C104.36945807 61.17368645 103.44323846 64.02233079 102.875 68 C106.93492894 68.46490331 106.93492894 68.46490331 109.1875 65.75 C110.5178125 64.38875 110.5178125 64.38875 111.875 63 C118.26503306 58.20788507 124.08583468 58.43076302 131.88671875 58.50390625 C133.13250198 58.50245102 134.37828522 58.50099579 135.66181946 58.49949646 C138.95669615 58.50157471 142.25079803 58.52255121 145.54553223 58.55047607 C147.56542775 58.56251745 149.58482179 58.56085378 151.60473633 58.55395508 C155.49062966 58.54138091 159.37584987 58.55001802 163.26171875 58.56640625 C165.0680201 58.56200279 165.0680201 58.56200279 166.91081238 58.55751038 C168.58824272 58.57653664 168.58824272 58.57653664 170.29956055 58.59594727 C171.28216354 58.60135025 172.26476654 58.60675323 173.27714539 58.61231995 C176.29820898 59.06315584 177.56287736 60.06730006 179.875 62 C180.865 62.33 181.855 62.66 182.875 63 C182.875 63.66 182.875 64.32 182.875 65 C183.47913727 65.24032959 184.08327454 65.48065918 184.70571899 65.72827148 C188.87093136 68.17010328 190.3403937 72.5854624 191.875 77 C192.54013503 81.16186733 192.57784986 85.2288589 192.5390625 89.4375 C192.54384613 90.59822021 192.54862976 91.75894043 192.55355835 92.95483398 C192.55694273 95.39535894 192.54784361 97.83593014 192.52685547 100.27636719 C192.50007233 103.98997072 192.52665697 107.70055183 192.55859375 111.4140625 C192.5552894 113.7968816 192.54888264 116.17969884 192.5390625 118.5625 C192.54918365 119.66070068 192.55930481 120.75890137 192.56973267 121.89038086 C192.44857857 129.94708952 190.73966911 137.13533089 184.875 143 C185.865 143.66 186.855 144.32 187.875 145 C187.875 146.32 187.875 147.64 187.875 149 C107.685 149 27.495 149 -55.125 149 C-55.125 148.34 -55.125 147.68 -55.125 147 C-57.14604705 147.14284092 -59.16682977 147.28942383 -61.1875 147.4375 C-62.31285156 147.51871094 -63.43820313 147.59992188 -64.59765625 147.68359375 C-66.90645228 147.89069505 -69.21012859 148.17080728 -71.5 148.53125 C-75.72184168 149.0771778 -79.81307979 149.10983716 -84.0625 149.0625 C-84.84173828 149.05798828 -85.62097656 149.05347656 -86.42382812 149.04882812 C-88.32425268 149.03716908 -90.22463706 149.01923877 -92.125 149 C-91.795 147.35 -91.465 145.7 -91.125 144 C-87.06382623 143.34564673 -83.00085624 142.70314918 -78.9375 142.0625 C-77.24077148 141.78889648 -77.24077148 141.78889648 -75.50976562 141.50976562 C-67.72679385 140.29021164 -59.9874798 139.48758934 -52.125 139 C-51.465 136.03 -50.805 133.06 -50.125 130 C-51.66039429 129.96241577 -51.66039429 129.96241577 -53.22680664 129.92407227 C-57.04934742 129.82941206 -60.8717311 129.72933805 -64.6940918 129.62768555 C-66.34379381 129.58455714 -67.99353415 129.54286799 -69.64331055 129.50268555 C-72.02404289 129.44444353 -74.40458627 129.38090903 -76.78515625 129.31640625 C-77.51460953 129.29969376 -78.24406281 129.28298126 -78.99562073 129.26576233 C-83.44661142 129.13897527 -87.72801373 128.70886583 -92.125 128 C-92.125 126.35 -92.125 124.7 -92.125 123 C-89.81679492 121.84589746 -88.51715724 121.8789703 -85.95068359 121.88647461 C-84.65957169 121.88658791 -84.65957169 121.88658791 -83.34237671 121.88670349 C-82.41212677 121.89186478 -81.48187683 121.89702606 -80.5234375 121.90234375 C-79.57183746 121.9037587 -78.62023743 121.90517365 -77.63980103 121.90663147 C-74.59316903 121.91223988 -71.54660987 121.92479381 -68.5 121.9375 C-66.43750106 121.94251392 -64.37500097 121.94707701 -62.3125 121.95117188 C-57.24997183 121.96221204 -52.18749827 121.97948233 -47.125 122 C-46.135 119.36 -45.145 116.72 -44.125 114 C-44.73013428 113.94956543 -45.33526855 113.89913086 -45.95874023 113.84716797 C-52.12527072 113.28824641 -58.1225391 112.35966958 -64.1875 111.125 C-65.02087891 110.96386719 -65.85425781 110.80273438 -66.71289062 110.63671875 C-72.34981184 109.5049478 -77.71499695 107.94280526 -83.125 106 C-83.125 104.35 -83.125 102.7 -83.125 101 C-77.78173512 100.82832884 -73.00654935 101.43524944 -67.78515625 102.53125 C-67.01819931 102.68662231 -66.25124237 102.84199463 -65.46104431 103.0020752 C-63.03517971 103.49502353 -60.61137013 103.99734635 -58.1875 104.5 C-56.53333039 104.83786329 -54.87903453 105.17510906 -53.22460938 105.51171875 C-49.18991134 106.33401315 -45.15702777 107.16471491 -41.125 108 C-40.95049316 107.41919678 -40.77598633 106.83839355 -40.59619141 106.23999023 C-35.09366684 88.73474568 -21.29165598 74.50335913 -5.28515625 66.1015625 C-4.57230469 65.73804687 -3.85945313 65.37453125 -3.125 65 C-3.58390625 64.40574219 -4.0428125 63.81148437 -4.515625 63.19921875 C-14.42917752 49.80759213 -15.54608443 37.32900803 -14.125 21 C-13.43678528 16.39762776 -12.07886391 12.22474548 -10.125 8 C-9.79757813 7.23042969 -9.47015625 6.46085937 -9.1328125 5.66796875 C-6.91335932 1.56117036 -4.42260689 0.43408233 0 0 Z " fill="#7A889C" transform="translate(141.125,15)"/>
<path d="M0 0 C7.36015907 0.54336745 12.1305252 4.63304738 16.875 10 C27.5544682 22.97971908 32.11990325 36.20401025 30.875 53 C30.545 54.32 30.215 55.64 29.875 57 C41.755 57 53.635 57 65.875 57 C65.545 55.68 65.215 54.36 64.875 53 C63.63009675 36.20401025 68.1955318 22.97971908 78.875 10 C83.6194748 4.63304738 88.38984093 0.54336745 95.75 0 C99.79292019 0.39681578 100.6976213 0.83771736 103.8125 3.6875 C104.8828125 5.640625 104.8828125 5.640625 105.875 8 C106.26429688 8.92296875 106.65359375 9.8459375 107.0546875 10.796875 C110.23146558 19.60421838 110.30059782 27.79053617 109.875 37 C110.97787354 36.98428955 110.97787354 36.98428955 112.10302734 36.96826172 C115.48531576 36.92628202 118.86754907 36.9005417 122.25 36.875 C123.40628906 36.85824219 124.56257812 36.84148438 125.75390625 36.82421875 C132.64321727 36.78529609 139.22520534 37.04587002 145.875 39 C146.205 39.33 146.535 39.66 146.875 40 C146.78468426 42.35694954 146.62811872 44.71153582 146.4375 47.0625 C146.33566406 48.35285156 146.23382813 49.64320312 146.12890625 50.97265625 C146.04511719 51.97167969 145.96132813 52.97070312 145.875 54 C142.38976299 55.08467221 139.24106278 55.07205579 135.60546875 54.9921875 C133.77725586 54.96705078 133.77725586 54.96705078 131.91210938 54.94140625 C129.3572711 54.89733497 126.80255676 54.84532392 124.24804688 54.78515625 C115.13689164 54.64918905 115.13689164 54.64918905 106.875 58 C100.84498288 65.69347012 100.93287224 75.68442518 101.56298828 85.00732422 C102.24648411 89.37249866 104.56553533 91.29839619 107.875 94 C109.11189062 96.47378124 109.00810087 98.17915317 109 100.9375 C109.00257813 101.81277344 109.00515625 102.68804687 109.0078125 103.58984375 C108.875 106 108.875 106 107.875 109 C110.08305524 109.0544452 112.29150554 109.09299283 114.5 109.125 C115.72976563 109.14820312 116.95953125 109.17140625 118.2265625 109.1953125 C122.5629027 108.96317437 126.00832958 107.93333521 129.875 106 C130.34023063 104.10466658 130.34023063 104.10466658 130.5 101.9375 C130.685625 99.9884375 130.685625 99.9884375 130.875 98 C133.39849243 101.12432397 135.14756146 104.38060496 136.875 108 C142.815 107.505 142.815 107.505 148.875 107 C148.875 112.94 148.875 118.88 148.875 125 C144.255 125 139.635 125 134.875 125 C134.545 122.36 134.215 119.72 133.875 117 C133.42511719 117.38671875 132.97523438 117.7734375 132.51171875 118.171875 C124.22639688 124.87983098 115.72513216 127.82660803 105.0234375 127.4453125 C97.23024382 126.34304937 91.69800213 122.60821537 86.8359375 116.55078125 C85.875 115 85.875 115 85.875 113 C85.215 112.67 84.555 112.34 83.875 112 C82.01139409 106.09858129 81.64757778 100.14040005 81.875 94 C81.215 94 80.555 94 79.875 94 C79.875 94.99 79.875 95.98 79.875 97 C79.215 97 78.555 97 77.875 97 C77.875 99.64 77.875 102.28 77.875 105 C76.885 105 75.895 105 74.875 105 C74.7383949 103.29395413 74.64228346 101.5846456 74.5625 99.875 C74.47548828 98.44800781 74.47548828 98.44800781 74.38671875 96.9921875 C74.875 94 74.875 94 77.32421875 91.3984375 C81.33226115 87.01737219 80.79412882 81.40149593 81 75.75 C81.48184996 64.82372653 82.37778214 53.62562565 89.875 45 C96.20103406 40 96.20103406 40 99.875 40 C99.59382633 36.66569616 99.29813006 33.33282708 99 30 C98.92136719 29.06542969 98.84273437 28.13085938 98.76171875 27.16796875 C98.25429921 21.58635381 97.38993743 16.39776026 95.875 11 C88.21853012 13.50333276 82.6565607 21.1121573 78.875 28 C75.07282316 36.95095797 73.6426225 45.04350877 75.625 54.625 C75.98000095 59.41751283 74.16727501 62.85968932 71.875 67 C70.31043869 68.56456131 68.76149369 68.15816242 66.58642578 68.19287109 C65.21963181 68.21696548 65.21963181 68.21696548 63.82522583 68.24154663 C59.65383489 68.28581722 55.48260581 68.32705719 51.31103516 68.35009766 C49.10715182 68.3666731 46.90332258 68.39398376 44.69970703 68.43212891 C41.53129028 68.48673222 38.36413557 68.5087459 35.1953125 68.5234375 C33.71395309 68.55744156 33.71395309 68.55744156 32.20266724 68.59213257 C29.66145612 68.58423879 27.35790303 68.54154081 24.875 68 C22.8046875 65.60107422 22.8046875 65.60107422 21.875 63 C21.28332031 61.94039062 21.28332031 61.94039062 20.6796875 60.859375 C19.17664683 55.51847321 19.88292581 49.86820465 20.12890625 44.3671875 C20.38569788 33.34025293 15.72075262 25.42883291 8.875 17 C6.63541877 14.72881177 4.44670768 12.91617435 1.875 11 C1.215 11 0.555 11 -0.125 11 C-3.50616872 23.51837467 -6.26572927 38.82566773 -0.41015625 51.01953125 C1.63400112 54.16964611 4.10282497 56.47424053 6.875 59 C7.87996852 62.01490557 7.97835303 64.04181692 7.9375 67.1875 C7.92847656 68.08855469 7.91945313 68.98960938 7.91015625 69.91796875 C7.89855469 70.60503906 7.88695312 71.29210937 7.875 72 C7.00359375 72.31710938 6.1321875 72.63421875 5.234375 72.9609375 C-12.59029393 79.94419524 -22.70567209 92.0200803 -31.125 109 C-31.62 110.485 -31.62 110.485 -32.125 112 C-30.98611328 112.07347656 -30.98611328 112.07347656 -29.82421875 112.1484375 C-28.83035156 112.22320312 -27.83648437 112.29796875 -26.8125 112.375 C-25.82636719 112.44460937 -24.84023437 112.51421875 -23.82421875 112.5859375 C-21.125 113 -21.125 113 -18.125 115 C-18.125 116.32 -18.125 117.64 -18.125 119 C-24.03992272 118.54775239 -29.47699888 117.8417395 -35.125 116 C-35.785 118.97 -36.445 121.94 -37.125 125 C-32.835 125 -28.545 125 -24.125 125 C-24.125 126.32 -24.125 127.64 -24.125 129 C-29.075 129 -34.025 129 -39.125 129 C-39.785 131.64 -40.445 134.28 -41.125 137 C-36.505 136.67 -31.885 136.34 -27.125 136 C-26.795 137.32 -26.465 138.64 -26.125 140 C-27.89402988 141.76902988 -30.47610253 141.66755956 -32.875 142.0625 C-34.44507812 142.32740234 -34.44507812 142.32740234 -36.046875 142.59765625 C-38.78892252 142.95607109 -41.36532952 143.07665751 -44.125 143 C-44.62 145.97 -44.62 145.97 -45.125 149 C-48.425 149 -51.725 149 -55.125 149 C-55.125 148.34 -55.125 147.68 -55.125 147 C-57.14604705 147.14284092 -59.16682977 147.28942383 -61.1875 147.4375 C-62.31285156 147.51871094 -63.43820313 147.59992188 -64.59765625 147.68359375 C-66.90645228 147.89069505 -69.21012859 148.17080728 -71.5 148.53125 C-75.72184168 149.0771778 -79.81307979 149.10983716 -84.0625 149.0625 C-84.84173828 149.05798828 -85.62097656 149.05347656 -86.42382812 149.04882812 C-88.32425268 149.03716908 -90.22463706 149.01923877 -92.125 149 C-91.795 147.35 -91.465 145.7 -91.125 144 C-87.06382623 143.34564673 -83.00085624 142.70314918 -78.9375 142.0625 C-77.24077148 141.78889648 -77.24077148 141.78889648 -75.50976562 141.50976562 C-67.72679385 140.29021164 -59.9874798 139.48758934 -52.125 139 C-51.465 136.03 -50.805 133.06 -50.125 130 C-51.66039429 129.96241577 -51.66039429 129.96241577 -53.22680664 129.92407227 C-57.04934742 129.82941206 -60.8717311 129.72933805 -64.6940918 129.62768555 C-66.34379381 129.58455714 -67.99353415 129.54286799 -69.64331055 129.50268555 C-72.02404289 129.44444353 -74.40458627 129.38090903 -76.78515625 129.31640625 C-77.51460953 129.29969376 -78.24406281 129.28298126 -78.99562073 129.26576233 C-83.44661142 129.13897527 -87.72801373 128.70886583 -92.125 128 C-92.125 126.35 -92.125 124.7 -92.125 123 C-89.81679492 121.84589746 -88.51715724 121.8789703 -85.95068359 121.88647461 C-84.65957169 121.88658791 -84.65957169 121.88658791 -83.34237671 121.88670349 C-82.41212677 121.89186478 -81.48187683 121.89702606 -80.5234375 121.90234375 C-79.57183746 121.9037587 -78.62023743 121.90517365 -77.63980103 121.90663147 C-74.59316903 121.91223988 -71.54660987 121.92479381 -68.5 121.9375 C-66.43750106 121.94251392 -64.37500097 121.94707701 -62.3125 121.95117188 C-57.24997183 121.96221204 -52.18749827 121.97948233 -47.125 122 C-46.135 119.36 -45.145 116.72 -44.125 114 C-44.73013428 113.94956543 -45.33526855 113.89913086 -45.95874023 113.84716797 C-52.12527072 113.28824641 -58.1225391 112.35966958 -64.1875 111.125 C-65.02087891 110.96386719 -65.85425781 110.80273438 -66.71289062 110.63671875 C-72.34981184 109.5049478 -77.71499695 107.94280526 -83.125 106 C-83.125 104.35 -83.125 102.7 -83.125 101 C-77.78173512 100.82832884 -73.00654935 101.43524944 -67.78515625 102.53125 C-67.01819931 102.68662231 -66.25124237 102.84199463 -65.46104431 103.0020752 C-63.03517971 103.49502353 -60.61137013 103.99734635 -58.1875 104.5 C-56.53333039 104.83786329 -54.87903453 105.17510906 -53.22460938 105.51171875 C-49.18991134 106.33401315 -45.15702777 107.16471491 -41.125 108 C-40.95049316 107.41919678 -40.77598633 106.83839355 -40.59619141 106.23999023 C-35.09366684 88.73474568 -21.29165598 74.50335913 -5.28515625 66.1015625 C-4.57230469 65.73804687 -3.85945313 65.37453125 -3.125 65 C-3.58390625 64.40574219 -4.0428125 63.81148437 -4.515625 63.19921875 C-14.42917752 49.80759213 -15.54608443 37.32900803 -14.125 21 C-13.43678528 16.39762776 -12.07886391 12.22474548 -10.125 8 C-9.79757813 7.23042969 -9.47015625 6.46085937 -9.1328125 5.66796875 C-6.91335932 1.56117036 -4.42260689 0.43408233 0 0 Z " fill="#20222C" transform="translate(141.125,15)"/>
<path d="M0 0 C1.24436829 -0.00004028 2.48873657 -0.00008057 3.77081299 -0.00012207 C7.05764642 0.00658333 10.34325117 0.03649174 13.62982178 0.07556152 C15.64516399 0.09379106 17.65987802 0.09631236 19.67529297 0.09277344 C23.55464617 0.08613152 27.43322482 0.10119188 31.3125 0.125 C32.51356384 0.12520142 33.71462769 0.12540283 34.9520874 0.12561035 C36.06714661 0.14152222 37.18220581 0.15743408 38.33105469 0.17382812 C39.80043488 0.18645691 39.80043488 0.18645691 41.29949951 0.19934082 C44.31170602 0.65784501 45.58276311 1.66689546 47.890625 3.59375 C48.880625 3.92375 49.870625 4.25375 50.890625 4.59375 C50.890625 5.25375 50.890625 5.91375 50.890625 6.59375 C51.49476227 6.83407959 52.09889954 7.07440918 52.72134399 7.32202148 C56.88655636 9.76385328 58.3560187 14.1792124 59.890625 18.59375 C60.55576003 22.75561733 60.59347486 26.8226089 60.5546875 31.03125 C60.55947113 32.19197021 60.56425476 33.35269043 60.56918335 34.54858398 C60.57256773 36.98910894 60.56346861 39.42968014 60.54248047 41.87011719 C60.51569733 45.58372072 60.54228197 49.29430183 60.57421875 53.0078125 C60.5709144 55.3906316 60.56450764 57.77344884 60.5546875 60.15625 C60.56986923 61.80355103 60.56986923 61.80355103 60.58535767 63.48413086 C60.46420357 71.54083952 58.75529411 78.72908089 52.890625 84.59375 C54.375625 85.58375 54.375625 85.58375 55.890625 86.59375 C55.890625 87.91375 55.890625 89.23375 55.890625 90.59375 C40.380625 90.59375 24.870625 90.59375 8.890625 90.59375 C8.560625 88.61375 8.230625 86.63375 7.890625 84.59375 C6.69566406 84.52027344 6.69566406 84.52027344 5.4765625 84.4453125 C-5.04786358 83.70271309 -5.04786358 83.70271309 -10.109375 81.59375 C-9.779375 80.27375 -9.449375 78.95375 -9.109375 77.59375 C-4.819375 77.92375 -0.529375 78.25375 3.890625 78.59375 C3.395625 74.63375 3.395625 74.63375 2.890625 70.59375 C-2.059375 70.59375 -7.009375 70.59375 -12.109375 70.59375 C-12.109375 69.60375 -12.109375 68.61375 -12.109375 67.59375 C-12.769375 67.26375 -13.429375 66.93375 -14.109375 66.59375 C-13.22185547 66.23023438 -13.22185547 66.23023438 -12.31640625 65.859375 C-7.67502404 63.89076264 -3.98347246 61.880863 -0.109375 58.59375 C0.550625 58.59375 1.210625 58.59375 1.890625 58.59375 C2.385625 62.55375 2.385625 62.55375 2.890625 66.59375 C7.510625 66.59375 12.130625 66.59375 16.890625 66.59375 C16.890625 60.65375 16.890625 54.71375 16.890625 48.59375 C14.580625 49.25375 12.270625 49.91375 9.890625 50.59375 C7.140625 51.03125 7.140625 51.03125 4.890625 50.59375 C3.203125 48.34375 3.203125 48.34375 1.890625 45.59375 C1.49875 44.830625 1.106875 44.0675 0.703125 43.28125 C0.435 42.724375 0.166875 42.1675 -0.109375 41.59375 C-0.3775 42.7075 -0.645625 43.82125 -0.921875 44.96875 C-2.109375 48.59375 -2.109375 48.59375 -5.109375 50.59375 C-8.85953999 51.59973653 -12.42558218 51.72836812 -16.296875 51.71875 C-17.86501953 51.72261719 -17.86501953 51.72261719 -19.46484375 51.7265625 C-22.109375 51.59375 -22.109375 51.59375 -24.109375 50.59375 C-24.06296875 49.72492188 -24.0165625 48.85609375 -23.96875 47.9609375 C-23.58059424 38.9355761 -23.58059424 38.9355761 -28.109375 31.59375 C-28.64199951 31.13556885 -29.17462402 30.6773877 -29.72338867 30.20532227 C-31.48090301 28.16175134 -31.48360722 27.09941439 -31.47265625 24.43359375 C-31.47201172 23.64017578 -31.47136719 22.84675781 -31.47070312 22.02929688 C-31.45458984 21.20494141 -31.43847656 20.38058594 -31.421875 19.53125 C-31.42509766 18.70302734 -31.42832031 17.87480469 -31.43164062 17.02148438 C-31.37650092 10.86087592 -31.37650092 10.86087592 -29.109375 8.59375 C-28.119375 9.25375 -27.129375 9.91375 -26.109375 10.59375 C-25.449375 9.871875 -24.789375 9.15 -24.109375 8.40625 C-16.58167697 1.07246937 -10.4335859 -0.14339156 0 0 Z " fill="#171422" transform="translate(273.109375,73.40625)"/>
<path d="M0 0 C6.34876678 5.08176777 8.25117338 11.9835663 9.6875 19.6875 C10.83155403 31.67623281 11.65288922 46.09973458 4.4296875 56.37890625 C1.47059387 59.73416268 -1.80743974 61.60247991 -6 63 C-15.10541786 63.50050923 -23.53186999 63.78041518 -32 60 C-32.495 59.505 -32.495 59.505 -33 59 C-33.33 67.58 -33.66 76.16 -34 85 C-40.27 85 -46.54 85 -53 85 C-53 56.62 -53 28.24 -53 -1 C-47.72 -1 -42.44 -1 -37 -1 C-37 1.31 -37 3.62 -37 6 C-36.40574219 5.60167969 -35.81148438 5.20335938 -35.19921875 4.79296875 C-24.39988618 -2.10987057 -12.11079042 -6.19878344 0 0 Z M-34 18 C-35.00683592 22.79693665 -34.75257787 27.43823288 -34.5 32.3125 C-34.46390625 33.62541016 -34.4278125 34.93832031 -34.390625 36.29101562 C-34.29639122 39.53030187 -34.16494088 42.76366962 -34 46 C-27.82150091 48.57280159 -27.82150091 48.57280159 -21.25 49.3125 C-20.53328125 49.30863281 -19.8165625 49.30476563 -19.078125 49.30078125 C-16.63585051 48.94729415 -15.06300608 48.35931121 -13 47 C-8.48526109 39.78989457 -8.88727587 29.16418121 -10.609375 21.171875 C-11.68327988 17.77482894 -12.45767804 15.54232196 -15 13 C-17.39050015 12.5643336 -17.39050015 12.5643336 -20.125 12.5625 C-21.03507812 12.52253906 -21.94515625 12.48257813 -22.8828125 12.44140625 C-27.46960701 13.26335063 -30.99296312 14.27380977 -34 18 Z " fill="#000000" transform="translate(459,79)"/>
<path d="M0 0 C1.7315332 -0.00483398 1.7315332 -0.00483398 3.49804688 -0.00976562 C21.22584457 0.10084457 21.22584457 0.10084457 24.4375 3.3125 C24.34718426 5.66944954 24.19061872 8.02403582 24 10.375 C23.89816406 11.66535156 23.79632813 12.95570312 23.69140625 14.28515625 C23.56572266 15.78369141 23.56572266 15.78369141 23.4375 17.3125 C19.95226299 18.39717221 16.80356278 18.38455579 13.16796875 18.3046875 C11.94916016 18.28792969 10.73035156 18.27117187 9.47460938 18.25390625 C6.9197711 18.20983497 4.36505676 18.15782392 1.81054688 18.09765625 C-7.30060836 17.96168905 -7.30060836 17.96168905 -15.5625 21.3125 C-21.59251712 29.00597012 -21.50462776 38.99692518 -20.87451172 48.31982422 C-20.19101589 52.68499866 -17.87196467 54.61089619 -14.5625 57.3125 C-13.32560938 59.78628124 -13.42939913 61.49165317 -13.4375 64.25 C-13.43363281 65.56291016 -13.43363281 65.56291016 -13.4296875 66.90234375 C-13.5625 69.3125 -13.5625 69.3125 -14.5625 72.3125 C-12.35444476 72.3669452 -10.14599446 72.40549283 -7.9375 72.4375 C-6.70773437 72.46070312 -5.47796875 72.48390625 -4.2109375 72.5078125 C0.1254027 72.27567437 3.57082958 71.24583521 7.4375 69.3125 C7.90273063 67.41716658 7.90273063 67.41716658 8.0625 65.25 C8.248125 63.3009375 8.248125 63.3009375 8.4375 61.3125 C10.96099243 64.43682397 12.71006146 67.69310496 14.4375 71.3125 C20.3775 70.8175 20.3775 70.8175 26.4375 70.3125 C26.4375 76.2525 26.4375 82.1925 26.4375 88.3125 C21.8175 88.3125 17.1975 88.3125 12.4375 88.3125 C11.9425 84.3525 11.9425 84.3525 11.4375 80.3125 C10.76267578 80.89257812 10.76267578 80.89257812 10.07421875 81.484375 C1.78889688 88.19233098 -6.71236784 91.13910803 -17.4140625 90.7578125 C-25.20725618 89.65554937 -30.73949787 85.92071537 -35.6015625 79.86328125 C-36.5625 78.3125 -36.5625 78.3125 -36.5625 76.3125 C-37.2225 75.9825 -37.8825 75.6525 -38.5625 75.3125 C-40.42610591 69.41108129 -40.78992222 63.45290005 -40.5625 57.3125 C-41.2225 57.3125 -41.8825 57.3125 -42.5625 57.3125 C-42.5625 58.3025 -42.5625 59.2925 -42.5625 60.3125 C-43.2225 60.3125 -43.8825 60.3125 -44.5625 60.3125 C-44.5625 62.9525 -44.5625 65.5925 -44.5625 68.3125 C-45.5525 68.3125 -46.5425 68.3125 -47.5625 68.3125 C-47.6991051 66.60645413 -47.79521654 64.8971456 -47.875 63.1875 C-47.96201172 61.76050781 -47.96201172 61.76050781 -48.05078125 60.3046875 C-47.5625 57.3125 -47.5625 57.3125 -45.11328125 54.7109375 C-41.10523885 50.32987219 -41.64337118 44.71399593 -41.4375 39.0625 C-40.95259842 28.06702899 -40.01492184 17.02969317 -32.5625 8.3125 C-23.50866646 0.39297362 -11.4518719 -0.16039036 0 0 Z " fill="#000000" transform="translate(263.5625,51.6875)"/>
<path d="M0 0 C0.79051758 0.00676758 1.58103516 0.01353516 2.39550781 0.02050781 C12.0393706 0.19165354 18.71048092 1.7899841 26.3125 8.125 C30.8585938 13.64525675 30.68727853 20.4270218 30.0625 27.25 C29.13708891 31.48045071 27.54519568 33.85973541 24.125 36.625 C19.42682003 39.11791182 15.85932434 39.37180375 10.546875 39.34765625 C8.67128906 39.34282227 8.67128906 39.34282227 6.7578125 39.33789062 C4.80488281 39.32532227 4.80488281 39.32532227 2.8125 39.3125 C0.83636719 39.30573242 0.83636719 39.30573242 -1.1796875 39.29882812 C-4.43233741 39.28704316 -7.68489584 39.27059011 -10.9375 39.25 C-10.545625 40.343125 -10.15375 41.43625 -9.75 42.5625 C-9.52957031 43.17738281 -9.30914062 43.79226562 -9.08203125 44.42578125 C-7.42354672 47.06916786 -5.76993347 47.95986214 -2.9375 49.25 C0.44593712 49.66108276 0.44593712 49.66108276 4.11328125 49.54296875 C4.77208786 49.53872391 5.43089447 49.53447906 6.10966492 49.53010559 C8.19853885 49.51341196 10.28642139 49.47578058 12.375 49.4375 C13.79751203 49.42244097 15.2200393 49.40875469 16.64257812 49.39648438 C20.11620351 49.36354003 23.58925487 49.31182408 27.0625 49.25 C28.00027474 53.7312004 28.139975 57.67897493 28.0625 62.25 C26.56529178 62.73781989 25.06452636 63.21472363 23.5625 63.6875 C22.7271875 63.95433594 21.891875 64.22117188 21.03125 64.49609375 C8.44062473 67.6934499 -8.65166072 68.63150835 -20.1875 62 C-26.56400145 57.61377833 -29.63905215 53.19673959 -31.43359375 45.7109375 C-33.23286795 33.35313173 -32.98001274 21.18530278 -27.25 9.9375 C-20.08616355 1.61196034 -10.5199426 -0.13009737 0 0 Z M-8.9375 17.25 C-10.87145001 20.15092502 -11.23881941 21.14674737 -11.5625 24.4375 C-11.68625 25.695625 -11.81 26.95375 -11.9375 28.25 C-8.85434615 28.33733513 -5.77151173 28.39050127 -2.6875 28.4375 C-1.37845703 28.47520508 -1.37845703 28.47520508 -0.04296875 28.51367188 C4.97795324 28.59269366 4.97795324 28.59269366 9.64453125 26.95703125 C11.39225903 25.16479122 11.39225903 25.16479122 11.5 21.75 C11.36208047 18.33953379 11.36208047 18.33953379 9.6875 16.375 C4.20651256 12.58047023 -3.85021827 12.95760604 -8.9375 17.25 Z " fill="#000000" transform="translate(509.9375,75.75)"/>
<path d="M0 0 C6.6 0 13.2 0 20 0 C20.01981934 1.97838867 20.03963867 3.95677734 20.06005859 5.99511719 C20.12784077 12.53310298 20.204617 19.07093478 20.28752708 25.60874557 C20.33746426 29.57246147 20.38379444 33.53615105 20.421875 37.5 C20.45876052 41.3256299 20.50512918 45.15103826 20.55806351 48.97647858 C20.57659013 50.43566246 20.59170451 51.8948938 20.60334396 53.35414886 C20.62023638 55.39876471 20.64927753 57.4428751 20.68115234 59.48730469 C20.69447601 60.65090515 20.70779968 61.81450562 20.7215271 63.0133667 C20.8456206 66.29498492 20.8456206 66.29498492 23 70 C34.22 70.33 45.44 70.66 57 71 C58.14077657 74.42232972 58.09815117 77.08673217 58.0625 80.6875 C58.05347656 81.86699219 58.04445313 83.04648438 58.03515625 84.26171875 C58.02355469 85.16535156 58.01195312 86.06898438 58 87 C49.43093235 87.86862308 40.89906941 88.21534538 32.28955078 88.24023438 C30.2382115 88.25005644 28.18782981 88.28126728 26.13671875 88.3125 C10.52687807 88.37353555 10.52687807 88.37353555 4.125 82.25 C0.43624403 76.60837322 -0.25041158 71.24209538 -0.22705078 64.59594727 C-0.22748886 63.54102837 -0.22748886 63.54102837 -0.22793579 62.46479797 C-0.22655446 60.16520377 -0.21105057 57.86594309 -0.1953125 55.56640625 C-0.1915781 53.96215492 -0.18873314 52.35790129 -0.18673706 50.75364685 C-0.17913422 46.54999392 -0.15951484 42.34648119 -0.1373291 38.1428833 C-0.11679819 33.84592586 -0.1077199 29.54894557 -0.09765625 25.25195312 C-0.07626548 16.83456419 -0.04111098 8.41731574 0 0 Z " fill="#000000" transform="translate(339,53)"/>
<path d="M0 0 C-0.66 5.94 -1.32 11.88 -2 18 C-7.37109375 18.68359375 -7.37109375 18.68359375 -12.7421875 19.3671875 C-17.52263123 20.07767547 -22.26089961 21.05217992 -27 22 C-27 35.86 -27 49.72 -27 64 C-33.27 64 -39.54 64 -46 64 C-46 43.54 -46 23.08 -46 2 C-40.72 2 -35.44 2 -30 2 C-29.34 4.31 -28.68 6.62 -28 9 C-27.45472656 8.60167969 -26.90945313 8.20335938 -26.34765625 7.79296875 C-17.56586125 1.62319483 -10.72269023 -0.45307142 0 0 Z " fill="#000000" transform="translate(597,76)"/>
<path d="M0 0 C6.51472081 5.09847716 6.51472081 5.09847716 8 9 C8.23046875 11.47265625 8.23046875 11.47265625 8.1875 14.0625 C8.18105469 14.91972656 8.17460937 15.77695313 8.16796875 16.66015625 C8 19 8 19 7 22 C9.20805524 22.0544452 11.41650554 22.09299283 13.625 22.125 C15.46964844 22.15980469 15.46964844 22.15980469 17.3515625 22.1953125 C21.6879027 21.96317437 25.13332958 20.93333521 29 19 C29.46523063 17.10466658 29.46523063 17.10466658 29.625 14.9375 C29.810625 12.9884375 29.810625 12.9884375 30 11 C32.52349243 14.12432397 34.27256146 17.38060496 36 21 C39.96 20.67 43.92 20.34 48 20 C48 25.94 48 31.88 48 38 C43.38 38 38.76 38 34 38 C33.505 34.04 33.505 34.04 33 30 C32.32517578 30.58007812 32.32517578 30.58007812 31.63671875 31.171875 C23.35139688 37.87983098 14.85013216 40.82660803 4.1484375 40.4453125 C-3.64475618 39.34304937 -9.17699787 35.60821537 -14.0390625 29.55078125 C-15 28 -15 28 -15 26 C-15.66 25.67 -16.32 25.34 -17 25 C-18.86360591 19.09858129 -19.22742222 13.14040005 -19 7 C-19.66 7 -20.32 7 -21 7 C-21 7.99 -21 8.98 -21 10 C-21.66 10 -22.32 10 -23 10 C-23 12.64 -23 15.28 -23 18 C-23.99 18 -24.98 18 -26 18 C-26.76681614 8.42331839 -26.76681614 8.42331839 -24.88671875 4.93359375 C-23.5 3.3125 -23.5 3.3125 -21 1 C-20.34 2.32 -19.68 3.64 -19 5 C-18.18208984 4.26716797 -18.18208984 4.26716797 -17.34765625 3.51953125 C-14.48405052 1.66604934 -12.81923483 1.627687 -9.4375 1.6875 C-8.01244141 1.69330078 -8.01244141 1.69330078 -6.55859375 1.69921875 C-4 2 -4 2 -1 4 C-0.67 2.68 -0.34 1.36 0 0 Z " fill="#101318" transform="translate(242,102)"/>
<path d="M0 0 C1.86018517 0.00062691 1.86018517 0.00062691 3.75794983 0.00126648 C6.35900417 0.00959797 8.96005478 0.03489342 11.56079102 0.07641602 C14.22501575 0.11684009 16.88321927 0.1427216 19.54711914 0.13793945 C23.40694485 0.13106342 27.26533932 0.15326032 31.125 0.1875 C32.31665268 0.18881424 33.50830536 0.19012848 34.73606873 0.19148254 C35.84144485 0.21377426 36.94682098 0.23606598 38.08569336 0.2590332 C39.05623154 0.27126419 40.02676971 0.28349518 41.02671814 0.2960968 C43.59765625 0.82421875 43.59765625 0.82421875 47.59765625 4.82421875 C42.31765625 4.82421875 37.03765625 4.82421875 31.59765625 4.82421875 C31.75427734 7.23154297 31.75427734 7.23154297 31.9140625 9.6875 C32.79567598 29.07387651 32.79567598 29.07387651 27.34765625 35.44921875 C25.79045098 36.93541938 24.21005129 38.39808314 22.59765625 39.82421875 C21.15870392 41.71794549 21.15870392 41.71794549 20.09765625 43.51171875 C19.60265625 44.27484375 19.10765625 45.03796875 18.59765625 45.82421875 C18.26765625 45.82421875 17.93765625 45.82421875 17.59765625 45.82421875 C17.59765625 36.25421875 17.59765625 26.68421875 17.59765625 16.82421875 C11.32765625 16.82421875 5.05765625 16.82421875 -1.40234375 16.82421875 C-1.40234375 23.75421875 -1.40234375 30.68421875 -1.40234375 37.82421875 C-5.40234375 32.82421875 -5.40234375 32.82421875 -7.12109375 30.5 C-12.41295859 23.47899512 -18.52987236 18.20765467 -25.40234375 12.82421875 C-25.10843779 9.5721926 -24.7378031 8.15271795 -22.36961365 5.83366394 C-14.80178677 0.85680472 -8.96006325 -0.17943806 0 0 Z " fill="#B4A1E9" transform="translate(273.40234375,73.17578125)"/>
<path d="M0 0 C2.88176607 0.32231902 3.81640593 0.77403563 5.67634583 3.06321716 C9.79476939 10.39258711 10.87836469 16.19233906 10.76171875 24.53515625 C10.76508743 25.69446152 10.76845612 26.85376678 10.77192688 28.04820251 C10.77162974 30.48278266 10.75654333 32.91740217 10.72729492 35.35180664 C10.68756249 39.05667322 10.70664377 42.75796325 10.73242188 46.46289062 C10.72486285 48.84115957 10.71390949 51.21942066 10.69921875 53.59765625 C10.7096949 55.24025169 10.7096949 55.24025169 10.72038269 56.91603088 C10.57377735 64.98313431 8.72926121 71.43842887 3.55741882 77.76454163 C0.79206116 79.95822532 -2.6593381 79.14433954 -6 78.875 C-6.78294434 78.822229 -7.56588867 78.76945801 -8.37255859 78.71508789 C-17.32732715 78.0326085 -26.16245737 76.55783734 -35 75 C-35.99 71.04 -36.98 67.08 -38 63 C-23.81 63 -9.62 63 5 63 C4.505 61.02 4.505 61.02 4 59 C3.01 58.67 2.02 58.34 1 58 C-0.19225087 38.6685037 -0.10393886 19.35821237 0 0 Z " fill="#1C7D52" transform="translate(323,80)"/>
<path d="M0 0 C6.27 0 12.54 0 19 0 C18.67 20.46 18.34 40.92 18 62 C12.06 62 6.12 62 0 62 C0 41.54 0 21.08 0 0 Z " fill="#010C05" transform="translate(305,78)"/>
<path d="M0 0 C0.33 0 0.66 0 1 0 C1 7.26 1 14.52 1 22 C2.98 22.495 2.98 22.495 5 23 C5 24.32 5 25.64 5 27 C-9.19 27 -23.38 27 -38 27 C-36.515 32.94 -36.515 32.94 -35 39 C-21.67540607 40.43144209 -8.34299912 41.75199809 5 43 C5.495 45.475 5.495 45.475 6 48 C-9.51 48 -25.02 48 -41 48 C-41.33 46.02 -41.66 44.04 -42 42 C-42.79664063 41.95101562 -43.59328125 41.90203125 -44.4140625 41.8515625 C-54.93848858 41.10896309 -54.93848858 41.10896309 -60 39 C-59.67 37.68 -59.34 36.36 -59 35 C-54.71 35.33 -50.42 35.66 -46 36 C-46.33 33.36 -46.66 30.72 -47 28 C-51.95 28 -56.9 28 -62 28 C-62 27.01 -62 26.02 -62 25 C-62.66 24.67 -63.32 24.34 -64 24 C-63.40832031 23.75765625 -62.81664062 23.5153125 -62.20703125 23.265625 C-57.56564904 21.29701264 -53.87409746 19.287113 -50 16 C-49.34 16 -48.68 16 -48 16 C-47.67 18.64 -47.34 21.28 -47 24 C-42.38 24 -37.76 24 -33 24 C-33 19.71 -33 15.42 -33 11 C-27.57005683 9.19001894 -23.58346516 8.50758774 -18 8 C-18 13.28 -18 18.56 -18 24 C-12.06 24 -6.12 24 0 24 C0 16.08 0 8.16 0 0 Z " fill="#20242D" transform="translate(323,116)"/>
<path d="M0 0 C11.72859587 6.59325519 22.76800444 17.01681566 29 29 C29.43359375 31.5703125 29.43359375 31.5703125 29.4375 34.125 C29.46650391 35.39730469 29.46650391 35.39730469 29.49609375 36.6953125 C29 39 29 39 27.28515625 40.7421875 C22.93811048 43.13492039 18.69604798 43.13713304 13.8125 43.125 C12.24435547 43.12886719 12.24435547 43.12886719 10.64453125 43.1328125 C8 43 8 43 6 42 C6.04640625 41.13117188 6.0928125 40.26234375 6.140625 39.3671875 C6.52878076 30.3418261 6.52878076 30.3418261 2 23 C1.46665039 22.54181885 0.93330078 22.0836377 0.38378906 21.61157227 C-1.37556016 19.56261951 -1.36251169 18.50985169 -1.328125 15.83984375 C-1.32296875 15.04642578 -1.3178125 14.25300781 -1.3125 13.43554688 C-1.291875 12.61119141 -1.27125 11.78683594 -1.25 10.9375 C-1.24484375 10.10927734 -1.2396875 9.28105469 -1.234375 8.42773438 C-1.15472274 2.30944549 -1.15472274 2.30944549 0 0 Z " fill="#24252F" transform="translate(243,82)"/>
<path d="M0 0 C6.50845547 5.09357384 6.50845547 5.09357384 8 9 C8.265625 11.5078125 8.265625 11.5078125 8.25 14.125 C8.25773437 15.42824219 8.25773437 15.42824219 8.265625 16.7578125 C8 19 8 19 6 21 C5.34 20.34 4.68 19.68 4 19 C2.9171875 20.423125 2.9171875 20.423125 1.8125 21.875 C-1.07703039 25.29723711 -3.43326976 26.76803617 -7.98828125 27.1796875 C-11.85888343 27.30705649 -13.72308626 27.18460916 -17 25 C-19.01810029 19.19391467 -19.22535058 13.0844657 -19 7 C-19.66 7 -20.32 7 -21 7 C-21 7.99 -21 8.98 -21 10 C-21.66 10 -22.32 10 -23 10 C-23 12.64 -23 15.28 -23 18 C-23.99 18 -24.98 18 -26 18 C-26.76681614 8.42331839 -26.76681614 8.42331839 -24.88671875 4.93359375 C-23.5 3.3125 -23.5 3.3125 -21 1 C-20.34 2.32 -19.68 3.64 -19 5 C-18.18208984 4.26716797 -18.18208984 4.26716797 -17.34765625 3.51953125 C-14.48405052 1.66604934 -12.81923483 1.627687 -9.4375 1.6875 C-8.01244141 1.69330078 -8.01244141 1.69330078 -6.55859375 1.69921875 C-4 2 -4 2 -1 4 C-0.67 2.68 -0.34 1.36 0 0 Z " fill="#292926" transform="translate(242,102)"/>
<path d="M0 0 C4.05753083 -0.09198433 8.11239665 -0.17156595 12.17041016 -0.21972656 C13.5497668 -0.23980642 14.92903869 -0.26707666 16.30810547 -0.30175781 C18.29356979 -0.35042817 20.27966254 -0.37086418 22.265625 -0.390625 C23.45961914 -0.41157227 24.65361328 -0.43251953 25.88378906 -0.45410156 C29 0 29 0 33 4 C27.72 4 22.44 4 17 4 C17.10441406 5.60488281 17.20882813 7.20976563 17.31640625 8.86328125 C18.19801973 28.24965776 18.19801973 28.24965776 12.75 34.625 C11.19279473 36.11120063 9.61239504 37.57386439 8 39 C6.56104767 40.89372674 6.56104767 40.89372674 5.5 42.6875 C5.005 43.450625 4.51 44.21375 4 45 C3.67 45 3.34 45 3 45 C3 35.43 3 25.86 3 16 C2.01 16 1.02 16 0 16 C0 10.72 0 5.44 0 0 Z " fill="#8A7ABD" transform="translate(288,74)"/>
<path d="M0 0 C-1.13735654 6.73434796 -2.61787846 12.16889826 -8.0859375 16.74609375 C-10.64332991 19.75755379 -10.59386858 21.84671443 -10.75 25.75 C-10.8325 27.8125 -10.915 29.875 -11 32 C-7.04 33.65 -3.08 35.3 1 37 C1 41.95 1 46.9 1 52 C-0.32 51.34 -1.64 50.68 -3 50 C-5.6477263 49.64753339 -5.6477263 49.64753339 -8.4375 49.6875 C-9.82775391 49.66236328 -9.82775391 49.66236328 -11.24609375 49.63671875 C-14.45257923 50.05970194 -16.35723881 51.18220238 -19 53 C-19.98775611 16.36691175 -19.98775611 16.36691175 -10 5 C-3.88382688 0 -3.88382688 0 0 0 Z " fill="#0E1115" transform="translate(241,55)"/>
<path d="M0 0 C3.43102764 1.6655474 6.07280273 3.83092519 8.4375 6.8125 C9.64355451 11.50271199 9.71556387 15.46664885 7.6875 19.8125 C5.21886433 23.01258327 3.89329386 24.70223538 0 26 C-4.49524404 26.51350166 -7.91294813 26.63805218 -11.875 24.3125 C-15.6682474 20.1845543 -17.7402436 16.97613347 -17.5625 11.1328125 C-16.44140947 6.88201092 -13.18404355 3.88869109 -10 1 C-6.75648754 -0.62175623 -3.50523382 -0.5684163 0 0 Z " fill="#F0EFE4" transform="translate(149,103)"/>
<path d="M0 0 C6.27 0 12.54 0 19 0 C18.67 12.21 18.34 24.42 18 37 C14.02784187 33.82227349 11.68959514 31.5204628 8.8203125 27.5859375 C6.47205691 25.31349214 6.47205691 25.31349214 0 24 C0 16.08 0 8.16 0 0 Z " fill="#120E1C" transform="translate(305,78)"/>
<path d="M0 0 C5.81655834 2.38399755 10.17448545 6.34897089 13 12 C13.83928639 17.62003162 13.47623745 22.00170564 10.4375 26.875 C6.82901366 31.62743539 3.52616825 34.46743087 -2.45703125 35.37109375 C-8.14100025 35.65230961 -11.60794283 34.86919322 -16 31 C-20.843548 25.61828001 -22.4813125 21.64992559 -22.3125 14.46484375 C-21.66632243 9.36811813 -18.59483239 6.39676716 -14.875 3.1875 C-9.98662077 -0.53191898 -6.04446373 -0.78648724 0 0 Z M-17 11 C-18.63791891 14.27583783 -18.67071074 17.47415364 -18 21 C-16.00175093 24.57225448 -13.72447563 28.13776219 -10 30 C-4.5836081 30.55334456 -0.41100691 30.50285843 4 27 C7.42743426 24.0621992 7.94017757 21.72983363 8.3125 17.1875 C8.24803379 12.80379803 6.88627274 10.35431697 4 7 C0.6616309 4.21802575 -2.48286131 3.30413647 -6.8671875 3.4375 C-11.11798908 4.55859053 -14.11130891 7.81595645 -17 11 Z " fill="#30333C" transform="translate(150,99)"/>
<path d="M0 0 C2.52349243 3.12432397 4.27256146 6.38060496 6 10 C11.94 9.505 11.94 9.505 18 9 C18 14.94 18 20.88 18 27 C13.38 27 8.76 27 4 27 C3.67 24.36 3.34 21.72 3 19 C1.02 19.99 1.02 19.99 -1 21 C-1.33 20.34 -1.66 19.68 -2 19 C-2.66386719 19.144375 -3.32773437 19.28875 -4.01171875 19.4375 C-4.89472656 19.623125 -5.77773438 19.80875 -6.6875 20 C-7.55761719 20.185625 -8.42773438 20.37125 -9.32421875 20.5625 C-11.93712964 20.98972047 -14.35813038 21.07616201 -17 21 C-17.33 20.01 -17.66 19.02 -18 18 C-17.67 17.34 -17.34 16.68 -17 16 C-14.85546875 15.3671875 -14.85546875 15.3671875 -12.1875 14.875 C-11.31480469 14.70742187 -10.44210937 14.53984375 -9.54296875 14.3671875 C-7 14 -7 14 -3 14 C-3.33 12.68 -3.66 11.36 -4 10 C-3.01 9.34 -2.02 8.68 -1 8 C-0.42251197 6.03638136 -0.42251197 6.03638136 -0.3125 3.875 C-0.209375 2.59625 -0.10625 1.3175 0 0 Z " fill="#020504" transform="translate(272,113)"/>
<path d="M0 0 C11.22387679 5.23780917 20.10578135 15.75833053 25 27 C25 28.32 25 29.64 25 31 C21.5836981 32.03974406 18.43573988 32.13374875 14.875 32.125 C13.29332031 32.12886719 13.29332031 32.12886719 11.6796875 32.1328125 C9 32 9 32 7 31 C7.04640625 30.13117188 7.0928125 29.26234375 7.140625 28.3671875 C7.52878076 19.3418261 7.52878076 19.3418261 3 12 C2.46375 11.55269531 1.9275 11.10539062 1.375 10.64453125 C-0.46061155 8.44909812 -0.3100444 7.13102121 -0.1875 4.3125 C-0.16042969 3.50425781 -0.13335937 2.69601563 -0.10546875 1.86328125 C-0.07066406 1.24839844 -0.03585938 0.63351563 0 0 Z " fill="#79869A" transform="translate(242,93)"/>
<path d="M0 0 C2.8293157 0.32994599 3.81514855 0.78259525 5.68994141 2.98754883 C10.31314161 10.98155706 10.74322016 17.58113224 10.375 26.6875 C10.34792969 27.97333984 10.32085937 29.25917969 10.29296875 30.58398438 C10.2229209 33.72446302 10.124742 36.8612993 10 40 C6.56269892 40.31248192 4.60963995 40.38472916 1.64941406 38.51660156 C-0.65898276 34.99455384 -0.50011016 31.800921 -0.390625 27.734375 C-0.38496521 26.94097717 -0.37930542 26.14757935 -0.37347412 25.33013916 C-0.35113147 22.80280527 -0.30094176 20.27690335 -0.25 17.75 C-0.22993214 16.03387468 -0.21168187 14.31772708 -0.1953125 12.6015625 C-0.15127395 8.4004922 -0.08226326 4.20048865 0 0 Z " fill="#8575B6" transform="translate(323,80)"/>
<path d="M0 0 C2.75541841 -0.27613568 5.25091102 -0.37257625 8 -0.3125 C9.10601562 -0.31733398 9.10601562 -0.31733398 10.234375 -0.32226562 C15.73292051 -0.26707949 15.73292051 -0.26707949 18 2 C18.265625 5.1875 18.265625 5.1875 18.25 9 C18.25515625 10.258125 18.2603125 11.51625 18.265625 12.8125 C18 16 18 16 16 18 C13.2877875 18.22504349 10.71126815 18.32434995 8 18.3125 C7.26265625 18.32861328 6.5253125 18.34472656 5.765625 18.36132812 C3.625 18.36328125 3.625 18.36328125 0 18 C-2.30821663 14.53767506 -2.27000989 13.08201684 -2.25 9 C-2.25515625 7.948125 -2.2603125 6.89625 -2.265625 5.8125 C-2 3 -2 3 0 0 Z " fill="#000000" transform="translate(306,51)"/>
<path d="M0 0 C1.91015625 1.09765625 1.91015625 1.09765625 4.59765625 3.09765625 C4.25797799 6.26798667 3.59896434 7.09648232 1.16015625 9.28515625 C-3.80040056 12.79384278 -8.42672142 13.00877449 -14.40234375 12.09765625 C-17.18696496 10.46216811 -19.28602693 8.52455881 -21.40234375 6.09765625 C-21.21484375 4.28515625 -21.21484375 4.28515625 -20.40234375 2.09765625 C-14.8258354 -2.34140545 -6.55640509 -2.46264972 0 0 Z " fill="#242731" transform="translate(197.40234375,116.90234375)"/>
<path d="M0 0 C0 4.95 0 9.9 0 15 C-4.95 15 -9.9 15 -15 15 C-15 11.04 -15 7.08 -15 3 C-9.63219812 1.17006754 -5.70752152 0 0 0 Z " fill="#1B7B50" transform="translate(305,124)"/>
<path d="M0 0 C6.27 0 12.54 0 19 0 C19.33 8.91 19.66 17.82 20 27 C23.53419935 22.44084379 23.53419935 22.44084379 27.06005859 17.87524414 C27.50172363 17.30926514 27.94338867 16.74328613 28.3984375 16.16015625 C29.07398682 15.28822632 29.07398682 15.28822632 29.76318359 14.39868164 C31 13 31 13 33 12 C33 17.61 33 23.22 33 29 C23.625 32.125 23.625 32.125 18 31 C18 21.1 18 11.2 18 1 C12.06 1 6.12 1 0 1 C0 0.67 0 0.34 0 0 Z " fill="#2B725C" transform="translate(272,90)"/>
<path d="M0 0 C1.99981266 0.33445541 3.9997581 0.6681213 6 1 C6 1.33 6 1.66 6 2 C-15.78 2 -37.56 2 -60 2 C-43.48270586 -6.25864707 -17.62445469 -3.23232971 0 0 Z " fill="#252834" transform="translate(216,162)"/>
<path d="M0 0 C0 6.93 0 13.86 0 21 C-4 16 -8 11 -12 6 C-8.41906549 -0.34802026 -8.01090552 0 0 0 Z " fill="#F7B351" transform="translate(272,90)"/>
<path d="M0 0 C0.66 0 1.32 0 2 0 C2.10957031 0.92941406 2.21914062 1.85882813 2.33203125 2.81640625 C3.17327566 9.37537688 3.93125007 15.1182293 7 21 C7.391875 21.804375 7.78375 22.60875 8.1875 23.4375 C8.455625 23.953125 8.72375 24.46875 9 25 C2.64445549 23.37416303 -0.14256855 20.15863655 -4.3125 15.3125 C-6.60819661 10.80613258 -6.35292193 6.96051374 -6 2 C-5.67 2 -5.34 2 -5 2 C-5 4.97 -5 7.94 -5 11 C-4.01 11 -3.02 11 -2 11 C-2 8.36 -2 5.72 -2 3 C-1.34 3 -0.68 3 0 3 C0 2.01 0 1.02 0 0 Z " fill="#292B35" transform="translate(221,109)"/>
<path d="M0 0 C2.375 1.125 2.375 1.125 4 3 C4.61833806 6.63273611 4.43339202 8.32390845 2.4375 11.4375 C0 13 0 13 -3.625 12.9375 C-7 12 -7 12 -9 9 C-9.32502803 5.87973093 -9.51151479 3.85252465 -7.875 1.125 C-5.10703881 -0.53577671 -3.16909182 -0.38805206 0 0 Z " fill="#030303" transform="translate(235,110)"/>
<path d="M0 0 C2.375 1.125 2.375 1.125 4 3 C4.61833806 6.63273611 4.43339202 8.32390845 2.4375 11.4375 C0 13 0 13 -3.625 12.9375 C-7 12 -7 12 -9 9 C-9.32502803 5.87973093 -9.51151479 3.85252465 -7.875 1.125 C-5.10703881 -0.53577671 -3.16909182 -0.38805206 0 0 Z " fill="#2B2D36" transform="translate(148,110)"/>
<path d="M0 0 C0.99 0.66 1.98 1.32 3 2 C2.91651691 4.83842501 2.4276272 6.54049314 0.48046875 8.6328125 C-3.47921588 12.08399026 -6.10166497 13.8305058 -11.5 14.3125 C-15 14 -15 14 -16.9375 12 C-17.288125 11.34 -17.63875 10.68 -18 10 C-17.67 9.34 -17.34 8.68 -17 8 C-15.205625 8.0928125 -15.205625 8.0928125 -13.375 8.1875 C-9.21882059 8.17278786 -6.50532188 7.36405429 -3 5 C-1.11868431 2.45211147 -1.11868431 2.45211147 0 0 Z " fill="#030304" transform="translate(245,120)"/>
<path d="M0 0 C0.61875 0.33 1.2375 0.66 1.875 1 C1.875 2.98 1.875 4.96 1.875 7 C1.32714844 6.67644531 0.77929688 6.35289063 0.21484375 6.01953125 C-4.03220818 4.16897941 -8.58059727 4.53614824 -13.125 5 C-16.21496833 6.29262369 -16.21496833 6.29262369 -18.125 8 C-18.4375 5.1875 -18.4375 5.1875 -18.125 2 C-13.48411149 -2.64088851 -5.83456689 -1.8670614 0 0 Z " fill="#030304" transform="translate(240.125,100)"/>
<path d="M0 0 C0.33 0 0.66 0 1 0 C1 7.26 1 14.52 1 22 C2.32 22.33 3.64 22.66 5 23 C5 24.32 5 25.64 5 27 C-2.92 27 -10.84 27 -19 27 C-18.505 25.515 -18.505 25.515 -18 24 C-12.06 24 -6.12 24 0 24 C0 16.08 0 8.16 0 0 Z " fill="#183730" transform="translate(323,116)"/>
<path d="M0 0 C1.0621875 0.13277344 2.124375 0.26554688 3.21875 0.40234375 C4.24742187 0.53092773 4.24742187 0.53092773 5.296875 0.66210938 C11.71875 1.46484375 11.71875 1.46484375 13.84375 1.73779297 C15.32071677 1.91739694 16.80022678 2.07690536 18.28125 2.21923828 C20.19533725 2.41363777 22.09969477 2.69939862 24 3 C24.33 3.66 24.66 4.32 25 5 C17.08 5 9.16 5 1 5 C0.67 3.35 0.34 1.7 0 0 Z " fill="#1C764F" transform="translate(290,159)"/>
<path d="M0 0 C6.50845547 5.09357384 6.50845547 5.09357384 8 9 C8.265625 11.5078125 8.265625 11.5078125 8.25 14.125 C8.25515625 14.99382812 8.2603125 15.86265625 8.265625 16.7578125 C8 19 8 19 6 21 C3.61913523 18.61913523 3.74258325 17.93445561 3.5625 14.6875 C3.21608238 10.67803684 2.17718193 8.40776302 0 5 C-0.1875 2.1875 -0.1875 2.1875 0 0 Z " fill="#22252F" transform="translate(242,102)"/>
<path d="M0 0 C4 2 4 2 6 5 C5.75381146 9.51345648 5.26130327 12.73869673 2 16 C1.34 16 0.68 16 0 16 C0 10.72 0 5.44 0 0 Z " fill="#261906" transform="translate(272,91)"/>
<path d="M0 0 C0 1.65 0 3.3 0 5 C-9.41002278 7.29612756 -9.41002278 7.29612756 -14 7 C-14 5.68 -14 4.36 -14 3 C-12.4188708 2.49307308 -10.83498617 1.99473557 -9.25 1.5 C-7.92742187 1.08234375 -7.92742187 1.08234375 -6.578125 0.65625 C-4 0 -4 0 0 0 Z " fill="#1E292E" transform="translate(305,119)"/>
<path d="M0 0 C1.43836751 0.11458693 2.87570966 0.24209116 4.3125 0.375 C5.51326172 0.47941406 5.51326172 0.47941406 6.73828125 0.5859375 C9 1 9 1 12 3 C12 4.32 12 5.64 12 7 C10.3745692 6.85904936 8.74965949 6.71207913 7.125 6.5625 C6.22007813 6.48128906 5.31515625 6.40007812 4.3828125 6.31640625 C2 6 2 6 0 5 C0 3.35 0 1.7 0 0 Z " fill="#323743" transform="translate(111,127)"/>
<path d="M0 0 C0.33 1.98 0.66 3.96 1 6 C0.34 6 -0.32 6 -1 6 C-1 6.99 -1 7.98 -1 9 C-1.66 9 -2.32 9 -3 9 C-3 11.64 -3 14.28 -3 17 C-3.99 17 -4.98 17 -6 17 C-6.86107387 6.24614413 -6.86107387 6.24614413 -3.5625 2.3125 C-1 0 -1 0 0 0 Z " fill="#2C2F38" transform="translate(222,103)"/>
<path d="M0 0 C0.33 0.66 0.66 1.32 1 2 C5.62 1.67 10.24 1.34 15 1 C15.33 2.32 15.66 3.64 16 5 C14.18884044 6.81115956 11.38721773 6.38199448 8.9375 6.5625 C7.83277344 6.64628906 6.72804688 6.73007813 5.58984375 6.81640625 C4.30787109 6.90728516 4.30787109 6.90728516 3 7 C4.32 6.67 5.64 6.34 7 6 C6.67 5.34 6.34 4.68 6 4 C4.02 4 2.04 4 0 4 C0 2.68 0 1.36 0 0 Z " fill="#313642" transform="translate(99,150)"/>
<path d="M0 0 C0.66 0 1.32 0 2 0 C2.13277344 0.96421875 2.26554688 1.9284375 2.40234375 2.921875 C2.57894531 4.18515625 2.75554687 5.4484375 2.9375 6.75 C3.19853516 8.62945312 3.19853516 8.62945312 3.46484375 10.546875 C3.86049338 13.09982593 4.30446422 15.5186291 5 18 C1.53908013 16.84636004 0.81707727 16.08368701 -1 13 C-1.328125 10.52734375 -1.328125 10.52734375 -1.25 7.9375 C-1.23453125 7.08027344 -1.2190625 6.22304687 -1.203125 5.33984375 C-1 3 -1 3 0 0 Z " fill="#D7D7CC" transform="translate(221,109)"/>
<path d="M0 0 C0.39397781 3.44730584 0.1644697 4.75613114 -1.8125 7.6875 C-4.35960095 10.38014957 -5.90388827 11.94901806 -9.6875 12.125 C-10.8321875 12.063125 -10.8321875 12.063125 -12 12 C-10.74381926 8.23145777 -9.33985294 7.92041544 -6 6 C-5.67 5.34 -5.34 4.68 -5 4 C-4.34 4 -3.68 4 -3 4 C-3 3.01 -3 2.02 -3 1 C-1 0 -1 0 0 0 Z " fill="#1F222C" transform="translate(161,120)"/>
<path d="M0 0 C0.33 1.32 0.66 2.64 1 4 C0.113125 3.95875 -0.77375 3.9175 -1.6875 3.875 C-4.951666 3.80582769 -4.951666 3.80582769 -7.5625 5.0625 C-10.47578317 6.18299353 -12.04504207 5.84427369 -15 5 C-14.67 3.68 -14.34 2.36 -14 1 C-9.71 1.33 -5.42 1.66 -1 2 C-0.67 1.34 -0.34 0.68 0 0 Z " fill="#303440" transform="translate(278,150)"/>
<path d="M0 0 C3.63 0.33 7.26 0.66 11 1 C10.67 1.99 10.34 2.98 10 4 C6.7 3.67 3.4 3.34 0 3 C0 2.01 0 1.02 0 0 Z " fill="#1A1C26" transform="translate(138,129)"/>
<path d="M0 0 C0.33 0 0.66 0 1 0 C1 2.97 1 5.94 1 9 C1.99 9 2.98 9 4 9 C4 6.36 4 3.72 4 1 C4.33 1 4.66 1 5 1 C5.4726477 9.19256018 5.4726477 9.19256018 3.5 12.5625 C3.005 13.036875 2.51 13.51125 2 14 C0.09391902 10.78817851 -0.22266247 8.46117397 -0.125 4.75 C-0.09792969 3.41195312 -0.09792969 3.41195312 -0.0703125 2.046875 C-0.04710937 1.37140625 -0.02390625 0.6959375 0 0 Z " fill="#444851" transform="translate(215,111)"/>
<path d="M0 0 C0.99 0 1.98 0 3 0 C2.67 3.3 2.34 6.6 2 10 C1.01 10 0.02 10 -1 10 C-1.125 3.375 -1.125 3.375 0 0 Z " fill="#191B25" transform="translate(217,110)"/>
<path d="M0 0 C0.66 0 1.32 0 2 0 C2.33 1.65 2.66 3.3 3 5 C0.03 5 -2.94 5 -6 5 C-5.195625 4.360625 -4.39125 3.72125 -3.5625 3.0625 C-1.7249496 1.59396498 -1.7249496 1.59396498 0 0 Z " fill="#727F92" transform="translate(271,134)"/>
<path d="M0 0 C2.00720923 0.28674418 4.0085944 0.61866701 6 1 C6 2.32 6 3.64 6 5 C3.03 4.505 3.03 4.505 0 4 C-0.33 3.01 -0.66 2.02 -1 1 C-0.67 0.67 -0.34 0.34 0 0 Z " fill="#252833" transform="translate(117,129)"/>
<path d="M0 0 C2.29013653 3.4352048 2.17842973 4.985331 2 9 C1.01 9.33 0.02 9.66 -1 10 C-1.02689216 8.52093108 -1.04634621 7.04172517 -1.0625 5.5625 C-1.07410156 4.73878906 -1.08570313 3.91507812 -1.09765625 3.06640625 C-1 1 -1 1 0 0 Z " fill="#191B25" transform="translate(160,110)"/>
<path d="M0 0 C0.66 0 1.32 0 2 0 C3.4783226 2.95664519 3.06032783 5.74229737 3 9 C1.5 7.875 1.5 7.875 0 6 C-0.1875 2.8125 -0.1875 2.8125 0 0 Z " fill="#B6B6B1" transform="translate(243,110)"/>
<path d="M0 0 C0.99 0.33 1.98 0.66 3 1 C4.1875 4.5625 4.1875 4.5625 5 8 C2 7 2 7 0 4 C0 2.68 0 1.36 0 0 Z " fill="#E8E7DD" transform="translate(221,119)"/>
<path d="M0 0 C0.91007812 0.10183594 1.82015625 0.20367187 2.7578125 0.30859375 C3.45648438 0.39238281 4.15515625 0.47617188 4.875 0.5625 C4.875 0.8925 4.875 1.2225 4.875 1.5625 C-0.075 1.8925 -5.025 2.2225 -10.125 2.5625 C-6.08912363 -0.12808425 -4.75060299 -0.5481465 0 0 Z " fill="#434B58" transform="translate(269.125,138.4375)"/>
</svg>
