<?xml version="1.0" encoding="UTF-8"?>
<svg version="1.1" xmlns="http://www.w3.org/2000/svg" width="512" height="512">
<path d="M0 0 C1.51050759 -0.00785502 1.51050759 -0.00785502 3.05153048 -0.01586872 C6.40651568 -0.03080123 9.76134745 -0.0315724 13.11636353 -0.03224182 C15.53018448 -0.03986808 17.94400301 -0.04829638 20.3578186 -0.0574646 C26.90380986 -0.07937621 33.44976507 -0.08822721 39.99578428 -0.09329104 C44.09243592 -0.09655861 48.18907827 -0.1030876 52.28572464 -0.11029243 C63.65408969 -0.12985119 75.02244613 -0.14625857 86.39082909 -0.14916897 C87.11720091 -0.14935654 87.84357273 -0.14954411 88.59195582 -0.14973736 C90.06416488 -0.15010359 91.53637394 -0.15046728 93.00858299 -0.15082847 C93.73927752 -0.15101128 94.46997205 -0.1511941 95.22280884 -0.15138245 C95.95440789 -0.151563 96.68600694 -0.15174354 97.43977566 -0.15192956 C109.27312618 -0.15546518 121.10629405 -0.18245236 132.93958132 -0.21988034 C145.12263137 -0.25810229 157.30559115 -0.27732747 169.48870242 -0.27762848 C176.31527674 -0.27821008 183.14163335 -0.28650788 189.96815109 -0.31562614 C196.39842036 -0.34195805 202.82826123 -0.34392772 209.25856018 -0.3279705 C211.60493027 -0.32616775 213.95132586 -0.33273917 216.29764175 -0.34878922 C246.34458457 -0.54161954 274.54447346 8.44564527 297.63052368 28.27415466 C298.31243774 28.83618591 298.99435181 29.39821716 299.69692993 29.97727966 C304.50591986 34.02887649 308.62914813 38.43266346 312.63052368 43.27415466 C313.34982056 44.1288031 314.06911743 44.98345154 314.81021118 45.86399841 C320.65349022 52.9445554 320.65349022 52.9445554 321.63052368 57.27415466 C322.29052368 57.60415466 322.95052368 57.93415466 323.63052368 58.27415466 C329.18766238 66.74031198 332.83178913 75.96726522 336.06802368 85.52415466 C336.40978638 86.51681335 336.75154907 87.50947205 337.10366821 88.5322113 C337.57909058 89.99002014 337.57909058 89.99002014 338.06411743 91.47727966 C338.48261963 92.75586853 338.48261963 92.75586853 338.90957642 94.06028748 C340.71969995 102.12952765 340.7793775 110.47638838 340.7776947 118.71450806 C340.78137139 119.7049209 340.78504808 120.69533374 340.78883618 121.7157591 C340.799764 125.00240097 340.80369807 128.28901111 340.80752563 131.57566833 C340.81379837 133.94538979 340.82044587 136.31511027 340.82743835 138.68482971 C340.84657192 145.76825277 340.85724978 152.85167219 340.86616614 159.93511459 C340.86968254 162.6096165 340.87382815 165.28411725 340.87800581 167.95861819 C340.89645574 179.77187541 340.91220439 191.58513269 340.91990376 203.39840221 C340.92181319 206.28089588 340.9237336 209.16338954 340.9256897 212.04588318 C340.92617344 212.76218508 340.92665718 213.47848699 340.92715558 214.21649501 C340.9354531 225.81568431 340.96079343 237.41477041 340.99327037 249.01391467 C341.0264328 260.95631325 341.04436047 272.8986595 341.047548 284.84110433 C341.0497038 291.53283573 341.05876729 298.22439324 341.08400917 304.91608238 C341.10738536 311.21417036 341.11148471 317.51198797 341.10124779 323.81010818 C341.1007547 326.11097555 341.10700746 328.41185667 341.12080383 330.71268272 C341.19345172 343.55474665 340.59421813 354.99177739 336.63052368 367.27415466 C336.43123438 367.90344293 336.23194507 368.5327312 336.02661669 369.18108881 C333.48692247 377.17699115 330.20650311 384.3608518 326.08364868 391.62962341 C324.53574813 394.25895809 324.53574813 394.25895809 323.63052368 397.27415466 C322.97052368 397.27415466 322.31052368 397.27415466 321.63052368 397.27415466 C321.36884399 398.00634216 321.10716431 398.73852966 320.83755493 399.49290466 C317.98885946 406.05688906 312.70092008 411.34079601 307.63052368 416.27415466 C307.03239868 417.05790466 306.43427368 417.84165466 305.81802368 418.64915466 C289.71446717 437.97342247 261.95917413 450.08764202 237.63052368 454.27415466 C234.17126606 454.54400159 230.72965331 454.55735789 227.26104736 454.54830933 C226.2540423 454.553546 225.24703725 454.55878268 224.20951688 454.56417805 C220.85453168 454.57911055 217.49969991 454.57988173 214.14468384 454.58055115 C211.73086288 454.58817741 209.31704435 454.5966057 206.90322876 454.60577393 C200.3572375 454.62768554 193.81128229 454.63653653 187.26526308 454.64160037 C183.16861144 454.64486794 179.07196909 454.65139692 174.97532272 454.65860176 C163.60695768 454.67816051 152.23860123 454.6945679 140.87021828 454.69747829 C140.14384646 454.69766586 139.41747463 454.69785343 138.66909155 454.69804669 C137.19688249 454.69841291 135.72467343 454.69877661 134.25246437 454.6991378 C133.52176984 454.69932061 132.79107531 454.69950342 132.03823853 454.69969177 C131.30663947 454.69987232 130.57504042 454.70005287 129.8212717 454.70023889 C117.98792118 454.70377451 106.15475332 454.73076169 94.32146604 454.76818966 C82.13841599 454.80641162 69.95545621 454.8256368 57.77234495 454.82593781 C50.94577062 454.82651941 44.11941401 454.83481721 37.29289627 454.86393547 C30.86262701 454.89026738 24.43278613 454.89223705 18.00248718 454.87627983 C15.65611709 454.87447707 13.3097215 454.8810485 10.96340561 454.89709854 C-19.0835372 455.08992886 -47.2834261 446.10266405 -70.36947632 426.27415466 C-71.05139038 425.71212341 -71.73330444 425.15009216 -72.43588257 424.57102966 C-77.2448725 420.51943283 -81.36810076 416.11564586 -85.36947632 411.27415466 C-86.08877319 410.41950623 -86.80807007 409.56485779 -87.54916382 408.68431091 C-93.39244286 401.60375393 -93.39244286 401.60375393 -94.36947632 397.27415466 C-95.02947632 396.94415466 -95.68947632 396.61415466 -96.36947632 396.27415466 C-101.92661502 387.80799735 -105.57074177 378.58104411 -108.80697632 369.02415466 C-109.14873901 368.03149597 -109.49050171 367.03883728 -109.84262085 366.01609802 C-110.31804321 364.55828918 -110.31804321 364.55828918 -110.80307007 363.07102966 C-111.08207153 362.21863708 -111.361073 361.36624451 -111.64852905 360.48802185 C-113.45865259 352.41878168 -113.51833014 344.07192095 -113.51664734 335.83380127 C-113.52032403 334.84338843 -113.52400072 333.85297558 -113.52778882 332.83255023 C-113.53871664 329.54590836 -113.54265071 326.25929821 -113.54647827 322.97264099 C-113.55275101 320.60291954 -113.55939851 318.23319905 -113.56639099 315.86347961 C-113.58552456 308.78005656 -113.59620241 301.69663714 -113.60511878 294.61319473 C-113.60863518 291.93869283 -113.61278079 289.26419208 -113.61695844 286.58969114 C-113.63540838 274.77643391 -113.65115703 262.96317664 -113.65885639 251.14990711 C-113.66076583 248.26741344 -113.66268624 245.38491978 -113.66464233 242.50242615 C-113.66512607 241.78612424 -113.66560981 241.06982234 -113.66610821 240.33181431 C-113.67440574 228.73262502 -113.69974607 217.13353892 -113.73222301 205.53439466 C-113.76538543 193.59199608 -113.78331311 181.64964983 -113.78650063 169.707205 C-113.78865644 163.01547359 -113.79771993 156.32391609 -113.82296181 149.63222694 C-113.846338 143.33413896 -113.85043735 137.03632136 -113.84020042 130.73820114 C-113.83970734 128.43733378 -113.8459601 126.13645265 -113.85975647 123.8356266 C-113.93240436 110.99356268 -113.33317076 99.55653194 -109.36947632 87.27415466 C-109.17018701 86.6448664 -108.97089771 86.01557813 -108.76556933 85.36722052 C-106.22587511 77.37131818 -102.94545575 70.18745753 -98.82260132 62.91868591 C-97.27470076 60.28935124 -97.27470076 60.28935124 -96.36947632 57.27415466 C-95.70947632 57.27415466 -95.04947632 57.27415466 -94.36947632 57.27415466 C-94.10779663 56.54196716 -93.84611694 55.80977966 -93.57650757 55.05540466 C-90.72723821 48.49009793 -85.43899907 43.21026892 -80.36947632 38.27415466 C-79.31760132 36.91290466 -79.31760132 36.91290466 -78.24447632 35.52415466 C-71.04457189 26.80377352 -61.0179443 20.88650609 -51.36947632 15.27415466 C-50.53416382 14.75079529 -49.69885132 14.22743591 -48.83822632 13.68821716 C-34.58578521 5.16381409 -16.58212081 -0.04325784 0 0 Z " fill="#1C8054" transform="translate(142.36947631835938,28.725845336914063)"/>
<path d="M0 0 C1.51050759 -0.00785502 1.51050759 -0.00785502 3.05153048 -0.01586872 C6.40651568 -0.03080123 9.76134745 -0.0315724 13.11636353 -0.03224182 C15.53018448 -0.03986808 17.94400301 -0.04829638 20.3578186 -0.0574646 C26.90380986 -0.07937621 33.44976507 -0.08822721 39.99578428 -0.09329104 C44.09243592 -0.09655861 48.18907827 -0.1030876 52.28572464 -0.11029243 C63.65408969 -0.12985119 75.02244613 -0.14625857 86.39082909 -0.14916897 C87.11720091 -0.14935654 87.84357273 -0.14954411 88.59195582 -0.14973736 C90.06416488 -0.15010359 91.53637394 -0.15046728 93.00858299 -0.15082847 C93.73927752 -0.15101128 94.46997205 -0.1511941 95.22280884 -0.15138245 C95.95440789 -0.151563 96.68600694 -0.15174354 97.43977566 -0.15192956 C109.27312618 -0.15546518 121.10629405 -0.18245236 132.93958132 -0.21988034 C145.12263137 -0.25810229 157.30559115 -0.27732747 169.48870242 -0.27762848 C176.31527674 -0.27821008 183.14163335 -0.28650788 189.96815109 -0.31562614 C196.39842036 -0.34195805 202.82826123 -0.34392772 209.25856018 -0.3279705 C211.60493027 -0.32616775 213.95132586 -0.33273917 216.29764175 -0.34878922 C246.34458457 -0.54161954 274.54447346 8.44564527 297.63052368 28.27415466 C298.31243774 28.83618591 298.99435181 29.39821716 299.69692993 29.97727966 C304.50591986 34.02887649 308.62914813 38.43266346 312.63052368 43.27415466 C313.34982056 44.1288031 314.06911743 44.98345154 314.81021118 45.86399841 C320.65349022 52.9445554 320.65349022 52.9445554 321.63052368 57.27415466 C322.29052368 57.60415466 322.95052368 57.93415466 323.63052368 58.27415466 C329.18766238 66.74031198 332.83178913 75.96726522 336.06802368 85.52415466 C336.40978638 86.51681335 336.75154907 87.50947205 337.10366821 88.5322113 C337.57909058 89.99002014 337.57909058 89.99002014 338.06411743 91.47727966 C338.48261963 92.75586853 338.48261963 92.75586853 338.90957642 94.06028748 C340.87578889 102.82534708 340.77298854 111.87445039 340.74404907 120.81394958 C340.7441951 122.01524506 340.74434113 123.21654053 340.74449158 124.45423889 C340.74391897 127.71176573 340.73894329 130.96924823 340.73191762 134.22676635 C340.72561781 137.64468549 340.72507508 141.06260573 340.72389221 144.48052979 C340.72079828 150.93650252 340.7126113 157.39245809 340.70254272 163.8484233 C340.69132103 171.20524703 340.68585595 178.56207163 340.68084729 185.9189018 C340.67042684 201.03732894 340.65286535 216.15574008 340.63052368 231.27415466 C336.33458755 231.50884978 332.04031976 231.64935944 327.73989868 231.77415466 C326.53381958 231.84118591 325.32774048 231.90821716 324.08511353 231.97727966 C316.08284035 232.15112402 311.77647531 230.95090813 305.88809204 225.44602966 C302.58657396 221.87430343 299.58932227 218.13007182 296.63052368 214.27415466 C292.07630967 208.81421494 287.20432771 203.74923644 282.13052368 198.77415466 C277.69796751 194.38900551 273.38724067 189.99603563 269.36489868 185.22727966 C266.61056988 182.12555804 263.62797967 179.25149708 260.67642212 176.33958435 C257.45707131 173.14678489 254.46095046 169.84146231 251.52896118 166.38743591 C248.16550456 162.64334119 244.50708832 159.18762105 240.88833618 155.69212341 C238.63052368 153.27415466 238.63052368 153.27415466 237.63052368 150.27415466 C241.92052368 149.94415466 246.21052368 149.61415466 250.63052368 149.27415466 C250.63052368 148.28415466 250.63052368 147.29415466 250.63052368 146.27415466 C250.06655884 146.27004578 249.50259399 146.26593689 248.92153931 146.26170349 C246.32352665 146.22845701 243.72776445 146.15778696 241.13052368 146.08665466 C240.24364868 146.08085388 239.35677368 146.0750531 238.44302368 146.06907654 C232.6870686 145.87862214 229.05537294 144.88150892 224.40200806 141.43699646 C220.35787149 138.78233515 215.57764794 138.98247185 210.88052368 138.71165466 C209.83444946 138.64687927 209.83444946 138.64687927 208.76724243 138.58079529 C207.05520446 138.4752587 205.34288807 138.37425557 203.63052368 138.27415466 C203.63052368 137.61415466 203.63052368 136.95415466 203.63052368 136.27415466 C206.39969355 135.51751698 209.17026362 134.76746289 211.94302368 134.02415466 C212.78719849 133.7974408 213.63137329 133.57072693 214.50112915 133.33714294 C221.52733878 131.48608938 228.59475851 129.97607197 235.74893188 128.70677185 C237.73064152 128.3265736 239.68574251 127.81225316 241.63052368 127.27415466 C241.96052368 126.28415466 242.29052368 125.29415466 242.63052368 124.27415466 C241.57139771 124.48620544 240.51227173 124.69825623 239.42105103 124.91673279 C235.47491964 125.70522248 231.52732471 126.4861607 227.57925415 127.26487732 C225.87377004 127.60235027 224.16868447 127.94184406 222.46401978 128.28343201 C220.00753231 128.77530311 217.54968268 129.25978418 215.09146118 129.74290466 C214.33497284 129.89602112 213.5784845 130.04913757 212.79907227 130.20689392 C208.67634754 131.00903921 204.85492425 131.43775524 200.63052368 131.27415466 C200.13423462 130.22356873 199.63794556 129.17298279 199.12661743 128.09056091 C192.97385588 115.28946222 186.17758397 105.1793966 174.54849243 96.69212341 C172.97039209 95.52542194 171.4478221 94.2839859 169.94302368 93.02415466 C167.58048032 91.23628401 165.42207623 90.2312584 162.63052368 89.27415466 C163.41196721 85.04292383 165.57188354 82.30966922 168.06021118 78.88352966 C172.14992795 72.08768189 173.12952348 66.01665378 173.00552368 58.14915466 C172.99682251 57.23061707 172.98812134 56.31207947 172.97915649 55.3657074 C172.77276644 45.69667171 172.32939003 34.83739086 165.63052368 27.27415466 C162.41562251 25.66670408 160.20041658 25.87110224 156.63052368 26.27415466 C145.60215157 32.13432886 138.39366566 43.89931908 133.43521118 54.93431091 C132.25640844 59.82691453 132.4608744 64.57661406 132.56802368 69.58665466 C132.60228475 71.58267904 132.63246423 73.57877915 132.65786743 75.57493591 C132.67583374 76.45319031 132.69380005 77.3314447 132.71231079 78.23631287 C132.63052368 80.27415466 132.63052368 80.27415466 131.63052368 81.27415466 C128.96426338 81.36270627 126.32405254 81.3894014 123.65786743 81.37181091 C122.86022476 81.37039597 122.06258209 81.36898102 121.24076843 81.36752319 C118.68314933 81.36190783 116.1256165 81.34935278 113.56802368 81.33665466 C111.83820723 81.33164164 110.10838942 81.32707839 108.37857056 81.32298279 C104.12918815 81.31193341 99.87987056 81.29465853 95.63052368 81.27415466 C94.7425038 78.10283167 94.73685932 76.4409653 95.63052368 73.27415466 C97.04471316 59.17862674 91.22064439 47.08756068 82.63052368 36.27415466 C77.27892334 30.67815053 72.61131156 26.19015548 64.66567993 25.71556091 C61.45045206 26.59805148 60.43159988 28.54830229 58.63052368 31.27415466 C52.96758892 44.17306161 52.64875934 60.2345886 56.56802368 73.68821716 C58.03574455 77.26039075 59.99168967 80.27090999 62.32583618 83.33665466 C63.67350422 85.33798205 64.19919873 86.9176476 64.63052368 89.27415466 C63.94087524 89.62606873 63.25122681 89.97798279 62.54067993 90.34056091 C44.28811808 99.93004128 35.05815833 112.93580999 26.63052368 131.27415466 C19.65253365 131.67318928 13.07625365 130.19258291 6.25552368 128.83665466 C5.05540649 128.60655701 3.85528931 128.37645935 2.61880493 128.13938904 C-6.23362349 126.4100075 -6.23362349 126.4100075 -7.36947632 125.27415466 C-8.71694716 125.04340384 -10.07325197 124.86262404 -11.43197632 124.71165466 C-12.73135132 124.56727966 -14.03072632 124.42290466 -15.36947632 124.27415466 C-15.03947632 125.26415466 -14.70947632 126.25415466 -14.36947632 127.27415466 C-11.85686022 128.22804531 -11.85686022 128.22804531 -8.75228882 128.80931091 C-7.58697632 129.06132263 -6.42166382 129.31333435 -5.22103882 129.57298279 C-3.99127319 129.82499451 -2.76150757 130.07700623 -1.49447632 130.33665466 C-0.30338257 130.59253357 0.88771118 130.84841248 2.11489868 131.11204529 C9.26340971 132.63325469 16.43155816 134.01419764 23.63052368 135.27415466 C23.63052368 136.92415466 23.63052368 138.57415466 23.63052368 140.27415466 C22.97052368 140.27415466 22.31052368 140.27415466 21.63052368 140.27415466 C21.30052368 142.25415466 20.97052368 144.23415466 20.63052368 146.27415466 C6.11052368 146.27415466 -8.40947632 146.27415466 -23.36947632 146.27415466 C-23.36947632 147.26415466 -23.36947632 148.25415466 -23.36947632 149.27415466 C-9.50947632 149.60415466 4.35052368 149.93415466 18.63052368 150.27415466 C16.63052368 160.27415466 16.63052368 160.27415466 14.45108032 161.82078552 C13.52029663 161.97039734 12.58951294 162.12000916 11.63052368 162.27415466 C9.97234619 162.60588684 9.97234619 162.60588684 8.28067017 162.94432068 C7.03358276 163.13695496 5.78649536 163.32958923 4.50161743 163.52806091 C3.83010147 163.63383957 3.15858551 163.73961823 2.46672058 163.84860229 C0.33464479 164.18351064 -1.79855208 164.51045701 -3.93197632 164.83665466 C-6.06872045 165.1678488 -8.20518589 165.50072666 -10.34138489 165.8354187 C-12.27676222 166.13795721 -14.21287279 166.43579407 -16.14901733 166.73338318 C-18.60691441 167.14610716 -20.96987212 167.61399172 -23.36947632 168.27415466 C-23.36947632 168.93415466 -23.36947632 169.59415466 -23.36947632 170.27415466 C-11.01861803 169.07355417 1.31230165 167.7740418 13.63052368 166.27415466 C13.15905421 170.47023294 12.65475115 172.80593141 9.63052368 175.77415466 C-1.78522849 188.1003656 -9.39494792 204.04846772 -14.57113647 219.85569763 C-20.28305937 237.1119816 -20.28305937 237.1119816 -28.27182007 242.24681091 C-32.30092287 244.8837647 -35.59124593 248.07351003 -39.05697632 251.39915466 C-40.35123514 252.62190128 -41.64676319 253.84330615 -42.94369507 255.06321716 C-43.54359253 255.6281488 -44.14348999 256.19308044 -44.76156616 256.77513123 C-46.59524388 258.48463338 -48.46728504 260.14133688 -50.36947632 261.77415466 C-54.30905884 265.16081332 -58.08073529 268.72105933 -61.86947632 272.27415466 C-67.59022788 277.63630867 -73.35920127 282.90740711 -79.36557007 287.94993591 C-80.00623413 288.4900531 -80.64689819 289.03017029 -81.30697632 289.58665466 C-82.15582397 290.29241638 -82.15582397 290.29241638 -83.02182007 291.01243591 C-84.50393016 292.25365939 -84.50393016 292.25365939 -85.36947632 294.27415466 C-94.60947632 294.27415466 -103.84947632 294.27415466 -113.36947632 294.27415466 C-113.46227081 269.64721115 -113.53355623 245.02031009 -113.57672501 220.39322662 C-113.59730625 208.95715362 -113.62534163 197.52119158 -113.67123413 186.08518982 C-113.71123815 176.11174742 -113.73694134 166.13838543 -113.7458303 156.16486502 C-113.75102214 150.88922762 -113.76313147 145.61382017 -113.79239655 140.33825684 C-113.81978045 135.36093766 -113.82787542 130.38394062 -113.82190704 125.40655327 C-113.82299709 123.59106628 -113.8308129 121.77556722 -113.84629822 119.96014595 C-114.01224885 99.48034125 -108.95927469 80.79008179 -98.82260132 62.91868591 C-97.27470076 60.28935124 -97.27470076 60.28935124 -96.36947632 57.27415466 C-95.70947632 57.27415466 -95.04947632 57.27415466 -94.36947632 57.27415466 C-94.10779663 56.54196716 -93.84611694 55.80977966 -93.57650757 55.05540466 C-90.72723821 48.49009793 -85.43899907 43.21026892 -80.36947632 38.27415466 C-79.31760132 36.91290466 -79.31760132 36.91290466 -78.24447632 35.52415466 C-71.04457189 26.80377352 -61.0179443 20.88650609 -51.36947632 15.27415466 C-50.53416382 14.75079529 -49.69885132 14.22743591 -48.83822632 13.68821716 C-34.58578521 5.16381409 -16.58212081 -0.04325784 0 0 Z " fill="#B4A1EA" transform="translate(142.36947631835938,28.725845336914063)"/>
<path d="M0 0 C1.07121094 0.74443359 1.07121094 0.74443359 2.1640625 1.50390625 C12.71850368 9.24258662 21.6614918 18.53106561 28 30 C28.58265625 30.95261719 29.1653125 31.90523437 29.765625 32.88671875 C43.16879616 56.5753669 44.84771085 88.01381522 38 114 C37.54753906 115.84078125 37.54753906 115.84078125 37.0859375 117.71875 C35.17557368 124.98745137 32.73682045 131.48554297 29 138 C28.43539062 139.00546875 27.87078125 140.0109375 27.2890625 141.046875 C13.43426072 164.68486335 -8.61593956 183.78547772 -35.45361328 190.85424805 C-38.62383126 191.63707682 -41.80057436 192.3467693 -45 193 C-45.91136719 193.19207031 -46.82273437 193.38414062 -47.76171875 193.58203125 C-75.40303505 197.14972829 -100.27807334 190.37882313 -122.75390625 173.9921875 C-145.30912026 156.43011247 -159.07803251 132.62165887 -164.4375 104.625 C-167.93855237 74.86605489 -163.87364522 44.11626687 -145.25 19.9375 C-144.17127342 18.62121116 -143.08866261 17.30808298 -142 16 C-141.360625 15.13375 -140.72125 14.2675 -140.0625 13.375 C-124.58607426 -4.44633873 -99.60972402 -15.226993 -76.36572266 -16.87109375 C-49.84591723 -18.31613578 -22.28423022 -16.09416627 0 0 Z " fill="#FCF4A9" transform="translate(318,217)"/>
<path d="M0 0 C6.18789929 1.1250726 10.22455967 5.7243364 13.96875 10.5234375 C20.88847149 20.75641546 23.3871636 30.98005912 21.3125 43.125 C20.92913052 47.87878154 21.79878668 49.85155951 24 54 C25.5696989 55.5696989 27.12440178 55.13499102 29.30444336 55.14526367 C30.21886703 55.15164352 31.13329071 55.15802338 32.07542419 55.16459656 C33.56756187 55.16626579 33.56756187 55.16626579 35.08984375 55.16796875 C36.61213341 55.17296135 36.61213341 55.17296135 38.16517639 55.17805481 C40.3164118 55.1831285 42.4676551 55.185463 44.61889648 55.18530273 C47.91989036 55.18748834 51.22054975 55.20563707 54.52148438 55.22460938 C56.60676968 55.22754331 58.69205659 55.2295281 60.77734375 55.23046875 C61.77007797 55.23765427 62.76281219 55.24483978 63.78562927 55.25224304 C65.16199303 55.2476281 65.16199303 55.2476281 66.56616211 55.24291992 C67.37588974 55.24434494 68.18561737 55.24576996 69.0198822 55.24723816 C71.23260118 55.17676493 71.23260118 55.17676493 73 53 C75.12645247 48.1875023 74.85235464 45.11412785 74 40 C72.83449613 28.00590559 76.59068521 17.77102602 83.9765625 8.39453125 C84.64429688 7.60433594 85.31203125 6.81414062 86 6 C86.84691406 4.98486328 86.84691406 4.98486328 87.7109375 3.94921875 C89.25 2.25 89.25 2.25 92 0 C94.06640625 0.19921875 94.06640625 0.19921875 96 1 C101.68617793 9.63456648 101.19900101 23.19390602 99.46875 33.015625 C97.76550387 39.199149 95.44197456 43.37201696 90 47 C88.90493508 50.28519475 88.90039392 52.73663415 88.9375 56.1875 C88.94652344 57.27417969 88.95554687 58.36085937 88.96484375 59.48046875 C88.97644531 60.31191406 88.98804688 61.14335938 89 62 C89.59425781 62.12375 90.18851563 62.2475 90.80078125 62.375 C98.49480038 64.28953042 103.92637966 67.99653842 110 73 C110.63808594 73.51175781 111.27617187 74.02351563 111.93359375 74.55078125 C116.13641824 78.3071163 118.9651313 82.85008123 121.875 87.625 C122.26896973 88.27090088 122.66293945 88.91680176 123.06884766 89.58227539 C125.07206844 92.99831717 126.65952089 96.01787474 127 100 C125.18701995 101.81298005 122.38818302 101.67555005 119.9375 102.0625 C118.28041016 102.32740234 118.28041016 102.32740234 116.58984375 102.59765625 C115.73519531 102.73042969 114.88054687 102.86320312 114 103 C113.67 104.32 113.34 105.64 113 107 C113.89203125 106.7834375 114.7840625 106.566875 115.703125 106.34375 C116.87359375 106.0653125 118.0440625 105.786875 119.25 105.5 C120.41015625 105.2215625 121.5703125 104.943125 122.765625 104.65625 C126 104 126 104 130 104 C130.99 107.96 130.99 107.96 132 112 C126.06 112.495 126.06 112.495 120 113 C119.67 114.32 119.34 115.64 119 117 C123.95 117 128.9 117 134 117 C136 122 136 122 136 125 C131.38 125 126.76 125 122 125 C122 125.99 122 126.98 122 128 C127.28 128.66 132.56 129.32 138 130 C138.94401042 132.44140625 139.88802083 134.8828125 140.83203125 137.32421875 C143.03185989 142.36395995 146.00670935 146.28083077 149.5 150.5 C159.75518453 163.44516303 167.13903621 179.25830303 172 195 C172.32774414 196.05380859 172.32774414 196.05380859 172.66210938 197.12890625 C178.95532385 218.05707404 181.31949829 240.20022564 181.4375 262 C181.4475708 263.20390381 181.4576416 264.40780762 181.46801758 265.64819336 C181.39860612 272.53272673 181.24555139 278.32563224 176.4921875 283.70703125 C173.01916574 286.08110168 170.44814719 287.19617276 166.25 287.75 C164.04250028 288.08414072 164.04250028 288.08414072 162 289 C161.01437154 290.68485767 161.01437154 290.68485767 160.55859375 292.81640625 C155.15643573 311.35120674 145.71239009 330.91441292 133.44172668 345.8604126 C130.95166521 348.89143014 130.95166521 348.89143014 129.27128601 352.14764404 C125.97534515 357.18790192 123.00144395 360.31736862 116.97305679 361.68843079 C108.04095517 362.75882975 99.05067088 362.60706098 90.0703299 362.48017979 C86.08893613 362.43460122 82.10772449 362.45137541 78.12614441 362.45916748 C71.44546827 362.46268842 64.76642422 362.41860468 58.08618164 362.34472656 C50.37774349 362.2599622 42.67168902 362.24604228 34.962879 362.2709744 C27.52323565 362.29379773 20.08442622 362.27111784 12.64490318 362.22628021 C9.48905603 362.20776935 6.33372193 362.20416803 3.17783546 362.2126236 C-0.54061408 362.22019177 -4.25665731 362.18748107 -7.97455788 362.12438202 C-9.97901891 362.09948475 -11.98384586 362.11338716 -13.98840332 362.12866211 C-20.26089453 361.98135799 -24.12439032 361.63973186 -28.70625305 357.12493896 C-29.83870741 355.77826345 -30.94066505 354.40491896 -32 353 C-32.68765835 352.19743963 -32.68765835 352.19743963 -33.38920879 351.37866592 C-43.76929913 339.24666257 -51.14910655 325.4751081 -57.234375 310.81005859 C-58.71192337 307.31690054 -60.35309036 303.89790029 -61.98046875 300.47265625 C-63.00711376 297.98274708 -63.50982583 295.62836645 -64.0625 293 C-64.61815262 290.75400602 -64.61815262 290.75400602 -66 289 C-68.99132008 287.89374258 -71.90104217 287.35934969 -75.0390625 286.8046875 C-79.52433539 285.58573471 -81.73181926 282.94466216 -84 279 C-94.14080662 248.57758014 -80.44006344 200.13910384 -66.7734375 172.421875 C-62.24338144 163.50500575 -57.48603207 155.39873565 -51.12890625 147.6640625 C-47.87702534 143.5947363 -45.68658881 139.5342814 -43.8125 134.6875 C-43.46832031 133.80449219 -43.12414062 132.92148438 -42.76953125 132.01171875 C-42.51558594 131.34785156 -42.26164062 130.68398437 -42 130 C-41.19175781 129.93941406 -40.38351563 129.87882813 -39.55078125 129.81640625 C-38.48214844 129.73261719 -37.41351563 129.64882812 -36.3125 129.5625 C-35.25675781 129.48128906 -34.20101562 129.40007812 -33.11328125 129.31640625 C-30.34913703 129.03548319 -27.71054259 128.59843148 -25 128 C-25.33 127.01 -25.66 126.02 -26 125 C-30.62 125 -35.24 125 -40 125 C-39 120 -39 120 -38 117 C-33.05 117 -28.1 117 -23 117 C-23 115.68 -23 114.36 -23 113 C-27.29 113 -31.58 113 -36 113 C-35 107 -35 107 -33 105 C-27.39682164 104.54259769 -22.38671645 105.63194503 -17 107 C-17 105.68 -17 104.36 -17 103 C-19.90624297 102.26010787 -22.82150775 101.58349094 -25.75 100.9375 C-26.54921875 100.76089844 -27.3484375 100.58429688 -28.171875 100.40234375 C-28.77515625 100.26957031 -29.3784375 100.13679688 -30 100 C-29.54841142 94.53230445 -28.08423494 90.6864004 -25.0625 86.1875 C-24.65773437 85.58075439 -24.25296875 84.97400879 -23.8359375 84.34887695 C-15.60600699 72.3632493 -5.86942104 66.18090523 7 60 C7 55.71 7 51.42 7 47 C5.68 46.34 4.36 45.68 3 45 C-3.51463735 38.28794939 -4.53440911 30.61202124 -4.4375 21.6875 C-4.43266602 20.30461792 -4.43266602 20.30461792 -4.42773438 18.89379883 C-4.28738046 12.03279105 -3.22262129 6.14312183 0 0 Z M-22 160 C-22.59683594 160.46664062 -23.19367188 160.93328125 -23.80859375 161.4140625 C-38.47791542 173.11031452 -49.92875907 193.40919056 -53 212 C-53.18304688 213.05316406 -53.36609375 214.10632813 -53.5546875 215.19140625 C-56.18288457 232.74272229 -56.36132973 250.74186261 -52 268 C-51.56494141 269.81371094 -51.56494141 269.81371094 -51.12109375 271.6640625 C-46.41603537 289.73621143 -36.24631517 304.25488208 -24 318 C-23.40445313 318.680625 -22.80890625 319.36125 -22.1953125 320.0625 C-6.58201429 336.84096972 18.1404893 347.40361804 40.76171875 348.28515625 C67.12787807 348.86639507 91.35711384 341.8165568 112 325 C112.82757813 324.33613281 113.65515625 323.67226563 114.5078125 322.98828125 C124.67022536 314.37093743 132.53332657 303.58612322 139 292 C139.47308594 291.30003906 139.94617188 290.60007812 140.43359375 289.87890625 C142.75336027 285.61539521 144.10384232 281.11751422 145.5625 276.5 C145.86607422 275.5821875 146.16964844 274.664375 146.48242188 273.71875 C154.93464342 247.20197652 153.69296438 215.2839859 141.5625 190.0625 C140.40578744 188.02388781 139.22069301 186.00095781 138 184 C137.51402344 183.0925 137.02804687 182.185 136.52734375 181.25 C124.46465481 160.02460361 102.74255446 147.01267906 79.86914062 140.38232422 C45.63243569 131.5358706 5.26498813 136.26614622 -22 160 Z " fill="#7A889C" transform="translate(208,63)"/>
<path d="M0 0 C29.97548451 -0.20081834 29.97548451 -0.20081834 44.90437031 -0.25126934 C52.94152624 -0.27885349 60.97841948 -0.31373411 69.01538086 -0.37719727 C75.38401107 -0.42746207 81.75244201 -0.4593913 88.12126511 -0.47044247 C91.485226 -0.47688983 94.84817103 -0.49447708 98.21203041 -0.52865028 C113.56761804 -0.67829753 127.4271489 -0.10209767 142 5 C142.68366953 5.23463644 143.36733906 5.46927288 144.07172585 5.71101952 C158.19680715 10.61028428 171.64753776 18.24941893 183 28 C184.02287109 28.84304687 184.02287109 28.84304687 185.06640625 29.703125 C189.87539618 33.75472183 193.99862445 38.1585088 198 43 C198.71929687 43.85464844 199.43859375 44.70929688 200.1796875 45.58984375 C206.02296654 52.67040073 206.02296654 52.67040073 207 57 C207.66 57.33 208.32 57.66 209 58 C214.5571387 66.46615731 218.20126545 75.69311056 221.4375 85.25 C221.95014404 86.73898804 221.95014404 86.73898804 222.47314453 88.25805664 C222.94856689 89.71586548 222.94856689 89.71586548 223.43359375 91.203125 C223.71259521 92.05551758 223.99159668 92.90791016 224.27905273 93.78613281 C226.24526521 102.55119242 226.14246486 111.60029573 226.11352539 120.53979492 C226.11367142 121.74109039 226.11381744 122.94238586 226.1139679 124.18008423 C226.11339529 127.43761107 226.10841961 130.69509357 226.10139394 133.95261168 C226.09509413 137.37053083 226.0945514 140.78845107 226.09336853 144.20637512 C226.0902746 150.66234786 226.08208762 157.11830342 226.07201904 163.57426864 C226.06079735 170.93109237 226.05533227 178.28791697 226.05032361 185.64474714 C226.03990316 200.76317428 226.02234167 215.88158541 226 231 C221.70406387 231.23469512 217.40979608 231.37520478 213.109375 231.5 C211.9032959 231.56703125 210.6972168 231.6340625 209.45458984 231.703125 C201.45231666 231.87696936 197.14595163 230.67675346 191.25756836 225.171875 C187.95605028 221.60014876 184.95879859 217.85591716 182 214 C177.44578599 208.54006028 172.57380403 203.47508178 167.5 198.5 C163.06744382 194.11485084 158.75671699 189.72188096 154.734375 184.953125 C151.9800462 181.85140337 148.99745599 178.97734241 146.04589844 176.06542969 C142.82654763 172.87263022 139.83042678 169.56730764 136.8984375 166.11328125 C133.53498087 162.36918653 129.87656463 158.91346638 126.2578125 155.41796875 C124 153 124 153 123 150 C127.29 149.67 131.58 149.34 136 149 C136 148.01 136 147.02 136 146 C135.43603516 145.99589111 134.87207031 145.99178223 134.29101562 145.98754883 C131.69300297 145.95430235 129.09724077 145.8836323 126.5 145.8125 C125.613125 145.80669922 124.72625 145.80089844 123.8125 145.79492188 C118.05654492 145.60446748 114.42484926 144.60735425 109.77148438 141.1628418 C105.72734781 138.50818049 100.94712425 138.70831718 96.25 138.4375 C95.20392578 138.37272461 95.20392578 138.37272461 94.13671875 138.30664062 C92.42468078 138.20110404 90.71236439 138.1001009 89 138 C89 137.34 89 136.68 89 136 C91.76916987 135.24336232 94.53973994 134.49330823 97.3125 133.75 C98.1566748 133.52328613 99.00084961 133.29657227 99.87060547 133.06298828 C106.8968151 131.21193472 113.96423482 129.70191731 121.1184082 128.43261719 C123.10011784 128.05241893 125.05521883 127.53809849 127 127 C127.33 126.01 127.66 125.02 128 124 C126.94087402 124.21205078 125.88174805 124.42410156 124.79052734 124.64257812 C120.84439596 125.43106781 116.89680103 126.21200604 112.94873047 126.99072266 C111.24324636 127.32819561 109.53816079 127.66768939 107.83349609 128.00927734 C105.37700862 128.50114845 102.919159 128.98562951 100.4609375 129.46875 C99.70444916 129.62186646 98.94796082 129.77498291 98.16854858 129.93273926 C94.04582386 130.73488454 90.22440057 131.16360058 86 131 C85.50371094 129.94941406 85.00742187 128.89882812 84.49609375 127.81640625 C78.3433322 115.01530756 71.54706028 104.90524193 59.91796875 96.41796875 C58.33986841 95.25126728 56.81729842 94.00983123 55.3125 92.75 C52.94995664 90.96212935 50.79155255 89.95710373 48 89 C48.78144353 84.76876917 50.94135986 82.03551456 53.4296875 78.609375 C57.51940427 71.81352723 58.4989998 65.74249911 58.375 57.875 C58.36629883 56.9564624 58.35759766 56.0379248 58.34863281 55.09155273 C58.14224276 45.42251704 57.69886635 34.5632362 51 27 C47.78509882 25.39254941 45.5698929 25.59694758 42 26 C30.97162789 31.8601742 23.76314198 43.62516442 18.8046875 54.66015625 C17.62588476 59.55275987 17.83035072 64.3024594 17.9375 69.3125 C17.97176107 71.30852438 18.00194055 73.30462449 18.02734375 75.30078125 C18.05429321 76.61816284 18.05429321 76.61816284 18.08178711 77.9621582 C18 80 18 80 17 81 C14.3337397 81.08855161 11.69352886 81.11524673 9.02734375 81.09765625 C8.22970108 81.0962413 7.43205841 81.09482635 6.61024475 81.09336853 C4.05262565 81.08775316 1.49509282 81.07519812 -1.0625 81.0625 C-2.79231645 81.05748698 -4.52213426 81.05292373 -6.25195312 81.04882812 C-10.50133553 81.03777875 -14.75065312 81.02050386 -19 81 C-19 80.67 -19 80.34 -19 80 C-12.73 80 -6.46 80 0 80 C0 53.6 0 27.2 0 0 Z " fill="#8A79BC" transform="translate(257,29)"/>
<path d="M0 0 C10.75603744 3.18625885 18.53191847 15.44108488 23.6640625 24.6328125 C28.90437476 35.07281445 28.80543943 44.23692398 27.17578125 55.64453125 C39.05578125 55.64453125 50.93578125 55.64453125 63.17578125 55.64453125 C63.07265625 52.26203125 62.96953125 48.87953125 62.86328125 45.39453125 C62.77061555 36.482962 63.42990324 29.41051346 68.17578125 21.64453125 C68.97242188 20.3296875 68.97242188 20.3296875 69.78515625 18.98828125 C74.27153383 12.15581632 80.39824801 3.83531412 88.17578125 0.64453125 C92.04961187 0.16030242 94.34558184 0.23908503 97.86328125 1.95703125 C106.68998413 12.21509136 105.9560979 28.38340967 105.40673828 41.15429688 C104.64477309 49.36998926 100.63356718 55.73192983 95.17578125 61.64453125 C94.84578125 62.63453125 94.51578125 63.62453125 94.17578125 64.64453125 C95.01367188 64.87140625 95.8515625 65.09828125 96.71484375 65.33203125 C113.92404545 71.85831993 124.41606203 87.81973349 132.17578125 103.64453125 C132.17578125 104.63453125 132.17578125 105.62453125 132.17578125 106.64453125 C133.09278809 106.46801025 134.00979492 106.29148926 134.95458984 106.10961914 C138.40185171 105.44822335 141.84982776 104.79081954 145.29833984 104.13598633 C146.78236219 103.85336902 148.26609502 103.56922652 149.74951172 103.28344727 C157.87227342 101.7196924 165.91670111 100.28799016 174.17578125 99.64453125 C173.84578125 100.96453125 173.51578125 102.28453125 173.17578125 103.64453125 C172.39452881 103.81581543 171.61327637 103.98709961 170.80834961 104.16357422 C167.24282559 104.94663065 163.67805141 105.7330504 160.11328125 106.51953125 C158.88416016 106.78894531 157.65503906 107.05835938 156.38867188 107.3359375 C149.17515257 108.90525203 149.17515257 108.90525203 142.0546875 110.83984375 C139.17578125 111.64453125 139.17578125 111.64453125 135.17578125 111.64453125 C135.17578125 112.30453125 135.17578125 112.96453125 135.17578125 113.64453125 C136.17738281 113.60972656 137.17898438 113.57492188 138.2109375 113.5390625 C152.66967502 113.18494873 152.66967502 113.18494873 159.2109375 118.20703125 C163.5566101 120.31402403 167.71571754 120.21398197 172.48828125 120.33203125 C173.41962891 120.36619141 174.35097656 120.40035156 175.31054688 120.43554688 C177.59883797 120.51769066 179.88676229 120.58694787 182.17578125 120.64453125 C182.50578125 121.96453125 182.83578125 123.28453125 183.17578125 124.64453125 C168.86870771 126.00710968 154.53216516 125.74221417 140.17578125 125.64453125 C140.39234375 126.34320313 140.60890625 127.041875 140.83203125 127.76171875 C141.11046875 128.67179688 141.38890625 129.581875 141.67578125 130.51953125 C141.95421875 131.42445313 142.23265625 132.329375 142.51953125 133.26171875 C143.17578125 135.64453125 143.17578125 135.64453125 143.17578125 137.64453125 C143.73523438 137.62132812 144.2946875 137.598125 144.87109375 137.57421875 C151.18654832 137.43207025 157.17707157 138.10581359 163.4140625 139.06640625 C167.45369539 139.68724287 171.49877487 140.23712264 175.55078125 140.76953125 C177.44957031 141.02089844 177.44957031 141.02089844 179.38671875 141.27734375 C180.30710937 141.39851562 181.2275 141.5196875 182.17578125 141.64453125 C182.73828125 143.58203125 182.73828125 143.58203125 183.17578125 145.64453125 C182.84578125 145.97453125 182.51578125 146.30453125 182.17578125 146.64453125 C173.72152699 146.58998767 165.28187148 145.32518991 156.92578125 144.14453125 C155.99668945 144.01401367 155.06759766 143.88349609 154.11035156 143.74902344 C153.23991211 143.62172852 152.36947266 143.49443359 151.47265625 143.36328125 C150.30234863 143.1921582 150.30234863 143.1921582 149.10839844 143.01757812 C147.17578125 142.64453125 147.17578125 142.64453125 145.17578125 141.64453125 C146.77717276 146.44870577 148.9237383 149.68379692 152.23828125 153.51953125 C161.28419457 164.26247561 167.58351423 176.41317187 172.17578125 189.64453125 C172.89482777 191.46106982 173.62334675 193.27390039 174.36328125 195.08203125 C176.63186172 200.76725923 178.47217606 205.42024024 178.17578125 211.64453125 C178.83578125 211.64453125 179.49578125 211.64453125 180.17578125 211.64453125 C184.58693219 236.69563083 184.58693219 236.69563083 186.17578125 247.64453125 C186.34400391 248.71413086 186.51222656 249.78373047 186.68554688 250.88574219 C187.4028763 256.38574413 187.43778726 261.84463825 187.47094727 267.38574219 C187.48812036 269.37588605 187.5320211 271.36574058 187.57617188 273.35546875 C187.63334516 282.13376748 187.18105336 290.81017479 181.35473633 297.8425293 C176.70235095 302.48987758 171.50769783 304.28213117 165.17578125 305.64453125 C164.84578125 307.29453125 164.51578125 308.94453125 164.17578125 310.64453125 C163.51578125 310.64453125 162.85578125 310.64453125 162.17578125 310.64453125 C162.06234375 311.49402344 161.94890625 312.34351563 161.83203125 313.21875 C157.67644934 334.911877 142.809614 356.19382893 127.875 371.76953125 C125.18119149 374.48734333 125.18119149 374.48734333 123.38953972 377.28075123 C121.17578125 379.64453125 121.17578125 379.64453125 118.36447334 380.29887676 C116.7269904 380.31923851 116.7269904 380.31923851 115.056427 380.3400116 C113.80062332 380.36711716 112.54481964 380.39422272 111.2509613 380.42214966 C109.8614825 380.42678142 108.47200163 380.4308203 107.08251953 380.43432617 C105.61694923 380.45584069 104.15140696 380.4793434 102.68589783 380.50468445 C98.70390396 380.56597466 94.72235504 380.59413218 90.73995447 380.61254287 C88.24722168 380.62499437 85.75460726 380.64355333 83.26192856 380.66405678 C74.55088654 380.73431578 65.84020718 380.77423871 57.12890625 380.79077148 C49.03443617 380.80706896 40.94283621 380.89478035 32.84930813 381.01515883 C25.88423078 381.11510826 18.92010229 381.16042996 11.95431507 381.16512185 C7.8010347 381.16903988 3.65084949 381.19496165 -0.50167465 381.27757835 C-29.08560869 381.81320432 -29.08560869 381.81320432 -36.88890266 374.86362934 C-39.04510857 372.53258315 -40.91225287 370.15257065 -42.63464737 367.48581886 C-44.24828019 364.98814435 -46.08560412 362.69142931 -47.92440605 360.35742474 C-58.57089728 346.41259507 -69.02366812 328.07017961 -71.82421875 310.64453125 C-72.48421875 310.64453125 -73.14421875 310.64453125 -73.82421875 310.64453125 C-74.15421875 308.99453125 -74.48421875 307.34453125 -74.82421875 305.64453125 C-75.67693359 305.51498047 -75.67693359 305.51498047 -76.546875 305.3828125 C-82.34002798 304.32863274 -86.70336789 302.95560183 -90.82421875 298.64453125 C-96.68682708 289.90072273 -97.72678275 282.10879027 -97.44921875 271.76953125 C-97.4290781 270.37166747 -97.40922698 268.9737995 -97.38964844 267.57592773 C-97.09302369 253.11516244 -95.28518218 238.89221426 -92.82421875 224.64453125 C-92.68532227 223.81501953 -92.54642578 222.98550781 -92.40332031 222.13085938 C-87.67318088 195.14619623 -75.37358543 168.87768541 -57.62890625 148.0703125 C-55.89269509 145.73657412 -55.40375325 144.41102287 -54.82421875 141.64453125 C-56.41169922 142.08732422 -56.41169922 142.08732422 -58.03125 142.5390625 C-63.78806365 143.97541349 -69.62785788 144.63394606 -75.51171875 145.33203125 C-76.62611328 145.47447266 -77.74050781 145.61691406 -78.88867188 145.76367188 C-79.96439453 145.89322266 -81.04011719 146.02277344 -82.1484375 146.15625 C-83.60382935 146.33353638 -83.60382935 146.33353638 -85.08862305 146.5144043 C-87.86270393 146.64636192 -90.13760525 146.30892309 -92.82421875 145.64453125 C-92.49421875 144.65453125 -92.16421875 143.66453125 -91.82421875 142.64453125 C-91.03362061 142.50354004 -90.24302246 142.36254883 -89.4284668 142.21728516 C-85.78951708 141.56822262 -82.15061765 140.91887862 -78.51171875 140.26953125 C-77.26841797 140.0478125 -76.02511719 139.82609375 -74.74414062 139.59765625 C-67.43504972 138.29314659 -60.12825327 136.97706611 -52.82421875 135.64453125 C-51.83421875 132.34453125 -50.84421875 129.04453125 -49.82421875 125.64453125 C-63.68421875 125.64453125 -77.54421875 125.64453125 -91.82421875 125.64453125 C-92.15421875 124.32453125 -92.48421875 123.00453125 -92.82421875 121.64453125 C-91.02846178 119.84877428 -88.33192447 120.51417029 -85.91015625 120.51171875 C-84.67998779 120.50978516 -83.44981934 120.50785156 -82.18237305 120.50585938 C-80.21071167 120.51262695 -80.21071167 120.51262695 -78.19921875 120.51953125 C-76.88026611 120.52146484 -75.56131348 120.52339844 -74.20239258 120.52539062 C-65.37095489 120.56459064 -56.61637516 120.79416724 -47.82421875 121.64453125 C-47.49421875 119.66453125 -47.16421875 117.68453125 -46.82421875 115.64453125 C-46.16421875 115.64453125 -45.50421875 115.64453125 -44.82421875 115.64453125 C-44.82421875 113.99453125 -44.82421875 112.34453125 -44.82421875 110.64453125 C-45.45368408 110.60787354 -46.08314941 110.57121582 -46.73168945 110.53344727 C-54.68501745 109.95289666 -62.25451351 108.38437921 -70.01171875 106.58203125 C-71.24986328 106.30037109 -72.48800781 106.01871094 -73.76367188 105.72851562 C-76.78536297 105.04017673 -79.80541639 104.34541034 -82.82421875 103.64453125 C-83.15421875 102.32453125 -83.48421875 101.00453125 -83.82421875 99.64453125 C-79.1307191 99.47984705 -75.61978821 99.66985616 -71.10131836 101.03857422 C-65.7771398 102.45538683 -60.30511101 103.29211807 -54.88671875 104.26953125 C-53.63052734 104.49898438 -52.37433594 104.7284375 -51.08007812 104.96484375 C-47.99534159 105.52783749 -44.91006086 106.08763492 -41.82421875 106.64453125 C-41.69080078 105.88479004 -41.55738281 105.12504883 -41.41992188 104.34228516 C-38.09126828 89.26784983 -24.17036835 75.64203706 -11.82421875 67.64453125 C-6.27287946 64.64453125 -6.27287946 64.64453125 -3.82421875 64.64453125 C-6.62042341 59.64801392 -6.62042341 59.64801392 -9.88671875 54.95703125 C-16.97915913 42.83124608 -16.59647312 26.12255107 -13.13671875 12.83203125 C-10.83834067 5.98494674 -8.58373162 -0.69510444 0 0 Z M-2.82421875 9.64453125 C-6.51769556 16.68522142 -7.25834941 23.45646683 -7.32421875 31.26953125 C-7.34226562 32.1514917 -7.3603125 33.03345215 -7.37890625 33.94213867 C-7.29747924 43.03227726 -4.14949602 50.15279932 2.17578125 56.64453125 C2.83578125 56.64453125 3.49578125 56.64453125 4.17578125 56.64453125 C4.17578125 60.93453125 4.17578125 65.22453125 4.17578125 69.64453125 C3.07621094 70.16660156 1.97664063 70.68867187 0.84375 71.2265625 C-14.65632577 78.8325607 -25.42047617 88.81331873 -32.82421875 104.64453125 C-33.14703307 107.44425352 -33.14703307 107.44425352 -32.82421875 109.64453125 C-32.2209375 109.77730469 -31.61765625 109.91007812 -30.99609375 110.046875 C-30.196875 110.22347656 -29.39765625 110.40007812 -28.57421875 110.58203125 C-27.39085937 110.84306641 -27.39085937 110.84306641 -26.18359375 111.109375 C-24.05543172 111.59208725 -21.93889033 112.10616303 -19.82421875 112.64453125 C-19.82421875 113.96453125 -19.82421875 115.28453125 -19.82421875 116.64453125 C-20.67693359 116.42796875 -20.67693359 116.42796875 -21.546875 116.20703125 C-28.61074594 114.50311115 -28.61074594 114.50311115 -35.82421875 114.64453125 C-38.20586067 117.48713612 -38.82421875 118.92858392 -38.82421875 122.64453125 C-34.53421875 122.64453125 -30.24421875 122.64453125 -25.82421875 122.64453125 C-25.82421875 123.96453125 -25.82421875 125.28453125 -25.82421875 126.64453125 C-30.77421875 126.64453125 -35.72421875 126.64453125 -40.82421875 126.64453125 C-43.00991409 131.21124213 -43.00991409 131.21124213 -42.82421875 134.64453125 C-38.20421875 134.64453125 -33.58421875 134.64453125 -28.82421875 134.64453125 C-28.49421875 135.63453125 -28.16421875 136.62453125 -27.82421875 137.64453125 C-36.23921875 138.63453125 -36.23921875 138.63453125 -44.82421875 139.64453125 C-45.42234375 141.19140625 -46.02046875 142.73828125 -46.63671875 144.33203125 C-49.00519729 150.45740678 -52.14643304 155.09863422 -56.32421875 160.14453125 C-69.92964054 177.31871301 -77.94570148 198.38860705 -82.39501953 219.64208984 C-82.78658276 221.46893947 -83.22300044 223.28602799 -83.6640625 225.1015625 C-87.46392942 241.64327171 -87.94828295 259.03952366 -88.13671875 275.95703125 C-88.15436279 276.85107666 -88.17200684 277.74512207 -88.19018555 278.66625977 C-88.18316987 285.27311242 -86.87522691 289.44344932 -82.26171875 294.39453125 C-78.30677381 297.50842461 -73.677683 297.9440598 -68.82421875 298.64453125 C-68.43621094 299.87816406 -68.04820312 301.11179687 -67.6484375 302.3828125 C-61.44354175 320.96119259 -52.7522336 340.29630738 -40.26594543 355.50494385 C-37.82421875 358.64453125 -37.82421875 358.64453125 -36.09550476 361.79217529 C-32.7995639 366.83243317 -29.8256627 369.96189987 -23.79727554 371.33296204 C-14.86517392 372.403361 -5.87488963 372.25159223 3.10545135 372.12471104 C7.08684512 372.07913247 11.06805676 372.09590666 15.04963684 372.10369873 C21.73031298 372.10721967 28.40935703 372.06313593 35.08959961 371.98925781 C42.79803776 371.90449345 50.50409223 371.89057353 58.21290225 371.91550565 C65.6525456 371.93832898 73.09135503 371.91564909 80.53087807 371.87081146 C83.68672522 371.8523006 86.84205932 371.84869928 89.99794579 371.85715485 C93.71639533 371.86472302 97.43243856 371.83201232 101.15033913 371.76891327 C103.15480016 371.744016 105.15962711 371.75791841 107.16418457 371.77319336 C113.43667578 371.62588924 117.30017157 371.28426311 121.8820343 366.76947021 C123.01448866 365.4227947 124.1164463 364.04945021 125.17578125 362.64453125 C125.63422015 362.109491 126.09265905 361.57445076 126.56499004 361.02319717 C136.94508038 348.89119382 144.3248878 335.11963935 150.41015625 320.45458984 C151.88656088 316.96413579 153.52907694 313.54875642 155.14453125 310.12109375 C156.1833524 307.62634901 156.79308453 305.20439266 157.42578125 302.58203125 C158.1171875 300.37109375 158.1171875 300.37109375 159.17578125 298.64453125 C161.37938478 297.7305109 163.39147613 297.45339172 165.75390625 297.1484375 C169.95659297 296.27400752 173.34269362 293.82411161 176.17578125 290.64453125 C187.07246272 262.92654388 175.17906747 216.84160891 163.98413086 190.71801758 C163.07188636 188.68138441 162.13208946 186.66083211 161.17578125 184.64453125 C160.67522217 183.58177979 160.67522217 183.58177979 160.16455078 182.49755859 C155.93714407 173.67814366 151.15795516 165.95175007 144.9309082 158.40966797 C141.37796853 154.06782185 139.00910603 149.91403049 137.17578125 144.64453125 C136.18578125 142.16953125 136.18578125 142.16953125 135.17578125 139.64453125 C129.89578125 138.98453125 124.61578125 138.32453125 119.17578125 137.64453125 C119.17578125 136.65453125 119.17578125 135.66453125 119.17578125 134.64453125 C123.79578125 134.64453125 128.41578125 134.64453125 133.17578125 134.64453125 C132.3411609 129.93394563 132.3411609 129.93394563 131.17578125 126.64453125 C126.22578125 126.64453125 121.27578125 126.64453125 116.17578125 126.64453125 C116.50578125 125.32453125 116.83578125 124.00453125 117.17578125 122.64453125 C123.11578125 122.14953125 123.11578125 122.14953125 129.17578125 121.64453125 C128.18578125 117.68453125 128.18578125 117.68453125 127.17578125 113.64453125 C121.30014445 114.1953722 115.86800108 115.09210766 110.17578125 116.64453125 C110.50578125 115.32453125 110.83578125 114.00453125 111.17578125 112.64453125 C115.13578125 111.98453125 119.09578125 111.32453125 123.17578125 110.64453125 C124.3813377 105.82230544 123.197787 104.03319809 120.80078125 100.01953125 C120.25321167 99.09019775 120.25321167 99.09019775 119.69458008 98.14208984 C112.3529228 86.06372835 102.01341427 75.5123715 87.9765625 72.01953125 C87.38230469 71.89578125 86.78804687 71.77203125 86.17578125 71.64453125 C86.12154487 69.72817908 86.08288162 67.811382 86.05078125 65.89453125 C86.02757812 64.8271875 86.004375 63.75984375 85.98046875 62.66015625 C86.26912481 58.20330672 87.44240902 56.35909906 90.61328125 53.26953125 C97.59819175 46.11425708 97.40602187 37.98498862 97.33203125 28.5234375 C97.05079293 21.54169623 96.78864187 15.14205007 92.17578125 9.64453125 C86.10599724 10.72889354 82.83303904 15.4461975 79.2734375 20.16796875 C72.2761628 30.49375679 69.56412196 41.00017685 71.86328125 53.33203125 C72.27633386 57.71038895 71.18767665 59.77550164 69.17578125 63.64453125 C67.60608235 65.21423015 66.05137947 64.77952227 63.87133789 64.78979492 C62.95691422 64.79617477 62.04249054 64.80255463 61.10035706 64.80912781 C59.60821938 64.81079704 59.60821938 64.81079704 58.0859375 64.8125 C57.07107773 64.8158284 56.05621796 64.8191568 55.01060486 64.82258606 C52.85936945 64.82765975 50.70812615 64.82999425 48.55688477 64.82983398 C45.25589089 64.83201959 41.9552315 64.85016832 38.65429688 64.86914062 C36.56901157 64.87207456 34.48372466 64.87405935 32.3984375 64.875 C31.40570328 64.88218552 30.41296906 64.88937103 29.39015198 64.89677429 C28.47257614 64.89369766 27.55500031 64.89062103 26.60961914 64.88745117 C25.79989151 64.88887619 24.99016388 64.89030121 24.15589905 64.89176941 C22.17578125 64.64453125 22.17578125 64.64453125 20.17578125 62.64453125 C18.24586979 58.37841117 18.16490641 55.35689131 18.8671875 50.76171875 C20.40542223 40.20826025 17.83884888 30.15942926 11.92578125 21.26953125 C8.58481469 16.86291156 4.82520617 12.69697979 0.17578125 9.64453125 C-0.81421875 9.64453125 -1.80421875 9.64453125 -2.82421875 9.64453125 Z " fill="#22252F" transform="translate(210.82421875,53.35546875)"/>
<path d="M0 0 C3.61885766 2.72951747 7.11482921 5.48928333 10 9 C10 10.32 10 11.64 10 13 C8.38149288 14.39139866 6.70492827 15.7159536 5 17 C-2.8595883 25.76991582 -8.11170601 35.36318152 -13 46 C-19.97799004 46.39903462 -26.55427003 44.91842825 -33.375 43.5625 C-34.57511719 43.33240234 -35.77523437 43.10230469 -37.01171875 42.86523438 C-45.86414717 41.13585283 -45.86414717 41.13585283 -47 40 C-48.34747084 39.76924918 -49.70377565 39.58846937 -51.0625 39.4375 C-52.361875 39.293125 -53.66125 39.14875 -55 39 C-54.67 39.99 -54.34 40.98 -54 42 C-51.4873839 42.95389065 -51.4873839 42.95389065 -48.3828125 43.53515625 C-47.2175 43.78716797 -46.0521875 44.03917969 -44.8515625 44.29882812 C-43.62179688 44.55083984 -42.39203125 44.80285156 -41.125 45.0625 C-39.93390625 45.31837891 -38.7428125 45.57425781 -37.515625 45.83789062 C-30.36711397 47.35910003 -23.19896552 48.74004298 -16 50 C-16 51.65 -16 53.3 -16 55 C-16.66 55 -17.32 55 -18 55 C-18.33 56.98 -18.66 58.96 -19 61 C-33.52 61 -48.04 61 -63 61 C-63 61.99 -63 62.98 -63 64 C-49.14 64.33 -35.28 64.66 -21 65 C-23 75 -23 75 -25.19921875 76.5546875 C-26.12347656 76.70164062 -27.04773438 76.84859375 -28 77 C-29.61841797 77.31324219 -29.61841797 77.31324219 -31.26953125 77.6328125 C-34.84269664 78.1291949 -38.41646559 78.58510725 -42 79 C-42.79535156 79.11085938 -43.59070313 79.22171875 -44.41015625 79.3359375 C-49.49205313 79.76027084 -52.32056969 77.95843969 -56.0546875 74.83203125 C-67.1145669 64.41620105 -72.76583994 52.85862681 -73.4375 37.5 C-73.09081028 27.15960213 -69.30783575 18.07402976 -63 10 C-62.38253906 9.17628906 -61.76507813 8.35257813 -61.12890625 7.50390625 C-54.75369132 0.00571768 -46.32902854 -4.32376329 -37 -7 C-36.35289062 -7.19335938 -35.70578125 -7.38671875 -35.0390625 -7.5859375 C-22.48040315 -10.13616335 -10.65862214 -6.52202881 0 0 Z " fill="#FCB44C" transform="translate(182,114)"/>
<path d="M0 0 C15.43379322 12.29036815 25.37921271 27.5816777 31.37890625 46.328125 C31.76175781 47.48183594 32.14460937 48.63554687 32.5390625 49.82421875 C35.34390027 58.52022117 36.53284044 66.609235 36.546875 75.703125 C36.5502034 76.47188965 36.5535318 77.2406543 36.55696106 78.03271484 C36.5619877 79.64615283 36.56437072 81.25960106 36.56420898 82.87304688 C36.56640058 85.32179016 36.58461555 87.77008581 36.60351562 90.21875 C36.60644957 91.79687348 36.60843436 93.37499907 36.609375 94.953125 C36.61656052 95.67419434 36.62374603 96.39526367 36.63114929 97.13818359 C36.60881968 102.17743948 35.75462651 106.47587131 34.37890625 111.328125 C34.04886597 112.53106201 34.04886597 112.53106201 33.7121582 113.75830078 C25.08732502 142.97018961 9.01721799 167.60246575 -17.625 183.33203125 C-19.62109375 184.328125 -19.62109375 184.328125 -21.62109375 184.328125 C-21.62109375 184.988125 -21.62109375 185.648125 -21.62109375 186.328125 C-46.61530725 198.37890651 -75.95117321 201.71010003 -102.62109375 193.328125 C-103.26159668 193.12977051 -103.90209961 192.93141602 -104.56201172 192.72705078 C-132.81201737 183.5961027 -154.18517298 161.07918118 -167.62109375 135.328125 C-169.21868416 132.04886047 -170.49417155 128.79518743 -171.62109375 125.328125 C-171.82573242 124.71018066 -172.03037109 124.09223633 -172.24121094 123.45556641 C-175.23317614 114.37936955 -177.72912886 105.96238118 -177.7890625 96.3046875 C-177.79338791 95.64601685 -177.79771332 94.98734619 -177.8021698 94.30871582 C-177.8122241 92.19011113 -177.81236408 90.0717486 -177.80859375 87.953125 C-177.80732483 87.23026306 -177.80605591 86.50740112 -177.80474854 85.76263428 C-177.70177052 55.13220621 -170.17105667 28.90011429 -148.87109375 6.140625 C-136.59447363 -5.65898943 -121.95064074 -13.28656914 -105.62109375 -17.671875 C-104.92918945 -17.85959473 -104.23728516 -18.04731445 -103.52441406 -18.24072266 C-68.33846456 -27.4145914 -29.20084187 -22.15404054 0 0 Z M-140.62109375 5.328125 C-141.21792969 5.79476562 -141.81476563 6.26140625 -142.4296875 6.7421875 C-157.09900917 18.43843952 -168.54985282 38.73731556 -171.62109375 57.328125 C-171.80414063 58.38128906 -171.9871875 59.43445313 -172.17578125 60.51953125 C-174.80397832 78.07084729 -174.98242348 96.06998761 -170.62109375 113.328125 C-170.18603516 115.14183594 -170.18603516 115.14183594 -169.7421875 116.9921875 C-165.03712912 135.06433643 -154.86740892 149.58300708 -142.62109375 163.328125 C-142.02554688 164.00875 -141.43 164.689375 -140.81640625 165.390625 C-125.20310804 182.16909472 -100.48060445 192.73174304 -77.859375 193.61328125 C-51.49321568 194.19452007 -27.26397991 187.1446818 -6.62109375 170.328125 C-5.79351562 169.66425781 -4.9659375 169.00039063 -4.11328125 168.31640625 C6.04913161 159.69906243 13.91223282 148.91424822 20.37890625 137.328125 C20.85199219 136.62816406 21.32507813 135.92820312 21.8125 135.20703125 C24.13226652 130.94352021 25.48274857 126.44563922 26.94140625 121.828125 C27.24498047 120.9103125 27.54855469 119.9925 27.86132812 119.046875 C36.31354967 92.53010152 35.07187063 60.6121109 22.94140625 35.390625 C21.78469369 33.35201281 20.59959926 31.32908281 19.37890625 29.328125 C18.89292969 28.420625 18.40695312 27.513125 17.90625 26.578125 C5.84356106 5.35272861 -15.87853929 -7.65919594 -38.75195312 -14.28955078 C-72.98865806 -23.1360044 -113.35610562 -18.40572878 -140.62109375 5.328125 Z " fill="#2A2D34" transform="translate(326.62109375,217.671875)"/>
<path d="M0 0 C3.09079084 3.27811149 3.93587476 5.04787287 4.4375 9.5625 C3.85552813 15.18822807 1.49662584 17.9764604 -2.75 21.5625 C-6.64460679 23.54798581 -8.62136429 23.94471679 -12.9375 23.1875 C-17.04190821 20.61185922 -20.08821128 17.71087756 -21.9375 13.1875 C-22.79588704 6.64229882 -22.79588704 6.64229882 -20.734375 3.1484375 C-15.18878901 -3.65750894 -7.62682897 -4.70591575 0 0 Z " fill="#EEEEE3" transform="translate(221.9375,142.8125)"/>
<path d="M0 0 C3.43761572 2.12108204 5.77560839 4.1042085 7 8 C7.46279153 12.16512377 7.28978687 14.4315719 5.375 18.1875 C1.85935136 22.35076813 -1.01539711 24.63916311 -6.4375 25.625 C-11.19278989 24.79073862 -13.86623213 22.60507333 -17 19 C-19.23253272 15.21730337 -19.45538324 12.40203798 -19 8 C-17.19531421 4.39062842 -15.58165967 2.41933604 -12.3125 0.0625 C-7.92156804 -1.34591214 -4.4347481 -1.21096443 0 0 Z " fill="#EFEFE4" transform="translate(305,141)"/>
<path d="M0 0 C1.29550781 -0.02126953 1.29550781 -0.02126953 2.6171875 -0.04296875 C5.2491288 0.19890748 6.86480544 0.85766459 9.125 2.1875 C9.125 2.8475 9.125 3.5075 9.125 4.1875 C9.723125 4.435 10.32125 4.6825 10.9375 4.9375 C14.48258004 6.96326002 15.85164719 9.36744156 17.125 13.1875 C17.6885668 18.87735711 17.45296433 23.35658403 14.125 28.1875 C9.80601192 32.44650213 6.57616412 35.32148164 0.375 35.5 C-4.52731526 35.43651678 -7.12149492 34.50455101 -10.875 31.1875 C-15.98663518 25.74249731 -17.23928349 22.34485027 -17.15234375 14.9453125 C-16.61753304 9.62733556 -13.60574402 6.71097461 -9.75 3.375 C-6.1058329 0.60226416 -4.4915906 0.03332041 0 0 Z M-11.25 10.9375 C-13.18040652 14.79831305 -13.48438288 16.92181986 -12.875 21.1875 C-10.60358881 25.47794335 -8.04603079 28.66548138 -3.875 31.1875 C0.34632866 31.80151144 2.50436602 31.50390164 6.3125 29.5625 C10.50090349 26.02562594 12.83829047 23.19446671 13.625 17.6875 C13.02019026 13.4538318 11.91445399 11.41739409 9.125 8.1875 C1.67374187 3.32798383 -5.37701113 4.1371971 -11.25 10.9375 Z " fill="#2B2D37" transform="translate(298.875,134.8125)"/>
<path d="M0 0 C1.2375 0.495 1.2375 0.495 2.5 1 C2.5 1.66 2.5 2.32 2.5 3 C3.0775 3.20625 3.655 3.4125 4.25 3.625 C7.54664144 5.63961421 8.76778812 7.53557624 10.5 11 C11.37321779 16.91101275 11.00801274 22.02088514 7.5 27 C3.17418023 31.25572547 -0.04414501 34.1338466 -6.25 34.3125 C-11.15231526 34.24901678 -13.74649492 33.31705101 -17.5 30 C-22.37913002 24.80266584 -23.81856753 21.58845483 -23.70703125 14.53125 C-23.26513774 9.12847651 -20.86140317 6.14543966 -16.9375 2.6875 C-11.56649199 -1.7132614 -6.58576829 -1.88164808 0 0 Z M-17.3125 8.625 C-19.68416288 11.70215753 -20.18600812 14.20227076 -19.921875 18.046875 C-18.97015176 22.45300111 -16.24190199 25.2380466 -13.1875 28.375 C-9.63289844 30.52429397 -7.59651827 30.57494993 -3.5 30 C1.27655522 27.56489342 4.06489342 24.77655522 6.5 20 C7.10938288 15.73431986 6.80540652 13.61081305 4.875 9.75 C1.50503336 5.84793336 -1.42416552 4.21181984 -6.5625 3.6875 C-11.41211842 4.20341685 -13.71051932 5.26315137 -17.3125 8.625 Z " fill="#2A2D36" transform="translate(219.5,136)"/>
<path d="M0 0 C-0.59263799 4.58422912 -2.56928613 8.13406983 -4.75 12.125 C-8.85562347 19.90790615 -11.08579669 27.77448572 -13.08984375 36.30859375 C-14 40 -14 40 -15 41 C-16.07741123 48.29908171 -16.15055307 55.50719943 -16.125 62.875 C-16.12886719 63.98230469 -16.13273438 65.08960938 -16.13671875 66.23046875 C-16.12851988 73.20770796 -15.76439832 80.06469585 -15 87 C-15.99 86.67 -16.98 86.34 -18 86 C-18 84.02 -18 82.04 -18 80 C-18.33 80 -18.66 80 -19 80 C-22.74490989 54.59453133 -20.38525468 25.02977484 -6 3 C-2.60645161 0 -2.60645161 0 0 0 Z " fill="#262831" transform="translate(169,240)"/>
<path d="M0 0 C3.44752912 2.2555927 6.44516664 4.75914658 9 8 C9 9.32 9 10.64 9 12 C7.80503906 11.91878906 6.61007813 11.83757812 5.37890625 11.75390625 C-5.15760003 10.97711792 -5.15760003 10.97711792 -14.375 15.375 C-15.31472656 16.31472656 -15.31472656 16.31472656 -16.2734375 17.2734375 C-18.06826012 19.06826012 -19.68809601 19.99172469 -22 21 C-22.12704831 13.12300475 -19.67907039 9.72219171 -14.32421875 4.06640625 C-10.08617527 0.29846507 -5.68236449 -1.48752997 0 0 Z " fill="#2B2C31" transform="translate(215,226)"/>
<path d="M0 0 C6.91344576 3.03221305 10.87213989 7.80820983 15 14 C15.07905064 16.33199388 15.08798769 18.66832622 15 21 C11.99868813 19.60701445 9.48942591 17.96044932 6.875 15.9375 C1.89864735 12.09725805 -1.38424393 11.87164787 -7.625 11.9375 C-8.42679687 11.94201172 -9.22859375 11.94652344 -10.0546875 11.95117188 C-12.03649006 11.96296832 -14.01825433 11.98090395 -16 12 C-15.35844242 6.69340231 -13.20556374 4.68197093 -9.18359375 1.3984375 C-5.88004038 -0.717255 -3.8140866 -0.76281732 0 0 Z " fill="#2A2B31" transform="translate(304,226)"/>
<path d="M0 0 C5.69792921 3.05879015 9.86099982 7.11286383 12.42578125 13.06640625 C13.22810582 15.76811144 13.27898233 18.21017671 13 21 C9.79452042 19.56975239 7.4645554 17.79566927 4.875 15.4375 C1.39119547 12.27578306 -0.38695908 10.86892225 -5.1328125 10.90234375 C-5.93847656 10.90556641 -6.74414062 10.90878906 -7.57421875 10.91210938 C-8.83685547 10.92467773 -8.83685547 10.92467773 -10.125 10.9375 C-11.39923828 10.94426758 -11.39923828 10.94426758 -12.69921875 10.95117188 C-14.79950909 10.96297126 -16.8997633 10.98090694 -19 11 C-18.2261036 7.22768011 -17.23953471 6.04733997 -14.0625 3.8125 C-13.35222656 3.30332031 -12.64195312 2.79414063 -11.91015625 2.26953125 C-8.0434906 -0.30033856 -4.55660009 -0.93150257 0 0 Z " fill="#2F3034" transform="translate(324,261)"/>
<path d="M0 0 C2.57035177 1.0387401 4.74581177 2.39690012 7 4 C8.4540625 5.0209375 8.4540625 5.0209375 9.9375 6.0625 C10.9584375 7.0215625 10.9584375 7.0215625 12 8 C12 8.99 12 9.98 12 11 C10.92621094 10.88140625 9.85242188 10.7628125 8.74609375 10.640625 C0.09048952 9.4495424 0.09048952 9.4495424 -8.125 11.5 C-11.00395099 14.00343565 -13.36025693 16.56034353 -15.640625 19.609375 C-16.08921875 20.06828125 -16.5378125 20.5271875 -17 21 C-17.99 21 -18.98 21 -20 21 C-19.95908825 12.16306189 -16.53353921 7.71951496 -10.625 1.5 C-7.05139899 -0.54205772 -3.96316854 -0.75488925 0 0 Z " fill="#2D2E33" transform="translate(195,261)"/>
<path d="M0 0 C5.36875884 2.7314738 9.2335154 6.69757119 12 12 C12 13.32 12 14.64 12 16 C9.19009577 14.89306803 6.50748918 13.74891605 3.8125 12.375 C-0.71889199 10.46393468 -5.16669785 10.15549167 -10 11 C-12.33628561 12.11955117 -14.32383678 13.37004353 -16.40625 14.90625 C-18 16 -18 16 -20 16 C-19.84207033 9.68281329 -16.32493138 6.19272824 -12 2 C-7.93478991 -0.71014006 -4.77376682 -0.88059776 0 0 Z " fill="#2A2C31" transform="translate(260,218)"/>
<path d="M0 0 C3.13417917 1.97589556 5.47572057 3.98981832 7.875 6.8125 C7.875 7.8025 7.875 8.7925 7.875 9.8125 C8.535 9.8125 9.195 9.8125 9.875 9.8125 C10.37 12.7825 10.37 12.7825 10.875 15.8125 C7.39169784 15.16744404 4.78067134 13.83032732 1.875 11.8125 C1.875 11.1525 1.875 10.4925 1.875 9.8125 C-5.06468278 8.13015266 -10.04303912 8.32397233 -16.23046875 11.83984375 C-18.18286514 12.84220808 -19.98412299 13.36153921 -22.125 13.8125 C-21.80150925 8.47490258 -18.76980381 5.404095 -15.125 1.8125 C-10.269926 -2.04666138 -5.74525249 -2.18319595 0 0 Z " fill="#2C2E32" transform="translate(283.125,253.1875)"/>
<path d="M0 0 C5.49546022 1.63935868 10.33005414 5.13553238 13.64453125 9.80859375 C15.08203125 12.62109375 15.08203125 12.62109375 15.08203125 15.62109375 C13.66411717 15.16663411 12.24775079 14.70734431 10.83203125 14.24609375 C10.043125 13.99085938 9.25421875 13.735625 8.44140625 13.47265625 C6.08203125 12.62109375 6.08203125 12.62109375 3.984375 11.55078125 C0.78449741 9.9869807 -1.3934498 10.15886176 -4.91796875 10.62109375 C-7.38905916 11.99849023 -9.62847601 13.52938845 -11.90234375 15.2109375 C-13.91796875 16.62109375 -13.91796875 16.62109375 -16.91796875 17.62109375 C-16.91796875 15.64109375 -16.91796875 13.66109375 -16.91796875 11.62109375 C-16.25796875 11.62109375 -15.59796875 11.62109375 -14.91796875 11.62109375 C-14.82644531 11.0384375 -14.73492187 10.45578125 -14.640625 9.85546875 C-12.7019491 3.86129245 -6.26289573 -0.60528973 0 0 Z " fill="#2A2C31" transform="translate(235.91796875,251.37890625)"/>
<path d="M0 0 C-0.80619543 4.23474083 -2.45906786 5.52958223 -6 8 C-9.60471703 10.40314469 -12.7293691 10.37461675 -17 10 C-20.62293087 8.31491588 -23.51984845 6.14788466 -26 3 C-26.0625 0.875 -26.0625 0.875 -25 -1 C-16.92171893 -5.02481734 -7.91592152 -3.65350224 0 0 Z " fill="#232530" transform="translate(269,156)"/>
<path d="M0 0 C0.93590492 2.5997359 0.97313445 4.17267427 0.54296875 6.9375 C-1.67348272 21.43200036 -0.58519379 36.84308095 3 51 C3.30164063 52.23234375 3.60328125 53.4646875 3.9140625 54.734375 C5.64239486 61.28236591 7.72280559 67.01445379 11.2421875 72.81640625 C12 75 12 75 11.1328125 77.77734375 C10.75898438 78.51082031 10.38515625 79.24429688 10 80 C4.28985319 73.47411793 1.5250385 66.28896422 -0.625 58 C-0.82867187 57.24460937 -1.03234375 56.48921875 -1.2421875 55.7109375 C-1.84094324 53.47711801 -2.42086921 51.23897431 -3 49 C-3.19416504 48.28457031 -3.38833008 47.56914062 -3.58837891 46.83203125 C-4.56404005 43.15367659 -5.24401589 39.80850858 -5.125 36 C-5.10695312 35.236875 -5.08890625 34.47375 -5.0703125 33.6875 C-5.03550781 32.8521875 -5.03550781 32.8521875 -5 32 C-4.67 32 -4.34 32 -4 32 C-3.855625 33.093125 -3.71125 34.18625 -3.5625 35.3125 C-3.11711896 38.93122987 -3.11711896 38.93122987 -2 42 C-1.67 42.99 -1.34 43.98 -1 45 C-1.16242188 43.783125 -1.32484375 42.56625 -1.4921875 41.3125 C-2.16787888 35.20978917 -2.14610194 29.13363065 -2.125 23 C-2.12886719 21.8759375 -2.13273438 20.751875 -2.13671875 19.59375 C-2.11630117 2.11630117 -2.11630117 2.11630117 0 0 Z " fill="#3A3B3C" transform="translate(154,280)"/>
<path d="M0 0 C0.91007812 0.00902344 1.82015625 0.01804688 2.7578125 0.02734375 C3.80582031 0.04474609 3.80582031 0.04474609 4.875 0.0625 C4.875 0.3925 4.875 0.7225 4.875 1.0625 C1.245 1.3925 -2.385 1.7225 -6.125 2.0625 C-6.125 3.0525 -6.125 4.0425 -6.125 5.0625 C-5.465 4.7325 -4.805 4.4025 -4.125 4.0625 C-1.7920134 4.02227609 0.54206666 4.01929753 2.875 4.0625 C2.875 4.3925 2.875 4.7225 2.875 5.0625 C2.28332031 5.14886719 1.69164062 5.23523438 1.08203125 5.32421875 C-4.46644055 6.31081488 -7.47249222 7.49686527 -11.125 12.0625 C-12.6797669 15.17203379 -12.41144437 17.62516761 -12.125 21.0625 C-9.96987869 24.98789952 -7.39776891 28.0235003 -4.125 31.0625 C-4.455 31.3925 -4.785 31.7225 -5.125 32.0625 C-2.60024538 33.32487731 -0.81299534 33.16106404 2 33.125 C2.91007812 33.11597656 3.82015625 33.10695312 4.7578125 33.09765625 C5.45648438 33.08605469 6.15515625 33.07445312 6.875 33.0625 C4.40503576 35.53246424 3.53602667 35.38581778 0.125 35.4375 C-4.75605206 35.32513046 -7.39063233 34.36263887 -11.125 31.0625 C-16.23663518 25.61749731 -17.48928349 22.21985027 -17.40234375 14.8203125 C-16.86753304 9.50233556 -13.85574402 6.58597461 -10 3.25 C-6.22639257 0.37877696 -4.65348626 -0.05966008 0 0 Z " fill="#252832" transform="translate(299.125,134.9375)"/>
<path d="M0 0 C0 0.33 0 0.66 0 1 C-4.455 1.495 -4.455 1.495 -9 2 C-9 2.99 -9 3.98 -9 5 C-8.34 4.67 -7.68 4.34 -7 4 C-4.6670134 3.95977609 -2.33293334 3.95679753 0 4 C0 4.33 0 4.66 0 5 C-0.66386719 5.07476562 -1.32773438 5.14953125 -2.01171875 5.2265625 C-8.1866455 6.10049687 -8.1866455 6.10049687 -13.125 9.625 C-15.38707336 13.69673205 -15.98216266 16.45295066 -15 21 C-12.69098669 25.44698859 -9.9079532 27.96048085 -6 31 C-6 31.66 -6 32.32 -6 33 C-2.7 33 0.6 33 4 33 C1.53003576 35.46996424 0.66102667 35.32331778 -2.75 35.375 C-7.63105206 35.26263046 -10.26563233 34.30013887 -14 31 C-18.87913002 25.80266584 -20.31856753 22.58845483 -20.20703125 15.53125 C-19.76513774 10.12847651 -17.36140317 7.14543966 -13.4375 3.6875 C-8.74756135 -0.15522393 -5.98520832 -0.09653562 0 0 Z " fill="#2C2E37" transform="translate(216,135)"/>
<path d="M0 0 C17.30908033 -0.60147383 17.30908033 -0.60147383 24.03515625 4.5625 C28.38082885 6.66949278 32.53993629 6.56945072 37.3125 6.6875 C38.24384766 6.72166016 39.17519531 6.75582031 40.13476562 6.79101562 C42.42305672 6.87315941 44.71098104 6.94241662 47 7 C47 7.33 47 7.66 47 8 C32.48 8 17.96 8 3 8 C0 2 0 2 0 0 Z " fill="#257759" transform="translate(346,167)"/>
<path d="M0 0 C0.33 0 0.66 0 1 0 C1 1.98 1 3.96 1 6 C1.66 6 2.32 6 3 6 C3.0292427 10.33331896 3.04688017 14.66661221 3.0625 19 C3.07087891 20.22074219 3.07925781 21.44148438 3.08789062 22.69921875 C3.10461652 28.88779972 3.06989296 34.89487652 2 41 C1.505 41.495 1.505 41.495 1 42 C0.95936168 43.66617115 0.957279 45.33388095 1 47 C-0.485 47.495 -0.485 47.495 -2 48 C-1.88270365 41.32465139 -1.75786785 34.64947491 -1.62768555 27.97436523 C-1.58426335 25.70161164 -1.54259384 23.42882387 -1.50268555 21.15600586 C-1.44515881 17.89686768 -1.38141448 14.63790269 -1.31640625 11.37890625 C-1.29969376 10.35599991 -1.28298126 9.33309357 -1.26576233 8.27919006 C-1.24581711 7.33829025 -1.22587189 6.39739044 -1.20532227 5.42797852 C-1.18977798 4.59524918 -1.1742337 3.76251984 -1.15821838 2.90455627 C-1 1 -1 1 0 0 Z " fill="#2C2E33" transform="translate(360,279)"/>
<path d="M0 0 C1.54555802 0.07971649 3.09113191 0.15912551 4.63671875 0.23828125 C8.76026165 0.4599771 12.87998104 0.72067668 17 1 C17 1.33 17 1.66 17 2 C16.32533691 2.01981934 15.65067383 2.03963867 14.95556641 2.06005859 C11.84504139 2.1563811 8.73509211 2.2656181 5.625 2.375 C4.03365234 2.42140625 4.03365234 2.42140625 2.41015625 2.46875 C-4.25889573 2.71423658 -10.51014731 3.45531681 -17 5 C-17.74572266 5.17208984 -18.49144531 5.34417969 -19.25976562 5.52148438 C-21.36555314 6.01729648 -23.46433576 6.53545397 -25.5625 7.0625 C-26.27212891 7.23587891 -26.98175781 7.40925781 -27.71289062 7.58789062 C-31.1400853 8.22550643 -31.1400853 8.22550643 -34 10 C-35.66617115 10.04063832 -37.33388095 10.042721 -39 10 C-37.80268621 6.40805863 -37.24502184 5.86362709 -34 4 C-30.91615797 3.04649373 -27.7936142 2.41709835 -24.625 1.8125 C-23.72740967 1.63887939 -22.82981934 1.46525879 -21.9050293 1.28637695 C-14.52012646 -0.05927535 -7.50111295 -0.43832303 0 0 Z " fill="#22242D" transform="translate(250,197)"/>
<path d="M0 0 C0.33 0 0.66 0 1 0 C1.05553449 1.33282775 1.09346189 2.66638865 1.125 4 C1.14820313 4.7425 1.17140625 5.485 1.1953125 6.25 C0.69464373 13.29941627 -1.92540993 20.17774451 -4.0625 26.875 C-4.33126953 27.72835938 -4.60003906 28.58171875 -4.87695312 29.4609375 C-6.86717059 35.73434118 -6.86717059 35.73434118 -8 38 C-10.5625 38.625 -10.5625 38.625 -13 39 C-12.75765625 38.2471875 -12.5153125 37.494375 -12.265625 36.71875 C-10.26950539 30.39258631 -8.43397595 24.05655263 -6.8125 17.625 C-6.64588867 16.97208984 -6.47927734 16.31917969 -6.30761719 15.64648438 C-5.265685 11.4402448 -4.54883594 7.29089915 -4 3 C-3.67 3 -3.34 3 -3 3 C-3 5.97 -3 8.94 -3 12 C-2.14302306 9.42906918 -1.51199363 6.95517072 -0.9375 4.3125 C-0.76089844 3.50425781 -0.58429688 2.69601562 -0.40234375 1.86328125 C-0.26957031 1.24839844 -0.13679688 0.63351562 0 0 Z " fill="#2D2E33" transform="translate(362,312)"/>
<path d="M0 0 C1.0942263 3.64167436 0.7450274 6.57175003 0.26660156 10.33300781 C-0.24997378 15.50065341 -0.14299465 20.68654393 -0.125 25.875 C-0.12886719 26.98230469 -0.13273438 28.08960938 -0.13671875 29.23046875 C-0.12851988 36.20770796 0.23560168 43.06469585 1 50 C0.01 49.67 -0.98 49.34 -2 49 C-2 47.02 -2 45.04 -2 43 C-2.33 43 -2.66 43 -3 43 C-3.97940089 36.43409643 -4.18323676 30.00860075 -4.1875 23.375 C-4.19974609 22.364375 -4.21199219 21.35375 -4.22460938 20.3125 C-4.23484269 15.11397648 -4.02344512 10.87325906 -2 6 C-1.814375 5.071875 -1.62875 4.14375 -1.4375 3.1875 C-1 1 -1 1 0 0 Z " fill="#1A1C27" transform="translate(153,277)"/>
<path d="M0 0 C2 2 2 2 2.3125 5.4375 C2 9 2 9 0.875 10.9375 C-1.92162472 12.52225401 -3.8493196 12.45947423 -7 12 C-9.59814888 9.74827097 -9.95716454 8.34982295 -10.375 4.9375 C-10 2 -10 2 -8.9375 0.0625 C-5.81651045 -1.6490104 -3.35466116 -0.79291991 0 0 Z " fill="#292B34" transform="translate(303,147)"/>
<path d="M0 0 C2 2 2 2 2.375 4.875 C2 8 2 8 0.3125 10.375 C-2 12 -2 12 -4.5625 12.4375 C-7 12 -7 12 -8.8125 10.9375 C-10.67036623 7.90624457 -10.37133265 5.46577141 -10 2 C-7.70689559 -2.31643184 -4.20602073 -0.99415036 0 0 Z " fill="#292B33" transform="translate(217,147)"/>
<path d="M0 0 C10.89 0 21.78 0 33 0 C32.67 0.99 32.34 1.98 32 3 C28.28111134 3.8632601 24.85703512 4.11721556 21.04296875 4.09765625 C19.93115234 4.09443359 18.81933594 4.09121094 17.67382812 4.08789062 C16.52333984 4.07951172 15.37285156 4.07113281 14.1875 4.0625 C12.43276367 4.05573242 12.43276367 4.05573242 10.64257812 4.04882812 C7.76166642 4.0370693 4.88085956 4.02063426 2 4 C1.34 2.68 0.68 1.36 0 0 Z " fill="#20232E" transform="translate(240,411)"/>
<path d="M0 0 C0.89203125 0.01804688 1.7840625 0.03609375 2.703125 0.0546875 C3.71632813 0.08949219 3.71632813 0.08949219 4.75 0.125 C4.75 0.455 4.75 0.785 4.75 1.125 C1.12 1.455 -2.51 1.785 -6.25 2.125 C-6.25 3.115 -6.25 4.105 -6.25 5.125 C-5.59 4.795 -4.93 4.465 -4.25 4.125 C-1.9170134 4.08477609 0.41706666 4.08179753 2.75 4.125 C2.75 4.455 2.75 4.785 2.75 5.125 C2.15832031 5.21136719 1.56664062 5.29773438 0.95703125 5.38671875 C-4.64004362 6.38195719 -7.50486713 7.60881036 -11.25 12.125 C-13.43237049 14.47524514 -14.09168378 15.07222793 -17.25 16.125 C-17.11088734 10.56049353 -14.67713774 7.82218671 -11.13671875 3.859375 C-7.54063759 0.55366064 -4.84685741 -0.12754888 0 0 Z " fill="#353943" transform="translate(299.25,134.875)"/>
<path d="M0 0 C0.66 0.33 1.32 0.66 2 1 C-12.43539336 15.61786322 -12.43539336 15.61786322 -18.3515625 20.5703125 C-20.10565195 22.0088797 -20.10565195 22.0088797 -21.68212891 24.06494141 C-24.8086084 26.67506111 -26.70199395 26.46136853 -30.734375 26.390625 C-32.02988281 26.37773437 -33.32539062 26.36484375 -34.66015625 26.3515625 C-36.02344824 26.31814366 -37.38672949 26.28428391 -38.75 26.25 C-40.12888064 26.22992707 -41.50778912 26.21167767 -42.88671875 26.1953125 C-46.25851744 26.14815448 -49.62890687 26.08234538 -53 26 C-53 25.67 -53 25.34 -53 25 C-43.76 25 -34.52 25 -25 25 C-24.34 23.68 -23.68 22.36 -23 21 C-21.58203125 19.5703125 -21.58203125 19.5703125 -19.8125 18.125 C-15.40894812 14.40771594 -11.203312 10.5024565 -7 6.5625 C-6.31655518 5.9226416 -5.63311035 5.2827832 -4.92895508 4.62353516 C-3.28498954 3.08339683 -1.64198601 1.54224818 0 0 Z " fill="#379177" transform="translate(82,298)"/>
<path d="M0 0 C0 0.33 0 0.66 0 1 C-4.455 1.495 -4.455 1.495 -9 2 C-9 2.99 -9 3.98 -9 5 C-8.34 4.67 -7.68 4.34 -7 4 C-4.6670134 3.95977609 -2.33293334 3.95679753 0 4 C0 4.33 0 4.66 0 5 C-0.66386719 5.07476562 -1.32773438 5.14953125 -2.01171875 5.2265625 C-8.29903333 6.11116009 -8.29903333 6.11116009 -13.0625 10 C-14.9360012 12.78069201 -14.9360012 12.78069201 -16 15 C-17.32 15 -18.64 15 -20 15 C-18.87483697 8.10837647 -15.52399446 5.07394592 -10 1 C-6.78548731 -0.60725635 -3.56387464 -0.05748185 0 0 Z " fill="#32353F" transform="translate(216,135)"/>
<path d="M0 0 C5 2 5 2 6.14453125 3.6640625 C7.84041823 8.6426313 8.28180516 12.73963695 8 18 C7.67 18 7.34 18 7 18 C6.67 16.35 6.34 14.7 6 13 C5.67 15.31 5.34 17.62 5 20 C4.67 20 4.34 20 4 20 C2.68 13.4 1.36 6.8 0 0 Z " fill="#404241" transform="translate(354,267)"/>
<path d="M0 0 C0.33 0.66 0.66 1.32 1 2 C5.62 1.67 10.24 1.34 15 1 C15.33 2.32 15.66 3.64 16 5 C11.50343896 7.24828052 7.92127034 7.16682272 3 7 C3.99 6.01 4.98 5.02 6 4 C4.02 4 2.04 4 0 4 C0 2.68 0 1.36 0 0 Z " fill="#323743" transform="translate(167,186)"/>
<path d="M0 0 C0.33 0 0.66 0 1 0 C1.30062652 7.21503643 1.12969572 13.80545641 -3 20 C-3.66 20 -4.32 20 -5 20 C-5.33 21.65 -5.66 23.3 -6 25 C-6.66 25 -7.32 25 -8 25 C-6.68 17.74 -5.36 10.48 -4 3 C-3.67 3 -3.34 3 -3 3 C-3 5.97 -3 8.94 -3 12 C-2.14302306 9.42906918 -1.51199363 6.95517072 -0.9375 4.3125 C-0.76089844 3.50425781 -0.58429688 2.69601562 -0.40234375 1.86328125 C-0.26957031 1.24839844 -0.13679688 0.63351562 0 0 Z " fill="#414344" transform="translate(362,312)"/>
<path d="M0 0 C0 1.33333333 0 2.66666667 0 4 C-1.41538717 4.33872513 -2.83237963 4.67074624 -4.25 5 C-5.03890625 5.185625 -5.8278125 5.37125 -6.640625 5.5625 C-9 6 -9 6 -13 6 C-12.67 4.35 -12.34 2.7 -12 1 C-8.0186217 -0.3271261 -4.14954773 -0.06915913 0 0 Z " fill="#292C37" transform="translate(334,164)"/>
<path d="M0 0 C0.33 0.99 0.66 1.98 1 3 C1.60328125 3.04898438 2.2065625 3.09796875 2.828125 3.1484375 C3.62734375 3.22320312 4.4265625 3.29796875 5.25 3.375 C6.03890625 3.44460937 6.8278125 3.51421875 7.640625 3.5859375 C10.085877 4.01507113 11.84836903 4.78600638 14 6 C14 7.32 14 8.64 14 10 C8.39 9.67 2.78 9.34 -3 9 C-3 8.34 -3 7.68 -3 7 C0.3 7 3.6 7 7 7 C6.67 6.34 6.34 5.68 6 5 C3.67843403 4.59270772 1.3431213 4.25561323 -1 4 C-0.67 2.68 -0.34 1.36 0 0 Z " fill="#383E4A" transform="translate(177,160)"/>
<path d="M0 0 C10.38324014 -0.14809693 20.64523146 0.29798179 31 1 C31 1.33 31 1.66 31 2 C15.16 2.495 15.16 2.495 -1 3 C-0.67 2.01 -0.34 1.02 0 0 Z " fill="#1B1D28" transform="translate(236,197)"/>
<path d="M0 0 C0.33 0 0.66 0 1 0 C2.50008357 12.0237468 1.6814397 23.94268937 1 36 C0.67 36 0.34 36 0 36 C-0.16724111 31.03396287 -0.32783783 26.06777322 -0.48217773 21.10131836 C-0.53567115 19.41050377 -0.59100598 17.71974642 -0.64819336 16.02905273 C-0.72990041 13.60412953 -0.80506395 11.17908006 -0.87890625 8.75390625 C-0.90594131 7.99348526 -0.93297638 7.23306427 -0.96083069 6.44960022 C-1.01291299 4.63376666 -1.01186585 2.81654157 -1 1 C-0.67 0.67 -0.34 0.34 0 0 Z " fill="#151724" transform="translate(360,279)"/>
<path d="M0 0 C1.20970459 0.00523682 2.41940918 0.01047363 3.66577148 0.01586914 C4.97094727 0.0190918 6.27612305 0.02231445 7.62084961 0.02563477 C9.00952213 0.03399138 10.39819401 0.04245634 11.78686523 0.05102539 C13.17944179 0.05603873 14.57202005 0.06060193 15.96459961 0.06469727 C19.38456394 0.07653105 22.80444367 0.09301659 26.22436523 0.11352539 C26.22436523 0.44352539 26.22436523 0.77352539 26.22436523 1.11352539 C12.85936523 1.60852539 12.85936523 1.60852539 -0.77563477 2.11352539 C-1.10563477 2.77352539 -1.43563477 3.43352539 -1.77563477 4.11352539 C2.51436523 4.11352539 6.80436523 4.11352539 11.22436523 4.11352539 C11.22436523 4.44352539 11.22436523 4.77352539 11.22436523 5.11352539 C6.60436523 5.11352539 1.98436523 5.11352539 -2.77563477 5.11352539 C-3.10563477 3.79352539 -3.43563477 2.47352539 -3.77563477 1.11352539 C-2.77563477 0.11352539 -2.77563477 0.11352539 0 0 Z " fill="#7F6039" transform="translate(121.775634765625,173.886474609375)"/>
<path d="M0 0 C0.66 0.33 1.32 0.66 2 1 C1.01 1.66 0.02 2.32 -1 3 C-1.21462891 3.99773437 -1.21462891 3.99773437 -1.43359375 5.015625 C-2 7 -2 7 -3.84765625 8.046875 C-4.94400391 8.39492187 -4.94400391 8.39492187 -6.0625 8.75 C-7.16271484 9.11351562 -7.16271484 9.11351562 -8.28515625 9.484375 C-9.13400391 9.73960937 -9.13400391 9.73960937 -10 10 C-10.33 9.01 -10.66 8.02 -11 7 C-7.71103088 3.18479582 -4.67184669 1.64379791 0 0 Z " fill="#2B2C33" transform="translate(213,202)"/>
<path d="M0 0 C3.3 0.33 6.6 0.66 10 1 C9.34 2.32 8.68 3.64 8 5 C9.65 5 11.3 5 13 5 C13 5.33 13 5.66 13 6 C7.78020872 6.1799928 3.92737019 5.97094808 -1 4 C-0.67 2.68 -0.34 1.36 0 0 Z " fill="#323743" transform="translate(330,187)"/>
<path d="M0 0 C3.3 0.99 6.6 1.98 10 3 C9.67 4.65 9.34 6.3 9 8 C7.53932801 7.54917531 6.08151968 7.08906463 4.625 6.625 C3.81289062 6.36976563 3.00078125 6.11453125 2.1640625 5.8515625 C0 5 0 5 -2 3 C-1.34 3 -0.68 3 0 3 C0 2.01 0 1.02 0 0 Z " fill="#31333B" transform="translate(211,401)"/>
<path d="M0 0 C2.97 1.98 2.97 1.98 6 4 C5.67 4.66 5.34 5.32 5 6 C7.52475462 7.26237731 9.31200466 7.09856404 12.125 7.0625 C13.03507812 7.05347656 13.94515625 7.04445312 14.8828125 7.03515625 C15.58148438 7.02355469 16.28015625 7.01195312 17 7 C14.53003576 9.46996424 13.66102667 9.32331778 10.25 9.375 C5.24063335 9.30240048 2.79153063 8.1928679 -1 5 C-0.67 3.35 -0.34 1.7 0 0 Z " fill="#30343E" transform="translate(289,161)"/>
<path d="M0 0 C-1.485 1.485 -1.485 1.485 -3 3 C-2.34 3.66 -1.68 4.32 -1 5 C-4.96 5.99 -8.92 6.98 -13 8 C-12.67 7.34 -12.34 6.68 -12 6 C-11.01 6 -10.02 6 -9 6 C-9.33 4.68 -9.66 3.36 -10 2 C-8.71211992 1.46987262 -7.41953322 0.9511671 -6.125 0.4375 C-5.40570313 0.14746094 -4.68640625 -0.14257812 -3.9453125 -0.44140625 C-2 -1 -2 -1 0 0 Z " fill="#3D3F41" transform="translate(295,404)"/>
<path d="M0 0 C0 1.32 0 2.64 0 4 C-1.77049689 4.05410687 -3.54146849 4.09284119 -5.3125 4.125 C-6.79169922 4.15980469 -6.79169922 4.15980469 -8.30078125 4.1953125 C-11 4 -11 4 -14 2 C-12.4176994 1.66179834 -10.83410625 1.32964061 -9.25 1 C-8.36828125 0.814375 -7.4865625 0.62875 -6.578125 0.4375 C-4 0 -4 0 0 0 Z " fill="#E1AA58" transform="translate(156,195)"/>
<path d="M0 0 C1.8871875 0.0309375 1.8871875 0.0309375 3.8125 0.0625 C4.1425 1.3825 4.4725 2.7025 4.8125 4.0625 C0.8525 4.0625 -3.1075 4.0625 -7.1875 4.0625 C-7.1875 3.0725 -7.1875 2.0825 -7.1875 1.0625 C-4.43671116 0.14557039 -2.82801087 -0.04636083 0 0 Z " fill="#1C1E28" transform="translate(214.1875,135.9375)"/>
<path d="M0 0 C0 0.99 0 1.98 0 3 C-3.52994613 4.17664871 -6.29455413 4.19850603 -10 4 C-10.99 3.34 -11.98 2.68 -13 2 C-10.43383918 -0.56616082 -3.46232247 0 0 0 Z " fill="#1C1E28" transform="translate(306,165)"/>
<path d="M0 0 C0 0.66 0 1.32 0 2 C-3.9813783 3.3271261 -7.85045227 3.06915913 -12 3 C-11.67 2.01 -11.34 1.02 -11 0 C-6.98195309 -0.84098656 -3.98196457 -1.05404945 0 0 Z " fill="#1D1F29" transform="translate(221,166)"/>
<path d="M0 0 C0.33 0.66 0.66 1.32 1 2 C1.66 2 2.32 2 3 2 C3 2.99 3 3.98 3 5 C3.66 5 4.32 5 5 5 C5 7.64 5 10.28 5 13 C4.67 13 4.34 13 4 13 C3.67 11.35 3.34 9.7 3 8 C2.67 10.31 2.34 12.62 2 15 C1.67 15 1.34 15 1 15 C0.67 10.05 0.34 5.1 0 0 Z " fill="#2B2D36" transform="translate(357,272)"/>
<path d="M0 0 C0 2.64 0 5.28 0 8 C-0.66 7.34 -1.32 6.68 -2 6 C-2.12375 6.78375 -2.2475 7.5675 -2.375 8.375 C-3 11 -3 11 -5 13 C-5.152 3.88 -5.152 3.88 -4 1 C-2 0 -2 0 0 0 Z " fill="#2D303A" transform="translate(155,272)"/>
<path d="M0 0 C0 0.99 0 1.98 0 3 C-3.96 3 -7.92 3 -12 3 C-12 2.01 -12 1.02 -12 0 C-7.74302431 -1.4189919 -4.28156357 -1.26861143 0 0 Z " fill="#1A1C26" transform="translate(305,137)"/>
<path d="M0 0 C0.66 0.33 1.32 0.66 2 1 C-1.96 4.96 -5.92 8.92 -10 13 C-10.66 12.67 -11.32 12.34 -12 12 C-8.32167983 7.47384007 -4.58913637 3.60575001 0 0 Z " fill="#3F3732" transform="translate(193,125)"/>
<path d="M0 0 C1.32 0.33 2.64 0.66 4 1 C4 1.66 4 2.32 4 3 C7.3 3 10.6 3 14 3 C12 5 12 5 9.6875 5.23046875 C8.800625 5.21628906 7.91375 5.20210937 7 5.1875 C5.6696875 5.17783203 5.6696875 5.17783203 4.3125 5.16796875 C2 5 2 5 0 4 C0 2.68 0 1.36 0 0 Z " fill="#2E333E" transform="translate(206,165)"/>
<path d="M0 0 C0.86625 0.3403125 0.86625 0.3403125 1.75 0.6875 C0.76 1.1825 0.76 1.1825 -0.25 1.6875 C-1.38350534 3.70419827 -1.38350534 3.70419827 -2.25 5.6875 C-3.9 5.6875 -5.55 5.6875 -7.25 5.6875 C-5.99519591 1.92308774 -4.25905546 -0.59153548 0 0 Z " fill="#282A33" transform="translate(218.25,201.3125)"/>
<path d="M0 0 C2.625 0.375 2.625 0.375 5 1 C4.01 2.32 3.02 3.64 2 5 C-0.64 4.34 -3.28 3.68 -6 3 C-4.68 2.67 -3.36 2.34 -2 2 C-1.34 1.34 -0.68 0.68 0 0 Z " fill="#464746" transform="translate(301,204)"/>
<path d="M0 0 C0.66 0.33 1.32 0.66 2 1 C1.67 3.31 1.34 5.62 1 8 C0.01 8.33 -0.98 8.66 -2 9 C-1.34 6.03 -0.68 3.06 0 0 Z " fill="#1C1E29" transform="translate(357,330)"/>
<path d="M0 0 C2.97 0.495 2.97 0.495 6 1 C6.33 2.32 6.66 3.64 7 5 C4.03 4.505 4.03 4.505 1 4 C0.67 2.68 0.34 1.36 0 0 Z " fill="#1E202A" transform="translate(219,405)"/>
<path d="M0 0 C0.99 0 1.98 0 3 0 C2.67 2.31 2.34 4.62 2 7 C1.34 6.67 0.68 6.34 0 6 C0 4.02 0 2.04 0 0 Z " fill="#1D1F2A" transform="translate(196,150)"/>
<path d="M0 0 C0.99 0.66 1.98 1.32 3 2 C2.67 2.66 2.34 3.32 2 4 C0.02 4 -1.96 4 -4 4 C-3.67 3.01 -3.34 2.02 -3 1 C-2.01 0.67 -1.02 0.34 0 0 Z " fill="#20222D" transform="translate(294,404)"/>
<path d="M0 0 C0.66 0.33 1.32 0.66 2 1 C1.01 1.66 0.02 2.32 -1 3 C-1.72382467 5.05925139 -1.72382467 5.05925139 -2 7 C-2.66 6.67 -3.32 6.34 -4 6 C-4.625 3.9375 -4.625 3.9375 -5 2 C-2.625 0.9375 -2.625 0.9375 0 0 Z " fill="#3B3E46" transform="translate(213,202)"/>
</svg>
