<?xml version="1.0" encoding="UTF-8"?>
<svg version="1.1" xmlns="http://www.w3.org/2000/svg" width="691" height="164">
<path d="M0 0 C7.36015907 0.54336745 12.1305252 4.63304738 16.875 10 C27.5544682 22.97971908 32.11990325 36.20401025 30.875 53 C30.545 54.32 30.215 55.64 29.875 57 C41.755 57 53.635 57 65.875 57 C65.545 55.68 65.215 54.36 64.875 53 C63.63009675 36.20401025 68.1955318 22.97971908 78.875 10 C83.6194748 4.63304738 88.38984093 0.54336745 95.75 0 C99.79292019 0.39681578 100.6976213 0.83771736 103.8125 3.6875 C104.8828125 5.640625 104.8828125 5.640625 105.875 8 C106.26429688 8.92296875 106.65359375 9.8459375 107.0546875 10.796875 C110.23146558 19.60421838 110.30059782 27.79053617 109.875 37 C110.97787354 36.98428955 110.97787354 36.98428955 112.10302734 36.96826172 C115.48531576 36.92628202 118.86754907 36.9005417 122.25 36.875 C123.40628906 36.85824219 124.56257812 36.84148438 125.75390625 36.82421875 C132.64321727 36.78529609 139.22520534 37.04587002 145.875 39 C146.205 39.33 146.535 39.66 146.875 40 C146.78468426 42.35694954 146.62811872 44.71153582 146.4375 47.0625 C146.33566406 48.35285156 146.23382813 49.64320312 146.12890625 50.97265625 C146.04511719 51.97167969 145.96132813 52.97070312 145.875 54 C142.38976299 55.08467221 139.24106278 55.07205579 135.60546875 54.9921875 C133.77725586 54.96705078 133.77725586 54.96705078 131.91210938 54.94140625 C129.3572711 54.89733497 126.80255676 54.84532392 124.24804688 54.78515625 C115.13629639 54.64801005 115.13629639 54.64801005 106.875 58 C104.36945807 61.17368645 103.44323846 64.02233079 102.875 68 C106.93492894 68.46490331 106.93492894 68.46490331 109.1875 65.75 C110.5178125 64.38875 110.5178125 64.38875 111.875 63 C118.26503306 58.20788507 124.08583468 58.43076302 131.88671875 58.50390625 C133.13250198 58.50245102 134.37828522 58.50099579 135.66181946 58.49949646 C138.95669615 58.50157471 142.25079803 58.52255121 145.54553223 58.55047607 C147.56542775 58.56251745 149.58482179 58.56085378 151.60473633 58.55395508 C155.49062966 58.54138091 159.37584987 58.55001802 163.26171875 58.56640625 C165.0680201 58.56200279 165.0680201 58.56200279 166.91081238 58.55751038 C168.58824272 58.57653664 168.58824272 58.57653664 170.29956055 58.59594727 C171.28216354 58.60135025 172.26476654 58.60675323 173.27714539 58.61231995 C176.29820898 59.06315584 177.56287736 60.06730006 179.875 62 C180.865 62.33 181.855 62.66 182.875 63 C182.875 63.66 182.875 64.32 182.875 65 C183.47913727 65.24032959 184.08327454 65.48065918 184.70571899 65.72827148 C188.87093136 68.17010328 190.3403937 72.5854624 191.875 77 C192.54013503 81.16186733 192.57784986 85.2288589 192.5390625 89.4375 C192.54384613 90.59822021 192.54862976 91.75894043 192.55355835 92.95483398 C192.55694273 95.39535894 192.54784361 97.83593014 192.52685547 100.27636719 C192.50007233 103.98997072 192.52665697 107.70055183 192.55859375 111.4140625 C192.5552894 113.7968816 192.54888264 116.17969884 192.5390625 118.5625 C192.54918365 119.66070068 192.55930481 120.75890137 192.56973267 121.89038086 C192.44857857 129.94708952 190.73966911 137.13533089 184.875 143 C185.865 143.66 186.855 144.32 187.875 145 C187.875 146.32 187.875 147.64 187.875 149 C107.685 149 27.495 149 -55.125 149 C-55.125 148.34 -55.125 147.68 -55.125 147 C-57.14604705 147.14284092 -59.16682977 147.28942383 -61.1875 147.4375 C-62.31285156 147.51871094 -63.43820313 147.59992188 -64.59765625 147.68359375 C-66.90645228 147.89069505 -69.21012859 148.17080728 -71.5 148.53125 C-75.72184168 149.0771778 -79.81307979 149.10983716 -84.0625 149.0625 C-84.84173828 149.05798828 -85.62097656 149.05347656 -86.42382812 149.04882812 C-88.32425268 149.03716908 -90.22463706 149.01923877 -92.125 149 C-91.795 147.35 -91.465 145.7 -91.125 144 C-87.06382623 143.34564673 -83.00085624 142.70314918 -78.9375 142.0625 C-77.24077148 141.78889648 -77.24077148 141.78889648 -75.50976562 141.50976562 C-67.72679385 140.29021164 -59.9874798 139.48758934 -52.125 139 C-51.465 136.03 -50.805 133.06 -50.125 130 C-51.66039429 129.96241577 -51.66039429 129.96241577 -53.22680664 129.92407227 C-57.04934742 129.82941206 -60.8717311 129.72933805 -64.6940918 129.62768555 C-66.34379381 129.58455714 -67.99353415 129.54286799 -69.64331055 129.50268555 C-72.02404289 129.44444353 -74.40458627 129.38090903 -76.78515625 129.31640625 C-77.51460953 129.29969376 -78.24406281 129.28298126 -78.99562073 129.26576233 C-83.44661142 129.13897527 -87.72801373 128.70886583 -92.125 128 C-92.125 126.35 -92.125 124.7 -92.125 123 C-89.81679492 121.84589746 -88.51715724 121.8789703 -85.95068359 121.88647461 C-84.65957169 121.88658791 -84.65957169 121.88658791 -83.34237671 121.88670349 C-82.41212677 121.89186478 -81.48187683 121.89702606 -80.5234375 121.90234375 C-79.57183746 121.9037587 -78.62023743 121.90517365 -77.63980103 121.90663147 C-74.59316903 121.91223988 -71.54660987 121.92479381 -68.5 121.9375 C-66.43750106 121.94251392 -64.37500097 121.94707701 -62.3125 121.95117188 C-57.24997183 121.96221204 -52.18749827 121.97948233 -47.125 122 C-46.135 119.36 -45.145 116.72 -44.125 114 C-44.73013428 113.94956543 -45.33526855 113.89913086 -45.95874023 113.84716797 C-52.12527072 113.28824641 -58.1225391 112.35966958 -64.1875 111.125 C-65.02087891 110.96386719 -65.85425781 110.80273438 -66.71289062 110.63671875 C-72.34981184 109.5049478 -77.71499695 107.94280526 -83.125 106 C-83.125 104.35 -83.125 102.7 -83.125 101 C-77.78173512 100.82832884 -73.00654935 101.43524944 -67.78515625 102.53125 C-67.01819931 102.68662231 -66.25124237 102.84199463 -65.46104431 103.0020752 C-63.03517971 103.49502353 -60.61137013 103.99734635 -58.1875 104.5 C-56.53333039 104.83786329 -54.87903453 105.17510906 -53.22460938 105.51171875 C-49.18991134 106.33401315 -45.15702777 107.16471491 -41.125 108 C-40.95049316 107.41919678 -40.77598633 106.83839355 -40.59619141 106.23999023 C-35.09366684 88.73474568 -21.29165598 74.50335913 -5.28515625 66.1015625 C-4.57230469 65.73804687 -3.85945313 65.37453125 -3.125 65 C-3.58390625 64.40574219 -4.0428125 63.81148437 -4.515625 63.19921875 C-14.42917752 49.80759213 -15.54608443 37.32900803 -14.125 21 C-13.43678528 16.39762776 -12.07886391 12.22474548 -10.125 8 C-9.79757813 7.23042969 -9.47015625 6.46085937 -9.1328125 5.66796875 C-6.91335932 1.56117036 -4.42260689 0.43408233 0 0 Z " fill="#7B899C" transform="translate(141.125,15)"/>
<path d="M0 0 C7.36015907 0.54336745 12.1305252 4.63304738 16.875 10 C27.5544682 22.97971908 32.11990325 36.20401025 30.875 53 C30.545 54.32 30.215 55.64 29.875 57 C41.755 57 53.635 57 65.875 57 C65.545 55.68 65.215 54.36 64.875 53 C63.63009675 36.20401025 68.1955318 22.97971908 78.875 10 C83.6194748 4.63304738 88.38984093 0.54336745 95.75 0 C99.79292019 0.39681578 100.6976213 0.83771736 103.8125 3.6875 C104.8828125 5.640625 104.8828125 5.640625 105.875 8 C106.26429688 8.92296875 106.65359375 9.8459375 107.0546875 10.796875 C110.23146558 19.60421838 110.30059782 27.79053617 109.875 37 C103.25 39 103.25 39 99.875 39 C99.8248877 38.43603516 99.77477539 37.87207031 99.72314453 37.29101562 C99.48859122 34.69337763 99.24435554 32.09673353 99 29.5 C98.92136719 28.613125 98.84273437 27.72625 98.76171875 26.8125 C98.24049046 21.35965019 97.34273508 16.27891271 95.875 11 C88.12001748 13.53554211 82.82839064 21.11817184 78.875 28 C75.44665374 35.45582099 75.67470176 41.69953516 76.08007812 49.77929688 C76.26885627 56.40494924 75.21223381 61.23141296 71.875 67 C70.31043869 68.56456131 68.76149369 68.15816242 66.58642578 68.19287109 C65.21963181 68.21696548 65.21963181 68.21696548 63.82522583 68.24154663 C59.65383489 68.28581722 55.48260581 68.32705719 51.31103516 68.35009766 C49.10715182 68.3666731 46.90332258 68.39398376 44.69970703 68.43212891 C41.53129028 68.48673222 38.36413557 68.5087459 35.1953125 68.5234375 C33.71395309 68.55744156 33.71395309 68.55744156 32.20266724 68.59213257 C29.66145612 68.58423879 27.35790303 68.54154081 24.875 68 C22.8046875 65.60107422 22.8046875 65.60107422 21.875 63 C21.28332031 61.94039062 21.28332031 61.94039062 20.6796875 60.859375 C19.17664683 55.51847321 19.88292581 49.86820465 20.12890625 44.3671875 C20.38569788 33.34025293 15.72075262 25.42883291 8.875 17 C6.63541877 14.72881177 4.44670768 12.91617435 1.875 11 C1.215 11 0.555 11 -0.125 11 C-3.50616872 23.51837467 -6.26572927 38.82566773 -0.41015625 51.01953125 C1.63400112 54.16964611 4.10282497 56.47424053 6.875 59 C7.87996852 62.01490557 7.97835303 64.04181692 7.9375 67.1875 C7.92847656 68.08855469 7.91945313 68.98960938 7.91015625 69.91796875 C7.89855469 70.60503906 7.88695312 71.29210937 7.875 72 C7.00359375 72.31710938 6.1321875 72.63421875 5.234375 72.9609375 C-12.59029393 79.94419524 -22.70567209 92.0200803 -31.125 109 C-31.62 110.485 -31.62 110.485 -32.125 112 C-30.98611328 112.07347656 -30.98611328 112.07347656 -29.82421875 112.1484375 C-28.83035156 112.22320312 -27.83648437 112.29796875 -26.8125 112.375 C-25.82636719 112.44460937 -24.84023437 112.51421875 -23.82421875 112.5859375 C-21.125 113 -21.125 113 -18.125 115 C-18.125 116.32 -18.125 117.64 -18.125 119 C-19.25679688 118.9278125 -20.38859375 118.855625 -21.5546875 118.78125 C-23.03645626 118.68746717 -24.5182272 118.59371896 -26 118.5 C-26.74636719 118.45230469 -27.49273437 118.40460938 -28.26171875 118.35546875 C-32.19028636 118.09504139 -32.19028636 118.09504139 -36.125 118 C-36.455 120.31 -36.785 122.62 -37.125 125 C-32.835 125 -28.545 125 -24.125 125 C-24.125 126.32 -24.125 127.64 -24.125 129 C-29.075 129 -34.025 129 -39.125 129 C-39.785 131.64 -40.445 134.28 -41.125 137 C-36.505 136.67 -31.885 136.34 -27.125 136 C-26.795 137.32 -26.465 138.64 -26.125 140 C-27.89402988 141.76902988 -30.47610253 141.66755956 -32.875 142.0625 C-34.44507812 142.32740234 -34.44507812 142.32740234 -36.046875 142.59765625 C-38.78892252 142.95607109 -41.36532952 143.07665751 -44.125 143 C-44.62 145.97 -44.62 145.97 -45.125 149 C-48.425 149 -51.725 149 -55.125 149 C-55.125 148.34 -55.125 147.68 -55.125 147 C-57.14604705 147.14284092 -59.16682977 147.28942383 -61.1875 147.4375 C-62.31285156 147.51871094 -63.43820313 147.59992188 -64.59765625 147.68359375 C-66.90645228 147.89069505 -69.21012859 148.17080728 -71.5 148.53125 C-75.72184168 149.0771778 -79.81307979 149.10983716 -84.0625 149.0625 C-84.84173828 149.05798828 -85.62097656 149.05347656 -86.42382812 149.04882812 C-88.32425268 149.03716908 -90.22463706 149.01923877 -92.125 149 C-91.795 147.35 -91.465 145.7 -91.125 144 C-87.06382623 143.34564673 -83.00085624 142.70314918 -78.9375 142.0625 C-77.24077148 141.78889648 -77.24077148 141.78889648 -75.50976562 141.50976562 C-67.72679385 140.29021164 -59.9874798 139.48758934 -52.125 139 C-51.465 136.03 -50.805 133.06 -50.125 130 C-51.66039429 129.96241577 -51.66039429 129.96241577 -53.22680664 129.92407227 C-57.04934742 129.82941206 -60.8717311 129.72933805 -64.6940918 129.62768555 C-66.34379381 129.58455714 -67.99353415 129.54286799 -69.64331055 129.50268555 C-72.02404289 129.44444353 -74.40458627 129.38090903 -76.78515625 129.31640625 C-77.51460953 129.29969376 -78.24406281 129.28298126 -78.99562073 129.26576233 C-83.44661142 129.13897527 -87.72801373 128.70886583 -92.125 128 C-92.125 126.35 -92.125 124.7 -92.125 123 C-89.81679492 121.84589746 -88.51715724 121.8789703 -85.95068359 121.88647461 C-84.65957169 121.88658791 -84.65957169 121.88658791 -83.34237671 121.88670349 C-82.41212677 121.89186478 -81.48187683 121.89702606 -80.5234375 121.90234375 C-79.57183746 121.9037587 -78.62023743 121.90517365 -77.63980103 121.90663147 C-74.59316903 121.91223988 -71.54660987 121.92479381 -68.5 121.9375 C-66.43750106 121.94251392 -64.37500097 121.94707701 -62.3125 121.95117188 C-57.24997183 121.96221204 -52.18749827 121.97948233 -47.125 122 C-46.135 119.36 -45.145 116.72 -44.125 114 C-44.73013428 113.94956543 -45.33526855 113.89913086 -45.95874023 113.84716797 C-52.12527072 113.28824641 -58.1225391 112.35966958 -64.1875 111.125 C-65.02087891 110.96386719 -65.85425781 110.80273438 -66.71289062 110.63671875 C-72.34981184 109.5049478 -77.71499695 107.94280526 -83.125 106 C-83.125 104.35 -83.125 102.7 -83.125 101 C-77.78173512 100.82832884 -73.00654935 101.43524944 -67.78515625 102.53125 C-67.01819931 102.68662231 -66.25124237 102.84199463 -65.46104431 103.0020752 C-63.03517971 103.49502353 -60.61137013 103.99734635 -58.1875 104.5 C-56.53333039 104.83786329 -54.87903453 105.17510906 -53.22460938 105.51171875 C-49.18991134 106.33401315 -45.15702777 107.16471491 -41.125 108 C-40.95049316 107.41919678 -40.77598633 106.83839355 -40.59619141 106.23999023 C-35.09366684 88.73474568 -21.29165598 74.50335913 -5.28515625 66.1015625 C-4.57230469 65.73804687 -3.85945313 65.37453125 -3.125 65 C-3.58390625 64.40574219 -4.0428125 63.81148437 -4.515625 63.19921875 C-14.42917752 49.80759213 -15.54608443 37.32900803 -14.125 21 C-13.43678528 16.39762776 -12.07886391 12.22474548 -10.125 8 C-9.79757813 7.23042969 -9.47015625 6.46085937 -9.1328125 5.66796875 C-6.91335932 1.56117036 -4.42260689 0.43408233 0 0 Z " fill="#20222C" transform="translate(141.125,15)"/>
<path d="M0 0 C1.17691406 -0.01224609 2.35382813 -0.02449219 3.56640625 -0.03710938 C10.46669891 -0.04862266 17.08983682 0.23367164 23.75 2.1875 C24.245 2.6825 24.245 2.6825 24.75 3.1875 C24.65968426 5.54444954 24.50311872 7.89903582 24.3125 10.25 C24.21066406 11.54035156 24.10882813 12.83070312 24.00390625 14.16015625 C23.87822266 15.65869141 23.87822266 15.65869141 23.75 17.1875 C20.26476299 18.27217221 17.11606278 18.25955579 13.48046875 18.1796875 C12.26166016 18.16292969 11.04285156 18.14617187 9.78710938 18.12890625 C7.2322711 18.08483497 4.67755676 18.03282392 2.12304688 17.97265625 C-6.98810836 17.83668905 -6.98810836 17.83668905 -15.25 21.1875 C-20.67397533 28.10774439 -20.58765729 35.90996395 -20.5625 44.3125 C-20.57861328 45.39660156 -20.59472656 46.48070312 -20.61132812 47.59765625 C-20.61197266 48.64050781 -20.61261719 49.68335938 -20.61328125 50.7578125 C-20.61626221 51.70414551 -20.61924316 52.65047852 -20.62231445 53.62548828 C-20.18762784 56.61670224 -19.15722211 57.89765426 -17.25 60.1875 C-16.8680936 62.5070789 -16.81328724 64.71887772 -16.75390625 67.06640625 C-16.40756516 69.31813452 -16.40756516 69.31813452 -14.57421875 70.94140625 C-9.58730396 73.61506309 -3.03338488 72.92577587 2.3125 71.5078125 C4.15765343 70.81587996 5.96075279 70.01330641 7.75 69.1875 C8.85208912 63.16002496 8.10697641 59.11537897 4.62866211 53.98120117 C2.71798862 51.34272294 0.74888515 48.7600724 -1.25 46.1875 C-1.91 45.1975 -2.57 44.2075 -3.25 43.1875 C-1.61936066 40.76254455 -0.73478614 39.63576467 1.75 38.1875 C6.19695278 37.54373178 10.58094712 37.71830235 15.0625 37.875 C16.28001953 37.89755859 17.49753906 37.92011719 18.75195312 37.94335938 C21.75255482 38.0021947 24.75064797 38.0843586 27.75 38.1875 C27.85875887 54.88616964 27.84838815 71.51553694 26.75 88.1875 C22.13 88.1875 17.51 88.1875 12.75 88.1875 C12.255 84.2275 12.255 84.2275 11.75 80.1875 C11.24210937 80.58582031 10.73421875 80.98414063 10.2109375 81.39453125 C0.25732803 89.05545539 -7.73050703 90.99178258 -20.25 90.1875 C-26.87907053 89.00101611 -31.04143579 85.28742231 -35.25 80.1875 C-36.27304948 78.53488161 -37.27616054 76.86958635 -38.25 75.1875 C-39.136875 74.465625 -40.02375 73.74375 -40.9375 73 C-43.96547269 69.31733052 -43.70129649 66.92120871 -43.5234375 62.296875 C-43.25 60.1875 -43.25 60.1875 -42.25 59.1875 C-42.11573336 57.3298615 -42.04635763 55.46746934 -42.00390625 53.60546875 C-41.97103516 52.44466797 -41.93816406 51.28386719 -41.90429688 50.08789062 C-41.84416301 47.65566757 -41.78676887 45.22337487 -41.73242188 42.79101562 C-41.03751475 18.88883287 -41.03751475 18.88883287 -32.875 9.4375 C-22.53695632 0.5763197 -13.13370015 0.0070993 0 0 Z " fill="#E8EAED" transform="translate(263.25,51.8125)"/>
<path d="M0 0 C1.24436829 -0.00004028 2.48873657 -0.00008057 3.77081299 -0.00012207 C7.05764642 0.00658333 10.34325117 0.03649174 13.62982178 0.07556152 C15.64516399 0.09379106 17.65987802 0.09631236 19.67529297 0.09277344 C23.55464617 0.08613152 27.43322482 0.10119188 31.3125 0.125 C32.51356384 0.12520142 33.71462769 0.12540283 34.9520874 0.12561035 C36.06714661 0.14152222 37.18220581 0.15743408 38.33105469 0.17382812 C39.80043488 0.18645691 39.80043488 0.18645691 41.29949951 0.19934082 C44.31170602 0.65784501 45.58276311 1.66689546 47.890625 3.59375 C48.880625 3.92375 49.870625 4.25375 50.890625 4.59375 C50.890625 5.25375 50.890625 5.91375 50.890625 6.59375 C51.49430908 6.83689941 52.09799316 7.08004883 52.7199707 7.33056641 C56.94050567 9.78665098 58.43535234 14.09433556 59.890625 18.59375 C60.45562857 23.49322743 60.36790949 28.29549648 60.203125 33.21875 C60.18056641 34.50910156 60.15800781 35.79945312 60.13476562 37.12890625 C60.07631773 40.2850924 59.99442775 43.43878505 59.890625 46.59375 C57.015625 46.71875 57.015625 46.71875 53.890625 46.59375 C53.230625 45.93375 52.570625 45.27375 51.890625 44.59375 C51.560625 51.85375 51.230625 59.11375 50.890625 66.59375 C44.620625 66.59375 38.350625 66.59375 31.890625 66.59375 C31.560625 54.38375 31.230625 42.17375 30.890625 29.59375 C26.98295055 34.85678301 26.98295055 34.85678301 23.08227539 40.125 C22.59750732 40.7746875 22.11273926 41.424375 21.61328125 42.09375 C21.11578369 42.7640625 20.61828613 43.434375 20.10571289 44.125 C19.50424438 44.85203125 19.50424438 44.85203125 18.890625 45.59375 C18.560625 45.59375 18.230625 45.59375 17.890625 45.59375 C17.890625 36.02375 17.890625 26.45375 17.890625 16.59375 C11.579375 16.7175 11.579375 16.7175 5.140625 16.84375 C3.1591748 16.86743652 3.1591748 16.86743652 1.13769531 16.89160156 C0.09194336 16.9222168 -0.95380859 16.95283203 -2.03125 16.984375 C-3.09956055 17.00532227 -4.16787109 17.02626953 -5.26855469 17.04785156 C-8.70982562 17.70913394 -9.9126441 18.93357376 -12.109375 21.59375 C-11.73425781 22.0784375 -11.35914063 22.563125 -10.97265625 23.0625 C-9.32490989 25.2207572 -7.71561038 27.40445495 -6.109375 29.59375 C-5.61050781 30.24085937 -5.11164063 30.88796875 -4.59765625 31.5546875 C-0.82045766 36.85791761 -0.51845623 41.18556419 -1.109375 47.59375 C-7.9931308 51.48759166 -14.23483506 52.68266018 -22.109375 51.59375 C-25.296875 50.15625 -25.296875 50.15625 -27.109375 47.59375 C-27.54193937 45.30493855 -27.7335601 43.14134017 -27.7734375 40.8125 C-27.92760963 38.49584856 -27.92760963 38.49584856 -29.60766602 36.80322266 C-31.49709355 34.02329757 -31.48289593 32.36157419 -31.47265625 29.0234375 C-31.47201172 27.96253906 -31.47136719 26.90164062 -31.47070312 25.80859375 C-31.4465332 24.15537109 -31.4465332 24.15537109 -31.421875 22.46875 C-31.42509766 21.35886719 -31.42832031 20.24898437 -31.43164062 19.10546875 C-31.37640826 10.86078326 -31.37640826 10.86078326 -29.109375 8.59375 C-28.119375 9.25375 -27.129375 9.91375 -26.109375 10.59375 C-25.449375 9.871875 -24.789375 9.15 -24.109375 8.40625 C-16.58167697 1.07246937 -10.4335859 -0.14339156 0 0 Z " fill="#8A7ABD" transform="translate(273.109375,73.40625)"/>
<path d="M0 0 C6.34876678 5.08176777 8.25117338 11.9835663 9.6875 19.6875 C10.83155403 31.67623281 11.65288922 46.09973458 4.4296875 56.37890625 C1.47059387 59.73416268 -1.80743974 61.60247991 -6 63 C-15.10541786 63.50050923 -23.53186999 63.78041518 -32 60 C-32.495 59.505 -32.495 59.505 -33 59 C-33.33 67.58 -33.66 76.16 -34 85 C-40.27 85 -46.54 85 -53 85 C-53 56.62 -53 28.24 -53 -1 C-47.72 -1 -42.44 -1 -37 -1 C-37 1.31 -37 3.62 -37 6 C-36.40574219 5.60167969 -35.81148438 5.20335938 -35.19921875 4.79296875 C-24.39988618 -2.10987057 -12.11079042 -6.19878344 0 0 Z M-34 18 C-35.00683592 22.79693665 -34.75257787 27.43823288 -34.5 32.3125 C-34.46390625 33.62541016 -34.4278125 34.93832031 -34.390625 36.29101562 C-34.29639122 39.53030187 -34.16494088 42.76366962 -34 46 C-27.82150091 48.57280159 -27.82150091 48.57280159 -21.25 49.3125 C-20.53328125 49.30863281 -19.8165625 49.30476563 -19.078125 49.30078125 C-16.63585051 48.94729415 -15.06300608 48.35931121 -13 47 C-8.48526109 39.78989457 -8.88727587 29.16418121 -10.609375 21.171875 C-11.68327988 17.77482894 -12.45767804 15.54232196 -15 13 C-17.39050015 12.5643336 -17.39050015 12.5643336 -20.125 12.5625 C-21.03507812 12.52253906 -21.94515625 12.48257813 -22.8828125 12.44140625 C-27.46960701 13.26335063 -30.99296312 14.27380977 -34 18 Z " fill="#FFFFFF" transform="translate(459,79)"/>
<path d="M0 0 C0.79051758 0.00676758 1.58103516 0.01353516 2.39550781 0.02050781 C12.0393706 0.19165354 18.71048092 1.7899841 26.3125 8.125 C30.8585938 13.64525675 30.68727853 20.4270218 30.0625 27.25 C29.13708891 31.48045071 27.54519568 33.85973541 24.125 36.625 C19.42682003 39.11791182 15.85932434 39.37180375 10.546875 39.34765625 C8.67128906 39.34282227 8.67128906 39.34282227 6.7578125 39.33789062 C4.80488281 39.32532227 4.80488281 39.32532227 2.8125 39.3125 C0.83636719 39.30573242 0.83636719 39.30573242 -1.1796875 39.29882812 C-4.43233741 39.28704316 -7.68489584 39.27059011 -10.9375 39.25 C-10.545625 40.343125 -10.15375 41.43625 -9.75 42.5625 C-9.52957031 43.17738281 -9.30914062 43.79226562 -9.08203125 44.42578125 C-7.42354672 47.06916786 -5.76993347 47.95986214 -2.9375 49.25 C0.44593712 49.66108276 0.44593712 49.66108276 4.11328125 49.54296875 C4.77208786 49.53872391 5.43089447 49.53447906 6.10966492 49.53010559 C8.19853885 49.51341196 10.28642139 49.47578058 12.375 49.4375 C13.79751203 49.42244097 15.2200393 49.40875469 16.64257812 49.39648438 C20.11620351 49.36354003 23.58925487 49.31182408 27.0625 49.25 C28.00027474 53.7312004 28.139975 57.67897493 28.0625 62.25 C26.56529178 62.73781989 25.06452636 63.21472363 23.5625 63.6875 C22.7271875 63.95433594 21.891875 64.22117188 21.03125 64.49609375 C8.44062473 67.6934499 -8.65166072 68.63150835 -20.1875 62 C-26.56400145 57.61377833 -29.63905215 53.19673959 -31.43359375 45.7109375 C-33.23286795 33.35313173 -32.98001274 21.18530278 -27.25 9.9375 C-20.08616355 1.61196034 -10.5199426 -0.13009737 0 0 Z M-8.9375 17.25 C-10.87145001 20.15092502 -11.23881941 21.14674737 -11.5625 24.4375 C-11.68625 25.695625 -11.81 26.95375 -11.9375 28.25 C-8.85434615 28.33733513 -5.77151173 28.39050127 -2.6875 28.4375 C-1.37845703 28.47520508 -1.37845703 28.47520508 -0.04296875 28.51367188 C4.97795324 28.59269366 4.97795324 28.59269366 9.64453125 26.95703125 C11.39225903 25.16479122 11.39225903 25.16479122 11.5 21.75 C11.36208047 18.33953379 11.36208047 18.33953379 9.6875 16.375 C4.20651256 12.58047023 -3.85021827 12.95760604 -8.9375 17.25 Z " fill="#FFFFFF" transform="translate(509.9375,75.75)"/>
<path d="M0 0 C6.6 0 13.2 0 20 0 C20.01981934 1.97838867 20.03963867 3.95677734 20.06005859 5.99511719 C20.12784077 12.53310298 20.204617 19.07093478 20.28752708 25.60874557 C20.33746426 29.57246147 20.38379444 33.53615105 20.421875 37.5 C20.45876052 41.3256299 20.50512918 45.15103826 20.55806351 48.97647858 C20.57659013 50.43566246 20.59170451 51.8948938 20.60334396 53.35414886 C20.62023638 55.39876471 20.64927753 57.4428751 20.68115234 59.48730469 C20.69447601 60.65090515 20.70779968 61.81450562 20.7215271 63.0133667 C20.8456206 66.29498492 20.8456206 66.29498492 23 70 C34.22 70.33 45.44 70.66 57 71 C58.14077657 74.42232972 58.09815117 77.08673217 58.0625 80.6875 C58.05347656 81.86699219 58.04445313 83.04648438 58.03515625 84.26171875 C58.02355469 85.16535156 58.01195312 86.06898438 58 87 C49.43093235 87.86862308 40.89906941 88.21534538 32.28955078 88.24023438 C30.2382115 88.25005644 28.18782981 88.28126728 26.13671875 88.3125 C10.52687807 88.37353555 10.52687807 88.37353555 4.125 82.25 C0.43624403 76.60837322 -0.25041158 71.24209538 -0.22705078 64.59594727 C-0.22748886 63.54102837 -0.22748886 63.54102837 -0.22793579 62.46479797 C-0.22655446 60.16520377 -0.21105057 57.86594309 -0.1953125 55.56640625 C-0.1915781 53.96215492 -0.18873314 52.35790129 -0.18673706 50.75364685 C-0.17913422 46.54999392 -0.15951484 42.34648119 -0.1373291 38.1428833 C-0.11679819 33.84592586 -0.1077199 29.54894557 -0.09765625 25.25195312 C-0.07626548 16.83456419 -0.04111098 8.41731574 0 0 Z " fill="#FFFFFF" transform="translate(339,53)"/>
<path d="M0 0 C0.33 0 0.66 0 1 0 C1 12.54 1 25.08 1 38 C7.27 38 13.54 38 20 38 C20 30.41 20 22.82 20 15 C20.99 15.66 21.98 16.32 23 17 C24.9896995 17.39013716 26.99019869 17.73202649 29 18 C29.14688806 22.12461681 29.23460044 26.24854924 29.3125 30.375 C29.35439453 31.53128906 29.39628906 32.68757813 29.43945312 33.87890625 C29.55041108 41.73472945 28.41787413 47.41918195 24 54 C23.01 54.99 23.01 54.99 22 56 C23.485 56.99 23.485 56.99 25 58 C25 59.32 25 60.64 25 62 C9.49 62 -6.02 62 -22 62 C-22.33 60.02 -22.66 58.04 -23 56 C-23.79664063 55.95101562 -24.59328125 55.90203125 -25.4140625 55.8515625 C-35.93848858 55.10896309 -35.93848858 55.10896309 -41 53 C-40.67 51.68 -40.34 50.36 -40 49 C-35.71 49.33 -31.42 49.66 -27 50 C-27.33 47.36 -27.66 44.72 -28 42 C-32.95 42 -37.9 42 -43 42 C-43 40.68 -43 39.36 -43 38 C-42.07767578 37.51080078 -42.07767578 37.51080078 -41.13671875 37.01171875 C-40.32847656 36.57472656 -39.52023437 36.13773438 -38.6875 35.6875 C-37.88699219 35.25824219 -37.08648437 34.82898438 -36.26171875 34.38671875 C-33.97749619 33.10716154 -33.97749619 33.10716154 -32.33203125 31.33203125 C-31.89246094 30.89246094 -31.45289063 30.45289063 -31 30 C-30.34 30 -29.68 30 -29 30 C-28.67 32.64 -28.34 35.28 -28 38 C-23.38 38 -18.76 38 -14 38 C-14.15082031 36.75347656 -14.30164063 35.50695312 -14.45703125 34.22265625 C-15.44990001 22.14732199 -13.56260436 15.42411597 -5.7121582 6.11938477 C-3.86207033 4.02340076 -1.97684952 1.97684952 0 0 Z " fill="#22272F" transform="translate(304,102)"/>
<path d="M0 0 C-0.66 5.94 -1.32 11.88 -2 18 C-7.37109375 18.68359375 -7.37109375 18.68359375 -12.7421875 19.3671875 C-17.52263123 20.07767547 -22.26089961 21.05217992 -27 22 C-27 35.86 -27 49.72 -27 64 C-33.27 64 -39.54 64 -46 64 C-46 43.54 -46 23.08 -46 2 C-40.72 2 -35.44 2 -30 2 C-29.34 4.31 -28.68 6.62 -28 9 C-27.45472656 8.60167969 -26.90945313 8.20335938 -26.34765625 7.79296875 C-17.56586125 1.62319483 -10.72269023 -0.45307142 0 0 Z " fill="#FFFFFF" transform="translate(597,76)"/>
<path d="M0 0 C6.27 0 12.54 0 19 0 C19 0.66 19 1.32 19 2 C19.60368408 2.24314941 20.20736816 2.48629883 20.8293457 2.73681641 C25.04988067 5.19290098 26.54472734 9.50058556 28 14 C28.56500357 18.89947743 28.47728449 23.70174648 28.3125 28.625 C28.28994141 29.91535156 28.26738281 31.20570312 28.24414062 32.53515625 C28.18569273 35.6913424 28.10380275 38.84503505 28 42 C25.125 42.125 25.125 42.125 22 42 C21.34 41.34 20.68 40.68 20 40 C19.67 47.26 19.34 54.52 19 62 C12.73 62 6.46 62 0 62 C0 41.54 0 21.08 0 0 Z " fill="#E2EAE5" transform="translate(305,78)"/>
<path d="M0 0 C1.21751953 0.02255859 2.43503906 0.04511719 3.68945312 0.06835938 C6.69005482 0.1271947 9.68814797 0.2093586 12.6875 0.3125 C12.79625887 17.01116964 12.78588815 33.64053694 11.6875 50.3125 C7.0675 50.3125 2.4475 50.3125 -2.3125 50.3125 C-2.6425 47.6725 -2.9725 45.0325 -3.3125 42.3125 C-4.6325 42.9725 -5.9525 43.6325 -7.3125 44.3125 C-7.3125 43.3225 -7.3125 42.3325 -7.3125 41.3125 C-8.21613281 41.5290625 -9.11976563 41.745625 -10.05078125 41.96875 C-11.23027344 42.2471875 -12.40976562 42.525625 -13.625 42.8125 C-14.79675781 43.0909375 -15.96851563 43.369375 -17.17578125 43.65625 C-20.3125 44.3125 -20.3125 44.3125 -23.3125 44.3125 C-23.8075 42.8275 -23.8075 42.8275 -24.3125 41.3125 C-21.59143306 38.59143306 -19.46473689 38.70594428 -15.6875 38.1875 C-13.90472656 37.93613281 -13.90472656 37.93613281 -12.0859375 37.6796875 C-11.17070312 37.55851562 -10.25546875 37.43734375 -9.3125 37.3125 C-9.3125 36.3225 -9.3125 35.3325 -9.3125 34.3125 C-10.3025 33.9825 -11.2925 33.6525 -12.3125 33.3125 C-10.6625 32.6525 -9.0125 31.9925 -7.3125 31.3125 C-6.21041088 25.28502496 -6.95552359 21.24037897 -10.43383789 16.10620117 C-12.34451138 13.46772294 -14.31361485 10.8850724 -16.3125 8.3125 C-16.9725 7.3225 -17.6325 6.3325 -18.3125 5.3125 C-13.73902417 -1.4888048 -7.56552828 -0.26452896 0 0 Z " fill="#E2E4E4" transform="translate(278.3125,89.6875)"/>
<path d="M0 0 C0.99 0.66 1.98 1.32 3 2 C4.9896995 2.39013716 6.99019869 2.73202649 9 3 C9.14688806 7.12461681 9.23460044 11.24854924 9.3125 15.375 C9.35439453 16.53128906 9.39628906 17.68757813 9.43945312 18.87890625 C9.56113672 27.49410507 8.0992607 34.00465407 2.5559082 40.75976562 C-0.20570384 42.96108199 -3.6585964 42.14439933 -7 41.875 C-7.78294434 41.822229 -8.56588867 41.76945801 -9.37255859 41.71508789 C-18.32732715 41.0326085 -27.16245737 39.55783734 -36 38 C-36.99 34.04 -37.98 30.08 -39 26 C-24.65507373 25.05269355 -10.37370111 24.88005 4 25 C3.505 23.515 3.505 23.515 3 22 C2.01 21.67 1.02 21.34 0 21 C0 14.07 0 7.14 0 0 Z " fill="#1C7C51" transform="translate(324,117)"/>
<path d="M0 0 C11.67302105 6.56201369 22.87127336 17.01861549 29 29 C29.29296875 31.67578125 29.29296875 31.67578125 29.1875 34.3125 C29.16042969 35.19550781 29.13335937 36.07851562 29.10546875 36.98828125 C29.07066406 37.65214844 29.03585937 38.31601563 29 39 C22.1162442 42.89384166 15.87453994 44.08891018 8 43 C4.8125 41.5625 4.8125 41.5625 3 39 C2.56743563 36.71118855 2.3758149 34.54759017 2.3359375 32.21875 C2.18193701 29.90169288 2.18193701 29.90169288 0.49951172 28.20947266 C-1.39127987 25.42346422 -1.36027557 23.77279222 -1.328125 20.4296875 C-1.32296875 19.36878906 -1.3178125 18.30789062 -1.3125 17.21484375 C-1.291875 16.11269531 -1.27125 15.01054688 -1.25 13.875 C-1.24484375 12.76511719 -1.2396875 11.65523437 -1.234375 10.51171875 C-1.15444488 2.30888975 -1.15444488 2.30888975 0 0 Z " fill="#7A879A" transform="translate(243,82)"/>
<path d="M0 0 C4.29160791 -0.05871491 8.58311058 -0.09383483 12.875 -0.125 C14.07898438 -0.14175781 15.28296875 -0.15851562 16.5234375 -0.17578125 C23.5277645 -0.21384824 30.2412089 -0.00568002 37 2 C37.495 2.495 37.495 2.495 38 3 C37.90968426 5.35694954 37.75311872 7.71153582 37.5625 10.0625 C37.46066406 11.35285156 37.35882813 12.64320312 37.25390625 13.97265625 C37.17011719 14.97167969 37.08632813 15.97070312 37 17 C33.51476299 18.08467221 30.36606278 18.07205579 26.73046875 17.9921875 C25.51166016 17.97542969 24.29285156 17.95867187 23.03710938 17.94140625 C20.4822711 17.89733497 17.92755676 17.84532392 15.37304688 17.78515625 C6.26082783 17.64651325 6.26082783 17.64651325 -2 21 C-4.34488914 24.07261336 -5.65839653 27.38799065 -7 31 C-8.32 30.34 -9.64 29.68 -11 29 C-10.39642079 25.64678219 -9.21154466 23.74168519 -7.0625 21.125 C-3.19178703 16.09030175 -2.06524499 11.48580925 -0.953125 5.30078125 C-0.77426758 4.30860596 -0.59541016 3.31643066 -0.41113281 2.29418945 C-0.27545898 1.53710693 -0.13978516 0.78002441 0 0 Z " fill="#FEFEFE" transform="translate(250,52)"/>
<path d="M0 0 C1.28583984 0.03158203 2.57167969 0.06316406 3.89648438 0.09570312 C7.03616056 0.17740474 10.17464526 0.30292897 13.3125 0.4375 C13.3125 5.7175 13.3125 10.9975 13.3125 16.4375 C10.89164062 16.47617188 10.89164062 16.47617188 8.421875 16.515625 C6.30205619 16.57190338 4.18226557 16.62925077 2.0625 16.6875 C0.99902344 16.70167969 -0.06445312 16.71585938 -1.16015625 16.73046875 C-2.18496094 16.76269531 -3.20976562 16.79492188 -4.265625 16.828125 C-5.20825195 16.84907227 -6.15087891 16.87001953 -7.12207031 16.89160156 C-10.35572831 17.57969247 -11.58503013 18.954336 -13.6875 21.4375 C-16.9701932 19.94673566 -19.61827441 18.05129679 -22.4375 15.8125 C-23.23671875 15.18085937 -24.0359375 14.54921875 -24.859375 13.8984375 C-25.46265625 13.41632813 -26.0659375 12.93421875 -26.6875 12.4375 C-26.38904007 9.216287 -26.01074045 7.76344041 -23.69995117 5.43334961 C-15.74732385 0.1026121 -9.41943672 -0.44435912 0 0 Z " fill="#B4A1E9" transform="translate(274.6875,73.5625)"/>
<path d="M0 0 C3.43102764 1.6655474 6.07280273 3.83092519 8.4375 6.8125 C9.64355451 11.50271199 9.71556387 15.46664885 7.6875 19.8125 C5.21886433 23.01258327 3.89329386 24.70223538 0 26 C-4.49524404 26.51350166 -7.91294813 26.63805218 -11.875 24.3125 C-15.6682474 20.1845543 -17.7402436 16.97613347 -17.5625 11.1328125 C-16.44140947 6.88201092 -13.18404355 3.88869109 -10 1 C-6.75648754 -0.62175623 -3.50523382 -0.5684163 0 0 Z " fill="#F0EFE4" transform="translate(149,103)"/>
<path d="M0 0 C0.9075 0.721875 1.815 1.44375 2.75 2.1875 C3.29269531 2.60644531 3.83539063 3.02539062 4.39453125 3.45703125 C6.8945613 6.64871227 6.20487919 10.40841031 6.1015625 14.296875 C5.64429115 18.05666166 4.69311394 19.8011914 1.75 22.1875 C-2.46864028 24.71868417 -7.45979601 25.06555917 -12.25 24.1875 C-15.1875 21.8125 -15.1875 21.8125 -17.25 19.1875 C-17.91 18.5275 -18.57 17.8675 -19.25 17.1875 C-20.13524619 12.09034561 -19.96645009 7.52308091 -17 3.1875 C-12.28321156 -2.41203934 -6.65566696 -3.71181426 0 0 Z " fill="#FBFBF9" transform="translate(239.25,104.8125)"/>
<path d="M0 0 C6.27 0 12.54 0 19 0 C18.67 12.21 18.34 24.42 18 37 C13.61702122 33.34751768 10.87727586 30.82008005 7.6875 26.453125 C5.59788417 24.3994937 5.59788417 24.3994937 0 24 C0 16.08 0 8.16 0 0 Z " fill="#ECEAF3" transform="translate(305,78)"/>
<path d="M0 0 C5.28 0 10.56 0 16 0 C16 10.56 16 21.12 16 32 C11.05 32.495 11.05 32.495 6 33 C3.36 27.72 0.72 22.44 -2 17 C-1.34 17 -0.68 17 0 17 C0 11.39 0 5.78 0 0 Z " fill="#F2EFFA" transform="translate(272,91)"/>
<path d="M0 0 C0.33 0 0.66 0 1 0 C1 12.21 1 24.42 1 37 C-3.62 37 -8.24 37 -13 37 C-13 37.66 -13 38.32 -13 39 C-17.95 39 -22.9 39 -28 39 C-28 38.67 -28 38.34 -28 38 C-23.38 38 -18.76 38 -14 38 C-14.15082031 36.75347656 -14.30164063 35.50695312 -14.45703125 34.22265625 C-15.44990001 22.14732199 -13.56260436 15.42411597 -5.7121582 6.11938477 C-3.86207033 4.02340076 -1.97684952 1.97684952 0 0 Z " fill="#1C7D52" transform="translate(304,102)"/>
<path d="M0 0 C5.81655834 2.38399755 10.17448545 6.34897089 13 12 C13.83928639 17.62003162 13.47623745 22.00170564 10.4375 26.875 C6.82901366 31.62743539 3.52616825 34.46743087 -2.45703125 35.37109375 C-8.14100025 35.65230961 -11.60794283 34.86919322 -16 31 C-20.843548 25.61828001 -22.4813125 21.64992559 -22.3125 14.46484375 C-21.66632243 9.36811813 -18.59483239 6.39676716 -14.875 3.1875 C-9.98662077 -0.53191898 -6.04446373 -0.78648724 0 0 Z M-17 11 C-18.63791891 14.27583783 -18.67071074 17.47415364 -18 21 C-16.00175093 24.57225448 -13.72447563 28.13776219 -10 30 C-4.5836081 30.55334456 -0.41100691 30.50285843 4 27 C7.42743426 24.0621992 7.94017757 21.72983363 8.3125 17.1875 C8.24803379 12.80379803 6.88627274 10.35431697 4 7 C0.6616309 4.21802575 -2.48286131 3.30413647 -6.8671875 3.4375 C-11.11798908 4.55859053 -14.11130891 7.81595645 -17 11 Z " fill="#30333C" transform="translate(150,99)"/>
<path d="M0 0 C-0.9075185 8.76364876 -2.05302586 17.22640112 -8.671875 23.61328125 C-9.11015625 24.07089844 -9.5484375 24.52851562 -10 25 C-9.72963853 27.97397616 -9.14553974 28.85446026 -7 31 C-7.03287583 33.72869407 -7.56397771 36.2966618 -8 39 C-9.41791408 38.54554036 -10.83428046 38.08625056 -12.25 37.625 C-13.43335938 37.24214844 -13.43335938 37.24214844 -14.640625 36.8515625 C-16.86627958 36.04826333 -18.90931672 35.10288338 -21 34 C-21.22647624 28.45133202 -21.32764279 22.88216946 -17.671875 18.35546875 C-16.6262584 17.22799832 -15.57934803 16.10172656 -14.53125 14.9765625 C-11.77766103 11.4221849 -10.44337777 7.21975736 -9 3 C-9.66 2.67 -10.32 2.34 -11 2 C-7.14213034 0.18453193 -4.23294004 -0.09380477 0 0 Z " fill="#E2E2E3" transform="translate(250,53)"/>
<path d="M0 0 C11.67302105 6.56201369 22.87127336 17.01861549 29 29 C29.29296875 31.67578125 29.29296875 31.67578125 29.1875 34.3125 C29.16042969 35.19550781 29.13335937 36.07851562 29.10546875 36.98828125 C29.07066406 37.65214844 29.03585937 38.31601563 29 39 C27.35 39.66 25.7 40.32 24 41 C23.67128906 40.24976563 23.34257812 39.49953125 23.00390625 38.7265625 C18.39373422 28.80657173 12.55917092 21.74565057 3.9375 15.0625 C1.15855659 12.71294194 0.12789388 11.66877841 -0.5625 8.05859375 C-0.5625 5.31224605 -0.40415131 2.71430012 0 0 Z " fill="#252630" transform="translate(243,82)"/>
<path d="M0 0 C4 1 4 1 5.68994141 2.98754883 C10.31314161 10.98155706 10.74322016 17.58113224 10.375 26.6875 C10.34792969 27.97333984 10.32085937 29.25917969 10.29296875 30.58398438 C10.2229209 33.72446302 10.124742 36.8612993 10 40 C7.125 40.125 7.125 40.125 4 40 C3.34 39.34 2.68 38.68 2 38 C1.67 45.26 1.34 52.52 1 60 C0.67 60 0.34 60 0 60 C0 40.2 0 20.4 0 0 Z " fill="#9084BE" transform="translate(323,80)"/>
<path d="M0 0 C2.75541841 -0.27613568 5.25091102 -0.37257625 8 -0.3125 C9.10601562 -0.31733398 9.10601562 -0.31733398 10.234375 -0.32226562 C15.73292051 -0.26707949 15.73292051 -0.26707949 18 2 C18.265625 5.1875 18.265625 5.1875 18.25 9 C18.25515625 10.258125 18.2603125 11.51625 18.265625 12.8125 C18 16 18 16 16 18 C13.2877875 18.22504349 10.71126815 18.32434995 8 18.3125 C7.26265625 18.32861328 6.5253125 18.34472656 5.765625 18.36132812 C3.625 18.36328125 3.625 18.36328125 0 18 C-2.30821663 14.53767506 -2.27000989 13.08201684 -2.25 9 C-2.25515625 7.948125 -2.2603125 6.89625 -2.265625 5.8125 C-2 3 -2 3 0 0 Z " fill="#FFFFFF" transform="translate(306,51)"/>
<path d="M0 0 C1.91015625 1.09765625 1.91015625 1.09765625 4.59765625 3.09765625 C4.25797799 6.26798667 3.59896434 7.09648232 1.16015625 9.28515625 C-3.80040056 12.79384278 -8.42672142 13.00877449 -14.40234375 12.09765625 C-17.18696496 10.46216811 -19.28602693 8.52455881 -21.40234375 6.09765625 C-21.21484375 4.28515625 -21.21484375 4.28515625 -20.40234375 2.09765625 C-14.8258354 -2.34140545 -6.55640509 -2.46264972 0 0 Z " fill="#242731" transform="translate(197.40234375,116.90234375)"/>
<path d="M0 0 C1.99981266 0.33445541 3.9997581 0.6681213 6 1 C6 1.33 6 1.66 6 2 C-15.78 2 -37.56 2 -60 2 C-43.48270586 -6.25864707 -17.62445469 -3.23232971 0 0 Z " fill="#252834" transform="translate(216,162)"/>
<path d="M0 0 C0.33 0 0.66 0 1 0 C1 5.61 1 11.22 1 17 C-8.5 20 -8.5 20 -13 20 C-13 26.27 -13 32.54 -13 39 C-17.95 39 -22.9 39 -28 39 C-28 38.67 -28 38.34 -28 38 C-23.38 38 -18.76 38 -14 38 C-14.15082031 36.75347656 -14.30164063 35.50695312 -14.45703125 34.22265625 C-15.44990001 22.14732199 -13.56260436 15.42411597 -5.7121582 6.11938477 C-3.86207033 4.02340076 -1.97684952 1.97684952 0 0 Z " fill="#30815F" transform="translate(304,102)"/>
<path d="M0 0 C0.66 0 1.32 0 2 0 C2.04241723 2.33294775 2.04092937 4.66702567 2 7 C1.67 7.33 1.34 7.66 1 8 C0.87464348 9.60048202 0.82425213 11.20715928 0.8125 12.8125 C0.79832031 13.68519531 0.78414062 14.55789062 0.76953125 15.45703125 C1.01311189 18.14467521 1.54901656 19.73952053 3 22 C3.66 22.309375 4.32 22.61875 5 22.9375 C7.74986668 24.39836667 8.08833304 26.11305462 9 29 C6.4375 29.0625 6.4375 29.0625 3 28 C-2.6263091 22.14497915 -5.34361322 17.62480849 -5.296875 9.55078125 C-4.81423021 5.40384638 -2.93976717 2.93976717 0 0 Z " fill="#262831" transform="translate(220,104)"/>
<path d="M0 0 C1.9375 1.125 1.9375 1.125 3 3 C3.53852618 6.61581862 3.42236225 8.34111489 1.4375 11.4375 C-1 13 -1 13 -4.625 12.9375 C-8 12 -8 12 -10 9 C-10.32162076 5.9124407 -10.48724515 3.85984439 -8.9375 1.125 C-5.8930714 -0.64273274 -3.4368988 -0.36823916 0 0 Z " fill="#E3E3E4" transform="translate(236,110)"/>
<path d="M0 0 C0 5.94 0 11.88 0 18 C-0.99 18 -1.98 18 -3 18 C-5.0078125 15.6640625 -5.0078125 15.6640625 -7.125 12.625 C-7.82882812 11.62726563 -8.53265625 10.62953125 -9.2578125 9.6015625 C-11 7 -11 7 -12 5 C-7.74983196 -0.15171883 -7.34030186 0 0 0 Z " fill="#FAB34D" transform="translate(272,90)"/>
<path d="M0 0 C2.375 1.125 2.375 1.125 4 3 C4.61833806 6.63273611 4.43339202 8.32390845 2.4375 11.4375 C0 13 0 13 -3.625 12.9375 C-7 12 -7 12 -9 9 C-9.32502803 5.87973093 -9.51151479 3.85252465 -7.875 1.125 C-5.10703881 -0.53577671 -3.16909182 -0.38805206 0 0 Z " fill="#2B2D36" transform="translate(148,110)"/>
<path d="M0 0 C0.33 0 0.66 0 1 0 C1.07347656 0.92232422 1.07347656 0.92232422 1.1484375 1.86328125 C1.22320312 2.67152344 1.29796875 3.47976562 1.375 4.3125 C1.44460937 5.11300781 1.51421875 5.91351563 1.5859375 6.73828125 C1.89564426 9.27224441 1.89564426 9.27224441 4 12 C-0.66547642 18.23772488 -4.35398614 21.28522864 -12.25 22.5 C-13.1575 22.335 -14.065 22.17 -15 22 C-16.671875 19.46875 -16.671875 19.46875 -18 17 C-17.19175781 16.91363281 -16.38351563 16.82726562 -15.55078125 16.73828125 C-10.75094086 16.1071804 -6.95101387 15.59671459 -2.8125 13 C-0.26927035 8.79051644 -0.10353714 4.84742044 0 0 Z " fill="#DCDCDD" transform="translate(245,112)"/>
<path d="M0 0 C6.27 0 12.54 0 19 0 C19.06889888 4.2181424 19.12861776 8.43433095 19.16479492 12.65258789 C19.17987589 14.08722552 19.2003438 15.52181708 19.22631836 16.95629883 C19.26273437 19.01915859 19.27973243 21.08140858 19.29296875 23.14453125 C19.3086792 24.38565674 19.32438965 25.62678223 19.34057617 26.90551758 C19 30 19 30 16 33 C16 22.44 16 11.88 16 1 C10.72 1 5.44 1 0 1 C0 0.67 0 0.34 0 0 Z " fill="#DFDAEC" transform="translate(272,90)"/>
<path d="M0 0 C0.639375 0.33 1.27875 0.66 1.9375 1 C1.9375 2.98 1.9375 4.96 1.9375 7 C1.091875 6.505 0.24625 6.01 -0.625 5.5 C-4.50544451 3.80671512 -6.87150264 3.54280029 -11.0625 4 C-13.93555972 5.40460697 -15.80760999 6.74510999 -18.0625 9 C-18.0625 6.69 -18.0625 4.38 -18.0625 2 C-12.12842097 -1.65174094 -6.5672367 -2.14440382 0 0 Z " fill="#E2E3E3" transform="translate(240.0625,100)"/>
<path d="M0 0 C1.0621875 0.13277344 2.124375 0.26554688 3.21875 0.40234375 C4.24742187 0.53092773 4.24742187 0.53092773 5.296875 0.66210938 C11.71875 1.46484375 11.71875 1.46484375 13.84375 1.73779297 C15.32071677 1.91739694 16.80022678 2.07690536 18.28125 2.21923828 C20.19533725 2.41363777 22.09969477 2.69939862 24 3 C24.33 3.66 24.66 4.32 25 5 C17.08 5 9.16 5 1 5 C0.67 3.35 0.34 1.7 0 0 Z " fill="#1C764F" transform="translate(290,159)"/>
<path d="M0 0 C3.28207494 2.41837101 5.50851699 4.18235083 7 8 C7.265625 10.5078125 7.265625 10.5078125 7.25 13.125 C7.25773438 14.42824219 7.25773438 14.42824219 7.265625 15.7578125 C7 18 7 18 5 20 C2.61093097 17.61093097 2.71466319 16.83074704 2.5 13.5625 C2.26931817 10.06190316 2.03849437 9.05774155 0 6 C-0.125 2.8125 -0.125 2.8125 0 0 Z " fill="#252732" transform="translate(243,103)"/>
<path d="M0 0 C4 2 4 2 5.3125 3.6875 C6.31858949 7.07161918 5.80442399 9.59666774 5 13 C3.5625 14.9375 3.5625 14.9375 2 16 C1.34 16 0.68 16 0 16 C0 10.72 0 5.44 0 0 Z " fill="#FEF2E6" transform="translate(272,91)"/>
<path d="M0 0 C0 1.65 0 3.3 0 5 C-9.41002278 7.29612756 -9.41002278 7.29612756 -14 7 C-14 5.68 -14 4.36 -14 3 C-12.4188708 2.49307308 -10.83498617 1.99473557 -9.25 1.5 C-7.92742187 1.08234375 -7.92742187 1.08234375 -6.578125 0.65625 C-4 0 -4 0 0 0 Z " fill="#1E292E" transform="translate(305,119)"/>
<path d="M0 0 C0.33 0.66 0.66 1.32 1 2 C5.62 1.67 10.24 1.34 15 1 C15.33 2.32 15.66 3.64 16 5 C14.18884044 6.81115956 11.38721773 6.38199448 8.9375 6.5625 C7.83277344 6.64628906 6.72804688 6.73007813 5.58984375 6.81640625 C4.30787109 6.90728516 4.30787109 6.90728516 3 7 C4.32 6.67 5.64 6.34 7 6 C6.67 5.34 6.34 4.68 6 4 C4.02 4 2.04 4 0 4 C0 2.68 0 1.36 0 0 Z " fill="#313642" transform="translate(99,150)"/>
<path d="M0 0 C0 2.31 0 4.62 0 7 C-0.99 7.33 -1.98 7.66 -3 8 C-3 10.64 -3 13.28 -3 16 C-3.99 16 -4.98 16 -6 16 C-5.91291962 13.89505699 -5.80474307 11.79097858 -5.6875 9.6875 C-5.62949219 8.51574219 -5.57148438 7.34398438 -5.51171875 6.13671875 C-5 3 -5 3 -3.58203125 1.08203125 C-2 0 -2 0 0 0 Z " fill="#1A1C26" transform="translate(222,104)"/>
<path d="M0 0 C1.43836751 0.11458693 2.87570966 0.24209116 4.3125 0.375 C5.51326172 0.47941406 5.51326172 0.47941406 6.73828125 0.5859375 C9 1 9 1 12 3 C12 4.32 12 5.64 12 7 C6.39 6.67 0.78 6.34 -5 6 C-5 5.34 -5 4.68 -5 4 C-1.7 4 1.6 4 5 4 C3.68 3.34 2.36 2.68 1 2 C0.67 1.34 0.34 0.68 0 0 Z " fill="#353A47" transform="translate(111,127)"/>
<path d="M0 0 C1.125 5.75 1.125 5.75 0 8 C-3.96 8 -7.92 8 -12 8 C-10.68 7.01 -9.36 6.02 -8 5 C-6.95280478 4.11063564 -5.91063883 3.21529511 -4.875 2.3125 C-2 0 -2 0 0 0 Z " fill="#474C57" transform="translate(275,132)"/>
<path d="M0 0 C0.39397781 3.44730584 0.1644697 4.75613114 -1.8125 7.6875 C-4.35960095 10.38014957 -5.90388827 11.94901806 -9.6875 12.125 C-10.8321875 12.063125 -10.8321875 12.063125 -12 12 C-10.74381926 8.23145777 -9.33985294 7.92041544 -6 6 C-5.67 5.34 -5.34 4.68 -5 4 C-4.34 4 -3.68 4 -3 4 C-3 3.01 -3 2.02 -3 1 C-1 0 -1 0 0 0 Z " fill="#1F222C" transform="translate(161,120)"/>
<path d="M0 0 C0.33 1.32 0.66 2.64 1 4 C0.113125 3.95875 -0.77375 3.9175 -1.6875 3.875 C-4.951666 3.80582769 -4.951666 3.80582769 -7.5625 5.0625 C-10.47578317 6.18299353 -12.04504207 5.84427369 -15 5 C-14.67 3.68 -14.34 2.36 -14 1 C-9.71 1.33 -5.42 1.66 -1 2 C-0.67 1.34 -0.34 0.68 0 0 Z " fill="#303440" transform="translate(278,150)"/>
<path d="M0 0 C0.99 0.33 1.98 0.66 3 1 C3.73046875 2.92578125 3.73046875 2.92578125 4.1875 5.3125 C4.34605469 6.09238281 4.50460938 6.87226562 4.66796875 7.67578125 C5 10 5 10 5 14 C4.34 14 3.68 14 3 14 C0.88254802 11.80564299 0.05410335 10.47610949 -0.29296875 7.421875 C-0.25816406 6.54015625 -0.22335938 5.6584375 -0.1875 4.75 C-0.16042969 3.85796875 -0.13335937 2.9659375 -0.10546875 2.046875 C-0.07066406 1.37140625 -0.03585938 0.6959375 0 0 Z " fill="#F6F6EA" transform="translate(220,112)"/>
<path d="M0 0 C1.37432457 3.81756824 0.67975039 7.07255329 0 11 C0.99 11 1.98 11 3 11 C3 8.36 3 5.72 3 3 C3.33 3 3.66 3 4 3 C4.4726477 11.19256018 4.4726477 11.19256018 2.5 14.5625 C2.005 15.036875 1.51 15.51125 1 16 C-0.86131271 12.83650409 -1.24746869 10.52763845 -1.1875 6.875 C-1.17783203 5.57175781 -1.17783203 5.57175781 -1.16796875 4.2421875 C-1 2 -1 2 0 0 Z " fill="#424650" transform="translate(216,109)"/>
<path d="M0 0 C3.63 0.33 7.26 0.66 11 1 C10.67 1.99 10.34 2.98 10 4 C6.7 3.67 3.4 3.34 0 3 C0 2.01 0 1.02 0 0 Z " fill="#1A1C26" transform="translate(138,129)"/>
<path d="M0 0 C0.33 0 0.66 0 1 0 C1.33 1.98 1.66 3.96 2 6 C-0.97 6 -3.94 6 -7 6 C-6.21625 5.38125 -5.4325 4.7625 -4.625 4.125 C-2.03162353 2.10141339 -2.03162353 2.10141339 0 0 Z " fill="#7E8B9D" transform="translate(272,133)"/>
<path d="M0 0 C2.52588702 2.36292656 3.88820837 3.66462511 5 7 C2.125 6.6875 2.125 6.6875 -1 6 C-1.66 5.01 -2.32 4.02 -3 3 C-2.01 3 -1.02 3 0 3 C0 2.01 0 1.02 0 0 Z " fill="#383C46" transform="translate(224,126)"/>
<path d="M0 0 C2.29013653 3.4352048 2.17842973 4.985331 2 9 C1.01 9.33 0.02 9.66 -1 10 C-1.02689216 8.52093108 -1.04634621 7.04172517 -1.0625 5.5625 C-1.07410156 4.73878906 -1.08570313 3.91507812 -1.09765625 3.06640625 C-1 1 -1 1 0 0 Z " fill="#191B25" transform="translate(160,110)"/>
<path d="M0 0 C1.76462683 3.08809695 2 4.23312136 2 8 C1.34 8 0.68 8 0 8 C-1.625 6 -1.625 6 -3 4 C-2 2 -2 2 0 0 Z " fill="#EAEADF" transform="translate(223,118)"/>
<path d="M0 0 C0.66 0 1.32 0 2 0 C2 2.31 2 4.62 2 7 C1.01 7.495 1.01 7.495 0 8 C0.33 6.68 0.66 5.36 1 4 C-0.32 4.33 -1.64 4.66 -3 5 C-1.125 1.125 -1.125 1.125 0 0 Z " fill="#3E4149" transform="translate(220,104)"/>
</svg>
